{"glyphs":{"0":{"ha":929,"x_min":46,"x_max":883,"o":"m 46 471 q 76 651 46 568 q 159 794 105 734 q 291 890 212 855 q 465 926 370 925 q 638 890 559 925 q 770 794 717 855 q 853 651 824 734 q 883 471 883 568 q 838 216 883 325 q 697 45 793 108 q 465 -18 602 -18 q 232 45 327 -18 q 91 216 136 108 q 46 471 46 325 m 465 237 q 514 258 494 237 q 541 316 533 279 q 552 384 549 353 q 554 454 554 414 q 554 473 554 460 q 554 510 554 491 q 553 550 555 530 q 548 588 551 570 q 538 623 545 606 q 522 651 532 639 q 498 670 513 663 q 465 677 484 677 q 426 668 443 677 q 400 643 410 659 q 385 606 391 627 q 378 563 379 585 q 375 517 376 540 q 375 473 374 494 q 375 454 375 460 q 376 399 375 422 q 382 342 377 375 q 397 289 388 310 q 423 252 406 267 q 465 237 441 237 z "},"1":{"ha":627,"x_min":42,"x_max":560,"o":"m 93 0 l 92 220 l 153 220 l 153 645 l 42 644 l 42 819 l 491 932 l 495 220 l 560 220 l 560 0 l 93 0 z "},"2":{"ha":902,"x_min":52,"x_max":854,"o":"m 854 0 l 854 319 l 737 319 q 726 269 737 289 q 692 239 714 249 q 647 224 670 229 q 591 220 623 220 l 481 220 q 568 285 541 264 q 647 352 596 307 q 726 433 698 397 q 798 629 798 526 q 770 760 798 701 q 693 857 742 819 q 581 917 645 895 q 444 941 517 938 q 333 931 389 943 q 228 896 278 920 q 139 836 178 871 q 77 751 100 800 q 54 644 54 701 q 78 508 52 572 q 155 397 103 444 l 308 515 q 296 528 303 520 q 277 559 289 536 q 266 603 266 582 q 290 672 266 645 q 357 699 313 699 q 420 667 393 699 q 450 583 448 635 q 439 504 450 540 q 404 437 428 469 q 358 384 379 405 q 298 330 336 363 q 79 205 210 256 l 79 0 l 854 0 z "},"3":{"ha":864,"x_min":47,"x_max":818,"o":"m 56 288 l 56 53 q 194 0 117 12 q 378 -12 271 -12 q 700 75 581 -12 q 818 321 818 161 q 748 492 818 416 q 580 577 677 568 q 772 738 772 736 l 772 917 l 47 917 l 47 610 l 179 609 q 203 678 193 663 q 272 706 223 706 l 421 706 l 421 699 l 189 502 l 189 395 q 190 391 189 395 q 203 388 194 388 q 235 395 208 388 q 290 401 263 401 q 348 396 320 401 q 401 378 376 391 q 443 343 427 366 q 458 288 458 319 q 444 240 458 260 q 407 209 430 220 q 358 193 383 198 q 307 189 334 189 q 56 288 179 189 z "},"4":{"ha":869,"x_min":7,"x_max":833,"o":"m 678 195 l 761 195 l 761 0 l 283 0 l 283 195 l 369 195 l 369 285 l 7 284 l 7 467 l 381 910 l 679 909 l 679 458 l 833 459 l 833 285 l 678 285 l 678 195 m 369 459 l 369 618 l 241 460 l 369 459 z "},"5":{"ha":791,"x_min":76,"x_max":748,"o":"m 77 51 q 182 4 108 20 q 324 -12 257 -12 q 455 1 393 -12 q 571 42 517 14 q 664 112 625 71 q 726 214 703 153 q 748 348 748 274 q 655 555 748 473 q 426 638 562 638 q 352 635 388 638 q 300 629 317 632 l 283 627 l 283 721 l 697 721 l 697 922 l 76 922 l 76 384 l 84 376 q 205 420 142 420 q 282 409 245 420 q 348 370 319 398 q 376 302 376 342 q 358 246 376 270 q 314 211 340 222 q 263 195 287 200 q 220 191 240 191 q 161 202 197 191 q 101 224 125 213 l 77 235 l 77 51 z "},"6":{"ha":919,"x_min":37,"x_max":884,"o":"m 399 912 q 362 876 389 903 q 318 833 334 850 q 272 787 301 817 q 222 734 242 756 q 176 679 203 712 q 132 619 149 646 q 95 558 114 592 q 64 493 75 524 q 45 429 52 463 q 37 362 37 395 q 95 165 37 251 q 248 33 152 79 q 463 -12 345 -12 q 668 37 572 -12 q 823 174 764 85 q 883 369 882 262 q 797 599 884 512 q 562 694 709 686 q 618 765 569 712 q 715 865 667 819 q 762 912 762 911 l 399 912 m 387 373 q 388 415 387 399 q 393 454 389 431 q 405 491 397 477 q 429 515 413 505 q 467 526 444 525 q 502 513 487 526 q 523 484 516 500 q 533 442 529 469 q 537 403 536 416 q 537 369 537 391 q 458 222 537 222 q 420 238 435 222 q 398 282 405 255 q 390 330 392 309 q 387 373 387 351 z "},"7":{"ha":836,"x_min":43,"x_max":818,"o":"m 43 595 l 191 595 q 212 672 191 653 q 279 692 233 692 l 443 692 l 100 0 l 461 0 l 818 724 l 818 907 l 43 907 l 43 595 z "},"8":{"ha":897,"x_min":41,"x_max":855,"o":"m 41 254 q 218 495 41 427 q 126 568 159 517 q 94 685 94 618 q 118 789 94 743 q 179 861 142 834 q 266 905 216 888 q 359 928 315 922 q 449 935 404 934 q 537 928 493 934 q 631 905 581 922 q 717 861 680 888 q 779 789 754 834 q 803 685 803 743 q 770 568 803 618 q 678 495 737 517 q 855 254 855 427 q 828 142 855 191 q 760 65 801 94 q 662 18 719 37 q 554 -6 606 0 q 448 -12 503 -12 q 342 -6 393 -12 q 234 18 291 0 q 137 65 178 37 q 68 142 96 94 q 41 254 41 191 m 394 275 q 448 163 394 163 q 503 275 503 163 q 450 392 503 392 q 394 275 394 392 m 394 669 q 450 560 394 559 q 503 669 503 559 q 501 701 503 688 q 494 729 499 714 q 478 752 490 745 q 450 761 466 760 q 419 752 431 760 q 402 729 407 745 q 396 701 397 714 q 394 669 394 688 z "},"9":{"ha":920,"x_min":36,"x_max":884,"o":"m 159 0 l 524 0 q 571 49 538 16 q 629 107 604 82 q 688 170 653 132 q 747 239 722 208 q 800 313 772 271 q 845 391 827 354 q 873 470 862 427 q 884 551 884 512 q 830 745 884 659 q 682 879 777 831 q 471 928 587 928 q 158 815 279 928 q 36 530 36 703 q 130 308 36 397 q 365 218 224 218 q 286 128 337 182 q 197 37 234 74 l 159 0 m 390 530 q 465 686 390 686 q 500 669 486 686 q 520 624 514 651 q 528 575 526 596 q 530 536 530 554 q 464 389 530 389 q 390 530 390 389 z "}," ":{"ha":326,"x_min":0,"x_max":0,"o":""},"!":{"ha":544,"x_min":73,"x_max":471,"o":"m 414 378 l 128 377 l 73 903 l 73 1105 l 471 1105 l 471 903 l 414 378 m 271 314 q 136 268 190 314 q 83 144 83 222 q 135 23 83 68 q 271 -22 188 -22 q 411 23 357 -22 q 465 144 465 68 q 409 268 465 222 q 271 314 353 314 z "},"\"":{"ha":778,"x_min":30,"x_max":753,"o":"m 30 1101 l 355 1101 l 288 641 l 84 641 l 30 1101 m 428 1101 l 753 1101 l 686 641 l 482 641 l 428 1101 z "},"#":{"ha":958,"x_min":40,"x_max":915,"o":"m 277 845 l 334 1101 l 554 1101 l 495 845 l 602 845 l 659 1101 l 879 1101 l 820 845 l 915 845 l 872 642 l 774 642 l 718 397 l 815 397 l 772 194 l 671 194 l 627 0 l 414 0 l 457 194 l 346 194 l 302 0 l 90 0 l 132 194 l 40 194 l 83 397 l 178 397 l 232 642 l 140 642 l 182 845 l 277 845 m 393 397 l 503 397 l 557 642 l 449 642 l 393 397 z "},"$":{"ha":921,"x_min":60,"x_max":880,"o":"m 64 370 l 232 370 q 292 257 237 312 q 397 202 347 202 l 397 397 q 320 420 352 410 q 251 446 288 430 q 187 478 213 461 q 136 518 161 494 q 95 569 110 542 q 70 634 79 597 q 60 714 60 671 q 154 936 60 854 q 401 1026 247 1018 l 401 1156 l 555 1156 l 555 1013 q 652 972 590 1001 l 663 983 l 682 1002 l 788 1002 q 794 1000 789 1002 q 800 999 799 999 q 801 997 800 998 q 803 996 802 996 q 804 994 804 995 l 804 705 l 800 701 l 718 699 q 700 698 717 699 q 679 697 684 697 q 654 699 671 697 l 647 705 q 574 823 631 770 q 561 831 568 831 q 553 827 553 831 l 553 672 q 653 640 609 657 q 739 596 696 623 q 811 536 782 570 q 858 456 840 503 q 878 351 876 409 q 836 191 880 265 q 718 72 793 117 q 553 24 642 28 l 553 -113 l 397 -113 l 397 33 q 227 87 302 52 l 197 45 l 64 45 l 64 370 m 621 271 q 608 326 625 299 q 553 357 591 352 l 553 208 q 600 228 578 208 q 621 271 621 248 m 322 800 q 343 748 322 770 q 399 718 365 726 l 399 861 q 346 844 370 863 q 322 800 322 825 z "},"%":{"ha":1850,"x_min":38,"x_max":1811,"o":"m 1136 353 q 1176 549 1136 460 q 1293 690 1216 637 q 1471 743 1371 743 q 1723 643 1636 743 q 1811 376 1811 543 q 1790 231 1811 300 q 1731 108 1770 163 q 1630 20 1693 53 q 1487 -12 1567 -12 q 1228 86 1320 -12 q 1136 353 1136 185 m 1475 512 q 1421 470 1437 510 q 1410 366 1410 441 q 1473 225 1410 225 q 1499 231 1488 225 q 1518 246 1511 236 q 1529 268 1525 256 q 1536 294 1534 279 q 1538 321 1537 310 q 1539 348 1539 333 l 1539 366 q 1539 394 1539 384 q 1537 423 1539 404 q 1532 455 1536 443 q 1520 482 1527 468 q 1502 503 1514 496 q 1475 512 1491 511 m 636 0 l 867 1101 l 1209 1101 l 977 0 l 636 0 m 38 731 q 78 926 38 838 q 195 1068 118 1015 q 373 1121 273 1121 q 625 1021 538 1121 q 713 754 713 920 q 692 609 713 677 q 633 486 672 541 q 532 398 595 431 q 389 366 469 366 q 130 464 222 366 q 38 731 38 563 m 377 890 q 323 848 338 888 q 312 744 312 819 q 375 603 312 603 q 401 608 390 603 q 420 624 413 614 q 431 645 427 634 q 438 672 436 656 q 440 699 439 688 q 441 726 441 711 l 441 743 q 441 771 441 762 q 439 801 441 781 q 434 833 438 821 q 422 860 429 846 q 404 881 416 873 q 377 890 393 888 z "},"&":{"ha":1172,"x_min":20,"x_max":1123,"o":"m 758 0 q 640 124 724 33 q 328 -18 515 -14 q 110 56 196 -17 q 20 258 23 128 q 75 433 22 362 q 233 549 127 503 q 153 753 155 635 q 179 871 153 819 q 250 958 205 924 q 353 1009 294 991 q 479 1027 412 1027 q 582 1012 531 1027 q 674 967 633 996 q 741 893 715 939 q 766 793 766 847 q 761 723 766 751 q 740 668 755 694 q 706 623 724 642 q 652 572 688 604 l 773 454 l 791 470 q 827 508 809 486 q 846 540 846 529 q 827 564 846 564 l 795 564 l 795 764 l 1123 764 l 1123 568 q 1050 533 1076 551 q 982 471 1025 515 l 867 351 q 967 250 870 350 l 1123 250 l 1123 0 l 758 0 m 330 330 q 360 256 330 286 q 435 227 390 227 q 512 254 477 227 l 372 399 l 367 396 q 357 387 363 393 q 345 372 351 380 q 335 353 339 364 q 330 330 330 342 m 460 797 q 472 756 460 777 q 497 724 484 736 q 532 695 510 712 q 579 735 564 718 q 594 781 594 753 q 576 840 594 816 q 524 863 558 863 q 478 843 497 863 q 460 797 460 823 z "},"'":{"ha":379,"x_min":30,"x_max":355,"o":"m 30 1101 l 355 1101 l 288 641 l 84 641 l 30 1101 z "},"(":{"ha":655,"x_min":34,"x_max":618,"o":"m 618 896 q 526 881 566 895 q 459 841 485 867 q 416 784 433 814 q 390 713 399 754 q 379 636 382 672 q 376 556 376 601 q 381 458 376 503 q 403 366 387 412 q 445 287 419 319 q 514 234 471 254 q 614 213 557 213 l 614 -12 q 400 19 497 -12 q 237 102 304 50 q 123 228 170 155 q 55 382 77 300 q 34 555 34 465 q 66 799 34 696 q 169 976 99 903 q 350 1085 238 1048 q 618 1121 463 1121 l 618 896 z "},")":{"ha":655,"x_min":37,"x_max":621,"o":"m 37 1121 q 305 1085 193 1121 q 487 976 417 1048 q 589 799 556 903 q 621 555 621 696 q 600 382 621 465 q 532 228 578 300 q 418 102 486 155 q 255 19 351 50 q 41 -12 158 -12 l 41 213 q 141 234 98 213 q 210 287 184 254 q 252 366 236 319 q 274 458 268 412 q 279 556 279 503 q 276 636 279 601 q 265 713 273 672 q 239 784 256 754 q 196 841 222 814 q 130 881 170 867 q 37 896 89 895 l 37 1121 z "},"*":{"ha":913,"x_min":46,"x_max":875,"o":"m 66 901 q 133 947 90 938 q 229 925 176 956 q 278 884 251 910 q 321 841 305 858 q 369 784 336 823 q 409 736 402 745 q 391 796 406 747 q 371 867 377 844 q 358 927 365 890 q 351 991 351 964 q 384 1080 351 1048 q 460 1113 416 1113 q 537 1080 505 1113 q 570 991 570 1048 q 566 944 570 969 q 555 889 563 919 q 542 840 548 860 q 526 784 536 819 q 511 736 515 749 q 552 784 522 748 q 600 840 583 821 q 643 885 616 859 q 692 925 670 910 q 788 947 745 956 q 854 901 831 938 q 872 850 870 878 q 860 793 875 822 q 813 743 845 764 q 734 703 781 721 q 623 667 688 686 q 539 641 559 648 q 624 614 562 633 q 734 578 687 596 q 813 539 781 560 q 860 489 845 518 q 872 432 875 460 q 854 381 870 404 q 788 335 831 344 q 692 357 745 326 q 643 397 670 372 q 600 441 616 423 q 552 497 584 459 q 511 545 519 536 q 529 486 514 536 q 550 414 545 435 q 563 355 556 392 q 570 291 570 318 q 537 201 570 234 q 460 169 505 169 q 384 201 416 169 q 351 291 351 234 q 358 354 351 318 q 371 415 365 391 q 391 485 377 439 q 409 545 405 532 q 370 498 406 541 q 320 440 334 455 q 279 398 307 425 q 229 357 251 372 q 133 335 176 326 q 66 381 90 344 q 48 432 51 404 q 61 489 46 460 q 108 539 76 518 q 187 578 140 560 q 297 615 234 596 q 381 641 359 633 q 297 667 361 648 q 186 703 233 686 q 108 743 140 721 q 61 793 76 764 q 48 850 46 822 q 66 901 51 878 z "},"+":{"ha":617,"x_min":40,"x_max":577,"o":"m 40 517 l 224 517 l 224 713 l 397 713 l 397 517 l 577 517 l 577 351 l 397 351 l 397 161 l 224 161 l 224 351 l 40 351 l 40 517 z "},",":{"ha":486,"x_min":64,"x_max":427,"o":"m 64 -151 q 117 -147 95 -151 q 154 -132 140 -142 q 176 -111 168 -121 q 188 -79 184 -100 q 192 -44 191 -59 q 193 0 193 -28 l 64 0 l 64 248 l 410 248 q 427 60 427 144 q 338 -216 427 -128 q 64 -304 250 -304 l 64 -151 z "},"-":{"ha":568,"x_min":64,"x_max":503,"o":"m 503 567 l 503 364 l 64 364 l 64 567 l 503 567 z "},".":{"ha":460,"x_min":39,"x_max":422,"o":"m 227 -18 q 93 27 146 -18 q 39 151 39 73 q 92 273 39 228 q 227 317 144 317 q 368 273 313 317 q 422 151 422 228 q 366 27 422 73 q 227 -18 310 -18 z "},"/":{"ha":647,"x_min":35,"x_max":615,"o":"m 35 0 l 368 1101 l 615 1101 l 275 0 l 35 0 z "},":":{"ha":491,"x_min":54,"x_max":437,"o":"m 242 404 q 108 450 161 404 q 54 574 54 496 q 107 695 54 650 q 242 740 159 740 q 382 695 328 740 q 437 574 437 650 q 381 450 437 496 q 242 404 325 404 m 242 -12 q 108 34 161 -12 q 54 157 54 79 q 107 279 54 234 q 242 323 159 323 q 382 279 328 323 q 437 157 437 234 q 381 34 437 79 q 242 -12 325 -12 z "},";":{"ha":488,"x_min":64,"x_max":447,"o":"m 71 -304 q 345 -216 257 -304 q 433 60 433 -128 q 417 248 433 144 l 71 248 l 71 0 l 199 0 q 199 -44 199 -28 q 194 -79 198 -59 q 182 -111 191 -100 q 160 -132 174 -121 q 124 -147 146 -142 q 71 -151 102 -151 l 71 -304 m 252 404 q 118 449 172 404 q 64 573 64 495 q 117 694 64 650 q 252 739 170 739 q 393 694 338 739 q 447 573 447 650 q 391 449 447 495 q 252 404 335 404 z "},"<":{"ha":616,"x_min":39,"x_max":524,"o":"m 39 642 l 524 1046 l 524 730 l 298 516 l 524 302 l 524 -14 l 39 391 l 39 642 z "},"=":{"ha":572,"x_min":67,"x_max":506,"o":"m 506 266 l 506 115 l 67 115 l 67 266 l 506 266 m 506 516 l 506 365 l 67 365 l 67 516 l 506 516 z "},">":{"ha":616,"x_min":93,"x_max":578,"o":"m 578 391 l 93 -14 l 93 302 l 319 516 l 93 730 l 93 1046 l 578 642 l 578 391 z "},"?":{"ha":889,"x_min":39,"x_max":859,"o":"m 243 604 q 512 847 512 726 q 510 870 512 858 q 502 899 507 883 q 481 926 496 916 q 447 937 467 937 q 359 827 366 937 l 39 827 q 163 1079 48 980 q 452 1178 278 1178 q 660 1137 567 1178 q 806 1024 753 1097 q 859 863 859 952 q 846 775 859 817 q 812 702 833 734 q 760 642 792 671 q 697 592 728 612 q 624 552 666 572 q 551 519 583 532 q 478 492 519 507 l 478 366 l 243 366 l 243 604 m 365 -18 q 231 27 284 -18 q 177 151 177 73 q 230 273 177 228 q 365 317 282 317 q 505 273 451 317 q 559 151 559 228 q 504 27 559 73 q 365 -18 448 -18 z "},"@":{"ha":1288,"x_min":56,"x_max":1249,"o":"m 949 270 q 978 273 965 270 q 1006 287 991 276 q 1032 318 1022 298 q 1049 373 1042 337 q 1056 459 1056 410 q 958 676 1056 595 q 669 758 859 758 q 373 656 477 758 q 269 385 269 555 q 297 244 269 309 q 377 131 324 180 q 514 53 430 81 q 703 25 597 25 q 814 40 762 25 l 849 -115 q 703 -134 774 -134 q 427 -93 551 -134 q 223 19 303 -52 q 99 183 142 90 q 56 385 56 277 q 97 596 56 497 q 215 769 138 694 q 409 887 292 844 q 669 930 526 930 q 913 893 803 930 q 1097 792 1024 857 q 1210 643 1170 728 q 1249 459 1249 557 q 1227 331 1249 388 q 1159 230 1205 273 q 1038 162 1114 186 q 859 138 962 138 l 758 138 l 732 199 q 667 148 708 166 q 587 129 626 129 q 450 203 507 129 q 393 399 393 277 q 410 495 393 451 q 459 576 426 540 q 549 633 492 612 q 682 654 606 654 q 717 653 701 654 q 762 647 732 652 q 814 633 791 642 q 863 606 836 625 q 907 563 890 588 q 936 498 924 538 q 948 409 948 458 l 949 270 m 626 395 q 640 293 626 332 q 675 254 653 254 q 732 277 713 254 l 732 455 q 720 533 732 511 q 680 554 709 554 q 652 541 663 554 q 635 503 641 528 q 628 454 630 479 q 626 395 626 429 z "},"A":{"ha":1114,"x_min":3,"x_max":1108,"o":"m 804 1101 l 130 1101 l 130 861 l 273 861 l 157 401 q 131 313 138 330 q 56 249 109 262 q 3 243 33 243 l 3 0 l 463 0 l 463 243 l 406 243 q 384 268 391 243 q 376 311 376 292 q 378 333 377 326 q 383 348 378 340 q 397 355 388 355 l 583 355 q 629 243 629 355 l 547 243 l 548 0 l 1108 0 l 1108 243 l 1050 243 q 1032 252 1040 243 q 1021 271 1025 260 q 1012 303 1017 282 l 804 1101 m 415 524 l 491 869 l 570 524 l 415 524 z "},"B":{"ha":1130,"x_min":60,"x_max":1096,"o":"m 60 0 l 699 0 q 857 16 787 0 q 982 64 927 31 q 1066 153 1036 97 q 1096 285 1096 209 q 1040 473 1096 399 q 883 575 985 546 l 883 576 q 1003 668 957 604 q 1049 817 1049 732 q 1029 935 1049 884 q 973 1017 1008 985 q 881 1067 937 1048 q 763 1094 825 1086 q 617 1101 700 1101 l 65 1100 l 65 861 l 178 861 l 177 243 l 60 243 l 60 0 m 585 475 q 621 473 605 475 q 655 464 636 471 q 688 445 675 457 q 710 410 701 433 q 720 357 720 388 q 717 326 720 340 q 710 301 715 312 q 700 282 706 291 q 686 268 694 273 q 669 257 678 262 q 649 251 659 253 q 627 247 638 248 q 603 244 615 245 q 577 243 590 243 q 550 243 564 243 q 535 243 540 243 l 535 474 q 585 475 578 475 m 535 861 l 621 861 q 686 837 659 861 q 714 767 714 812 q 703 706 714 730 q 669 670 692 682 q 622 655 646 659 q 563 652 599 652 l 535 652 l 535 861 z "},"C":{"ha":1043,"x_min":39,"x_max":987,"o":"m 987 415 l 783 415 q 778 351 781 365 q 726 265 768 297 q 629 233 684 233 q 557 248 588 233 q 508 288 526 262 q 479 345 491 313 q 465 413 467 378 q 460 484 462 448 q 460 550 458 519 q 460 580 460 570 q 460 634 460 612 q 465 690 461 656 q 474 746 468 723 q 492 795 480 770 q 521 838 505 821 q 563 864 538 854 q 621 875 589 875 q 696 856 663 875 q 746 807 728 838 q 772 742 764 777 q 779 672 780 708 l 981 672 l 981 1101 l 770 1101 l 747 1053 q 670 1098 716 1082 q 589 1117 625 1114 q 503 1120 553 1120 q 328 1087 407 1120 q 197 998 250 1054 q 107 868 144 943 q 55 712 71 793 q 39 545 39 631 q 97 249 39 374 q 273 52 155 123 q 559 -20 391 -20 q 700 -3 630 -20 q 820 36 770 13 q 909 81 869 58 q 968 121 948 104 l 987 137 l 987 415 z "},"D":{"ha":1221,"x_min":62,"x_max":1183,"o":"m 66 0 l 610 0 q 858 45 747 0 q 1038 168 968 91 q 1145 344 1108 245 q 1183 553 1183 443 q 1044 961 1183 822 q 625 1101 905 1101 l 62 1101 l 62 862 l 177 862 l 177 243 l 66 243 l 66 0 m 548 243 l 548 862 l 580 862 q 667 843 630 862 q 726 794 705 823 q 759 722 747 764 q 776 640 772 679 q 780 554 780 601 q 775 468 780 509 q 755 385 770 427 q 719 312 741 342 q 659 263 696 282 q 572 243 621 243 l 548 243 z "},"E":{"ha":1010,"x_min":67,"x_max":935,"o":"m 745 656 l 694 861 l 549 861 l 549 670 l 688 670 l 688 431 l 549 431 l 549 243 l 698 243 l 707 285 l 749 466 l 935 466 l 935 0 l 67 0 l 67 243 l 174 243 l 174 861 l 67 861 l 67 1101 l 927 1101 l 927 657 l 745 656 z "},"F":{"ha":954,"x_min":68,"x_max":932,"o":"m 695 436 l 558 436 l 558 243 l 663 243 l 663 0 l 68 0 l 68 243 l 175 243 l 175 861 l 68 861 l 68 1101 l 932 1101 l 932 650 l 740 650 l 696 861 l 558 861 l 558 677 l 695 677 l 695 436 z "},"G":{"ha":1166,"x_min":36,"x_max":1099,"o":"m 911 0 l 1099 0 l 1099 585 l 675 585 l 675 378 l 783 378 q 789 323 789 358 q 750 244 789 273 q 660 216 711 216 q 446 515 446 216 q 449 593 446 557 q 459 672 452 629 q 482 748 467 715 q 520 809 497 781 q 580 853 543 838 q 664 868 616 868 q 739 856 707 868 q 790 824 771 843 q 823 772 810 804 q 843 711 837 741 q 854 641 850 682 l 1050 641 l 1050 1101 l 836 1101 l 806 1059 q 581 1120 720 1120 q 346 1074 451 1120 q 174 948 241 1028 q 72 763 107 868 q 36 537 36 658 q 65 343 36 433 q 146 188 94 254 q 270 75 198 121 q 429 4 342 28 q 615 -20 517 -20 q 883 68 785 -20 l 911 0 z "},"H":{"ha":1294,"x_min":71,"x_max":1223,"o":"m 71 243 l 171 243 l 171 861 l 71 861 l 71 1101 l 620 1101 l 620 861 l 555 861 l 555 669 l 738 669 l 738 861 l 678 861 l 678 1101 l 1219 1101 l 1219 861 l 1124 861 l 1124 243 l 1223 243 l 1223 0 l 681 0 l 681 243 l 738 243 l 738 431 l 555 431 l 555 243 l 621 243 l 620 0 l 71 0 l 71 243 z "},"I":{"ha":730,"x_min":71,"x_max":659,"o":"m 659 861 l 559 861 l 559 243 l 655 243 l 655 0 l 71 0 l 71 243 l 170 243 l 170 861 l 73 861 l 73 1101 l 659 1101 l 659 861 z "},"J":{"ha":891,"x_min":20,"x_max":860,"o":"m 20 -9 l 203 -9 l 229 54 q 424 -20 289 -20 q 671 73 583 -20 q 760 322 760 166 l 760 861 l 860 861 l 860 1101 l 281 1101 l 281 861 l 385 861 l 385 388 q 367 280 385 313 q 310 248 349 248 q 279 255 293 248 q 257 273 265 262 q 242 300 248 283 q 233 332 236 318 q 229 367 230 345 q 227 399 227 389 q 227 429 227 410 l 20 429 l 20 -9 z "},"K":{"ha":1220,"x_min":71,"x_max":1196,"o":"m 71 1100 l 628 1100 l 628 861 l 542 861 l 542 602 l 736 861 l 736 1100 l 1160 1101 l 1160 861 l 1067 861 l 850 586 l 850 576 q 944 568 903 576 q 1018 542 985 560 q 1068 490 1050 524 q 1085 408 1085 456 l 1085 313 q 1097 266 1085 289 q 1131 243 1109 243 l 1192 243 l 1196 0 l 960 0 q 732 208 732 0 l 732 334 q 710 400 732 366 q 657 434 688 434 l 542 434 l 542 243 l 628 243 l 632 24 l 632 0 l 71 0 l 71 243 l 171 243 l 171 861 l 71 861 l 71 1100 z "},"L":{"ha":964,"x_min":71,"x_max":937,"o":"m 555 243 l 684 243 l 743 481 l 937 481 l 937 0 l 74 0 l 73 243 l 170 243 l 170 861 l 71 861 l 71 1100 l 659 1100 l 659 861 l 555 861 l 555 243 z "},"M":{"ha":1633,"x_min":65,"x_max":1565,"o":"m 399 677 l 682 0 l 872 0 l 1104 663 l 1104 243 l 1021 243 l 1021 0 l 1565 0 l 1565 243 l 1461 243 l 1461 861 l 1560 861 l 1560 1101 l 1029 1101 l 842 581 l 631 1101 l 65 1101 l 66 861 l 179 861 l 179 412 q 179 378 179 389 q 178 348 179 367 q 175 321 177 330 q 169 298 173 312 q 160 278 165 285 q 146 264 155 272 q 127 252 138 256 q 101 246 116 249 q 68 243 86 243 l 68 0 l 509 0 l 509 243 q 476 246 491 243 q 450 251 461 248 q 431 261 439 254 q 418 273 423 268 q 409 288 412 277 q 403 304 405 298 q 400 323 401 310 q 399 342 399 336 q 399 363 399 349 l 399 677 z "},"N":{"ha":1271,"x_min":66,"x_max":1230,"o":"m 1230 1100 l 798 1101 l 798 861 q 844 859 825 862 q 875 846 864 855 q 893 828 886 837 q 902 805 900 820 q 905 781 905 789 q 905 757 905 773 l 905 439 l 569 1101 l 71 1101 l 71 863 l 177 863 l 177 373 q 176 332 177 347 q 169 298 174 317 q 152 269 163 279 q 119 251 140 258 q 66 243 98 243 l 66 0 l 498 0 l 498 243 q 416 266 441 243 q 391 344 391 288 l 391 616 l 712 0 l 1123 0 l 1123 758 q 1148 835 1123 808 q 1230 861 1173 861 l 1230 1100 z "},"O":{"ha":1183,"x_min":35,"x_max":1147,"o":"m 1147 548 q 1075 258 1147 389 q 874 54 1002 128 q 591 -20 747 -20 q 309 54 436 -20 q 108 258 181 128 q 35 548 35 389 q 108 854 35 723 q 306 1053 181 985 q 593 1121 431 1121 q 877 1053 751 1121 q 1075 854 1002 985 q 1147 548 1147 723 m 591 216 q 639 225 618 216 q 674 250 660 234 q 700 286 689 265 q 717 332 711 307 q 727 383 723 357 q 732 436 731 410 q 734 489 733 463 q 734 538 734 515 q 734 558 734 551 q 734 582 734 566 q 734 633 733 606 q 731 689 734 661 q 724 745 728 718 q 709 797 720 772 q 683 840 698 821 q 645 868 669 858 q 591 879 621 879 q 544 871 565 879 q 508 848 522 863 q 483 814 494 833 q 466 772 471 795 q 455 725 460 749 q 450 675 451 700 q 449 627 450 650 q 449 582 448 603 q 449 558 449 566 q 449 538 449 551 q 449 495 450 517 q 450 449 448 473 q 454 401 452 425 q 461 354 456 377 q 473 311 466 331 q 490 273 479 290 q 515 243 501 256 q 549 223 529 231 q 591 216 568 216 z "},"P":{"ha":1120,"x_min":67,"x_max":1103,"o":"m 67 0 l 651 0 l 651 243 l 552 243 l 552 386 q 654 379 606 379 q 838 399 758 379 q 979 461 918 418 q 1071 577 1040 504 q 1101 750 1103 650 q 1090 855 1101 808 q 1061 937 1080 903 q 1017 998 1043 971 q 960 1042 991 1025 q 893 1072 929 1059 q 817 1089 857 1084 q 734 1098 777 1094 q 648 1101 692 1101 q 559 1101 604 1100 q 543 1101 549 1101 q 528 1101 537 1101 q 512 1101 519 1101 l 71 1101 l 71 861 l 173 861 l 173 243 l 67 243 l 67 0 m 552 861 l 609 861 q 698 833 662 861 q 734 743 734 804 q 580 607 734 607 l 552 607 l 552 861 z "},"Q":{"ha":1197,"x_min":36,"x_max":1183,"o":"m 606 -20 q 684 -15 633 -20 l 854 0 l 1183 0 l 1183 243 l 1072 243 q 1154 547 1154 381 q 1113 787 1154 679 q 997 968 1071 896 q 822 1081 924 1041 q 602 1120 721 1120 q 306 1048 435 1120 q 106 847 176 977 q 36 553 36 718 q 106 253 36 383 q 305 52 176 123 q 606 -20 435 -20 m 454 527 q 454 607 454 569 q 457 680 454 646 q 465 743 460 714 q 480 794 470 771 q 506 832 490 817 q 545 856 522 848 q 598 865 568 865 q 658 852 633 865 q 699 812 684 840 q 723 761 713 785 q 735 693 732 736 q 740 626 739 650 q 741 557 741 602 q 741 526 741 547 q 741 463 743 496 q 737 397 739 430 q 726 334 735 364 q 703 280 717 303 q 664 243 689 257 q 606 229 639 229 q 558 235 579 229 q 522 254 537 241 q 495 282 507 267 q 477 320 484 297 q 465 365 470 344 q 458 416 460 385 q 455 469 456 446 q 454 527 454 492 z "},"R":{"ha":1197,"x_min":68,"x_max":1171,"o":"m 618 243 l 536 243 l 536 471 l 603 471 q 669 459 644 471 q 708 424 695 448 q 725 373 720 399 q 729 306 729 346 l 729 174 q 734 122 729 146 q 748 82 740 99 q 771 52 756 65 q 799 30 785 39 q 833 16 812 22 q 870 6 854 9 q 911 2 886 3 q 952 0 937 1 q 994 0 967 0 l 1171 0 l 1171 243 q 1111 248 1133 243 q 1077 263 1088 252 q 1063 285 1066 273 q 1060 316 1060 296 l 1060 379 q 1017 483 1060 441 q 872 547 973 524 q 1052 632 989 569 q 1116 793 1116 695 q 1090 937 1116 877 q 1017 1033 1065 997 q 904 1084 968 1068 q 757 1101 840 1101 l 68 1101 l 68 861 l 174 861 l 174 243 l 69 243 l 69 -1 q 618 0 439 0 l 618 243 m 532 624 l 532 861 l 614 861 q 709 829 675 861 q 743 743 743 797 q 729 685 743 709 q 690 648 715 661 q 636 629 665 635 q 574 624 608 624 l 532 624 z "},"S":{"ha":901,"x_min":50,"x_max":867,"o":"m 593 1101 q 571 1060 574 1068 q 359 1121 490 1121 q 129 1025 208 1121 q 50 768 50 930 q 57 685 50 724 q 74 615 63 646 q 102 556 85 584 q 140 508 120 529 q 186 468 159 487 q 240 435 214 449 q 300 408 266 421 q 366 384 335 394 q 436 363 396 374 q 478 349 461 356 q 510 325 495 341 q 525 285 525 308 q 503 242 525 257 q 451 227 481 227 q 356 264 401 227 q 293 351 311 302 l 75 351 l 75 0 l 294 0 l 318 62 q 419 -1 371 18 q 541 -20 468 -20 q 674 11 612 -20 q 778 93 736 42 q 843 210 820 144 q 865 345 867 275 q 846 472 864 415 q 799 568 828 530 q 732 636 770 606 q 654 683 695 665 q 572 715 613 701 q 494 740 531 730 q 429 762 457 751 q 384 787 400 772 q 367 823 367 802 q 384 869 367 854 q 431 885 401 885 q 524 844 481 885 q 578 751 566 804 l 786 751 l 786 1101 l 593 1101 z "},"T":{"ha":1041,"x_min":26,"x_max":1015,"o":"m 824 654 l 782 861 l 710 861 l 710 244 l 821 244 l 821 0 l 217 0 l 217 244 l 328 244 l 328 861 l 260 861 l 217 654 l 26 654 l 26 1100 l 1015 1100 l 1015 654 l 824 654 z "},"U":{"ha":1141,"x_min":29,"x_max":1112,"o":"m 1007 861 l 1112 861 l 1112 1100 l 668 1100 l 668 861 l 779 861 l 779 363 q 744 269 779 304 q 646 235 709 235 q 585 250 611 235 q 545 290 559 264 q 525 345 531 315 q 518 407 518 374 l 518 861 l 618 861 l 618 1100 l 29 1100 l 29 861 l 138 861 l 138 477 q 143 367 138 418 q 162 264 149 316 q 196 172 175 213 q 250 94 217 130 q 327 33 283 57 q 431 -6 371 8 q 566 -20 492 -20 q 782 26 682 -20 q 945 159 882 73 q 1007 353 1007 245 l 1007 861 z "},"V":{"ha":1131,"x_min":-4,"x_max":1142,"o":"m 504 861 l 583 861 l 583 1100 l -4 1100 l -4 861 l 109 861 l 353 0 l 749 0 l 989 700 q 1001 733 994 711 q 1011 764 1008 755 q 1020 789 1014 772 q 1031 811 1027 805 q 1044 829 1036 818 q 1061 844 1053 840 q 1082 853 1069 848 q 1109 860 1094 858 q 1142 861 1124 861 l 1142 1100 l 671 1100 l 671 861 q 746 845 722 861 q 772 801 771 829 q 760 733 772 772 l 641 351 l 504 861 z "},"W":{"ha":1668,"x_min":-3,"x_max":1677,"o":"m -3 1101 l -3 861 l 94 861 l 331 0 l 695 0 l 832 479 l 963 0 l 1331 0 l 1549 779 q 1591 844 1563 827 q 1677 861 1620 861 l 1677 1101 l 1236 1101 l 1236 861 q 1302 853 1286 861 q 1310 814 1318 844 l 1219 477 l 1047 1101 l 770 1101 l 593 456 l 486 861 l 581 861 l 581 1101 l -3 1101 z "},"X":{"ha":1263,"x_min":5,"x_max":1240,"o":"m 1219 1101 l 720 1101 l 720 861 q 756 853 735 861 q 778 831 778 844 q 763 793 778 821 q 732 743 747 766 l 717 722 l 607 861 l 663 861 l 663 1101 l 67 1101 l 67 861 l 156 861 l 408 585 l 213 334 q 133 260 172 277 q 5 243 94 243 l 5 0 l 567 0 l 563 243 l 506 243 q 475 255 488 243 q 463 285 463 267 q 467 308 463 294 q 477 328 471 321 l 551 430 l 716 243 l 631 243 l 631 0 l 1240 0 l 1240 243 l 1158 243 l 867 562 l 1042 800 q 1112 849 1067 836 q 1219 861 1157 861 l 1219 1101 z "},"Y":{"ha":1057,"x_min":-10,"x_max":1061,"o":"m 1061 1100 l 629 1100 l 629 861 q 644 861 634 861 q 659 861 654 861 q 671 861 663 861 q 682 860 678 861 q 691 858 686 859 q 698 854 696 857 q 703 848 701 851 q 707 839 706 844 q 708 828 708 834 q 631 673 708 791 q 569 767 616 694 q 506 861 521 841 l 568 861 l 568 1100 l -10 1100 l -10 861 l 66 861 l 351 456 l 351 243 l 246 243 l 246 0 l 836 0 l 836 243 l 729 243 l 729 491 l 867 743 q 891 786 884 773 q 913 818 899 800 q 939 843 926 836 q 969 856 951 850 q 1010 861 987 861 l 1061 861 l 1061 1100 z "},"Z":{"ha":1090,"x_min":68,"x_max":1028,"o":"m 1014 877 l 555 243 l 764 243 l 837 478 l 1028 478 l 1027 0 l 72 0 l 71 237 l 532 861 l 318 861 l 264 636 l 68 636 l 68 1100 l 1014 1100 l 1014 877 z "},"[":{"ha":617,"x_min":98,"x_max":583,"o":"m 98 0 l 98 1101 l 583 1101 l 583 897 l 449 897 l 449 211 l 580 211 l 579 0 l 98 0 z "},"\\":{"ha":699,"x_min":39,"x_max":660,"o":"m 271 0 l 39 1101 l 429 1101 l 660 0 l 271 0 z "},"]":{"ha":616,"x_min":34,"x_max":518,"o":"m 37 0 l 37 211 l 168 211 l 168 897 l 34 897 l 34 1101 l 518 1101 l 518 0 l 37 0 z "},"^":{"ha":1158,"x_min":151,"x_max":1074,"o":"m 738 1101 l 1074 616 l 759 616 l 612 842 l 466 616 l 151 616 l 487 1101 l 738 1101 z "},"_":{"ha":790,"x_min":-9,"x_max":800,"o":"m 800 -1 l 800 -152 l -9 -152 l -9 -1 l 800 -1 z "},"`":{"ha":689,"x_min":66,"x_max":512,"o":"m 191 1158 l 512 862 l 441 766 l 66 979 l 191 1158 z "},"a":{"ha":878,"x_min":20,"x_max":846,"o":"m 20 209 q 97 48 20 108 q 284 -12 174 -12 q 399 12 340 -12 q 492 81 458 37 l 526 0 l 846 0 l 846 207 l 794 207 l 794 509 q 777 593 794 555 q 734 654 760 631 q 670 695 709 678 q 599 721 632 713 q 524 734 566 730 q 459 740 481 739 q 409 741 437 741 q 254 729 336 741 q 127 705 172 717 l 81 693 l 81 480 l 200 480 q 346 545 249 545 q 489 432 489 545 l 489 401 q 315 427 414 427 q 207 413 259 427 q 113 373 155 399 q 46 304 71 347 q 20 209 20 261 m 353 221 q 374 274 353 250 q 424 297 395 297 q 455 294 439 297 q 481 286 472 290 l 491 283 l 491 183 q 483 175 488 180 q 458 161 477 170 q 418 152 439 152 q 370 171 388 152 q 353 221 353 191 z "},"b":{"ha":950,"x_min":22,"x_max":920,"o":"m 406 1106 l 22 1106 l 22 899 l 79 899 l 79 0 l 385 0 l 412 69 q 503 9 478 22 q 599 -12 548 -12 q 715 9 662 -12 q 806 66 768 30 q 869 150 843 102 q 907 252 895 198 q 920 365 920 307 q 908 473 920 420 q 871 575 896 526 q 811 660 846 623 q 724 719 775 697 q 613 741 673 741 q 406 654 513 741 l 406 1106 m 409 449 q 413 456 410 452 q 424 472 415 460 q 442 491 433 483 q 468 507 452 500 q 500 514 484 514 q 546 503 527 514 q 576 475 566 491 q 594 435 587 458 q 602 392 600 412 q 604 352 604 373 q 574 256 604 290 q 500 222 545 222 q 453 234 476 222 q 419 257 430 245 l 409 269 l 409 449 z "},"c":{"ha":753,"x_min":29,"x_max":704,"o":"m 29 370 q 79 162 29 250 q 213 31 129 74 q 404 -12 296 -12 q 573 13 489 -12 q 704 84 657 37 l 704 288 l 541 288 q 539 279 541 285 q 533 257 538 273 q 518 231 527 242 q 493 210 510 219 q 455 200 477 200 q 405 214 426 200 q 372 250 383 227 q 355 296 360 272 q 350 348 350 321 q 381 484 350 439 q 455 528 412 528 q 514 499 490 528 q 538 426 538 471 l 703 426 l 703 727 l 584 727 l 556 675 q 381 741 474 741 q 235 710 302 741 q 123 629 168 680 q 54 511 79 578 q 29 370 29 444 z "},"d":{"ha":978,"x_min":29,"x_max":929,"o":"m 929 207 l 877 207 l 876 1112 l 479 1112 l 479 905 l 541 905 l 541 651 q 447 719 494 698 q 338 739 400 739 q 209 707 268 739 q 111 623 149 675 q 51 506 72 571 q 29 373 29 441 q 49 235 29 302 q 106 112 68 168 q 205 21 143 56 q 343 -13 267 -13 q 456 14 404 -12 q 543 87 509 41 l 543 0 l 929 0 l 929 207 m 543 281 q 539 274 542 279 q 528 259 537 270 q 510 239 519 248 q 485 223 500 231 q 452 216 469 216 q 406 228 425 216 q 376 256 387 239 q 358 295 365 272 q 350 338 352 319 q 349 378 349 357 q 378 474 349 441 q 452 508 407 508 q 499 496 476 508 q 533 473 522 485 l 543 462 l 543 281 z "},"e":{"ha":830,"x_min":27,"x_max":799,"o":"m 414 -12 q 609 10 523 -12 q 785 86 696 33 l 785 238 l 577 238 q 553 174 576 198 q 482 151 531 151 q 394 196 427 151 q 362 309 362 241 l 770 309 q 786 306 783 304 q 795 328 789 309 q 799 376 799 353 q 756 559 799 478 q 628 691 714 641 q 425 741 542 741 q 212 690 303 741 q 74 552 121 640 q 27 353 27 465 q 77 170 27 254 q 215 37 126 87 q 414 -12 304 -12 m 363 445 q 382 519 363 486 q 437 552 400 552 q 478 540 462 552 q 500 506 494 528 q 508 467 507 484 q 509 425 510 449 l 363 425 l 363 445 z "},"f":{"ha":593,"x_min":64,"x_max":585,"o":"m 119 819 q 120 727 120 729 l 64 727 l 64 516 l 121 516 l 121 207 l 64 207 l 64 0 l 525 0 l 525 207 l 450 207 l 450 516 l 567 516 l 567 727 l 446 727 q 459 829 441 800 q 520 858 477 858 q 585 849 546 858 l 585 1060 q 558 1069 576 1063 q 485 1083 540 1074 q 376 1092 431 1092 q 119 819 119 1092 z "},"g":{"ha":959,"x_min":31,"x_max":912,"o":"m 382 -264 q 853 92 853 -264 l 853 516 l 912 516 l 912 727 l 605 727 l 583 676 q 362 739 465 739 q 191 686 268 739 q 72 549 114 633 q 31 372 31 465 q 52 239 31 302 q 113 126 73 176 q 216 48 153 77 q 354 19 278 19 q 458 35 406 19 q 549 79 509 51 q 537 8 549 36 q 500 -34 526 -20 q 444 -54 475 -49 q 366 -59 413 -59 q 119 -13 245 -59 l 119 -222 q 147 -234 128 -227 q 234 -252 165 -241 q 382 -264 302 -264 m 358 361 q 366 435 358 402 q 395 492 374 468 q 451 515 417 515 q 507 489 484 515 q 539 428 530 463 q 548 355 548 393 q 543 304 548 330 q 528 256 538 279 q 499 218 517 233 q 456 203 480 203 q 397 228 420 203 q 366 287 374 253 q 358 361 358 320 z "},"h":{"ha":984,"x_min":45,"x_max":952,"o":"m 48 0 l 491 0 l 491 207 l 437 207 l 437 425 q 505 505 437 505 q 562 420 561 505 l 562 0 l 952 0 l 952 207 l 894 207 l 894 476 q 830 672 894 604 q 651 739 766 739 q 605 735 627 739 q 568 727 583 731 q 534 711 553 722 q 507 693 515 699 q 480 670 498 687 q 457 647 463 652 q 434 621 452 642 l 434 1112 l 45 1112 l 45 903 l 102 903 l 102 207 l 49 207 l 48 0 z "},"i":{"ha":552,"x_min":62,"x_max":505,"o":"m 448 727 l 62 727 l 62 516 l 122 516 l 122 207 l 66 207 l 66 0 l 505 0 l 505 207 l 448 207 l 448 727 m 258 770 q 123 815 177 770 q 70 939 70 861 q 122 1061 70 1016 q 258 1105 175 1105 q 398 1061 344 1105 q 452 939 452 1016 q 396 815 452 861 q 258 770 340 770 z "},"j":{"ha":524,"x_min":33,"x_max":446,"o":"m 33 -49 l 35 -270 q 232 -248 152 -270 q 358 -180 311 -227 q 425 -70 405 -134 q 444 87 444 -5 l 444 727 l 45 727 l 45 515 l 106 515 l 106 -6 q 82 -41 106 -31 q 33 -49 58 -52 m 252 770 q 117 815 171 770 q 64 939 64 861 q 116 1061 64 1016 q 252 1105 169 1105 q 392 1061 338 1105 q 446 939 446 1016 q 390 815 446 861 q 252 770 334 770 z "},"k":{"ha":958,"x_min":46,"x_max":939,"o":"m 438 297 l 438 0 l 47 0 l 47 207 l 103 207 l 103 902 l 46 902 l 46 1108 l 438 1108 l 438 398 l 574 516 l 510 516 l 510 727 l 906 727 l 906 516 l 804 516 l 707 437 l 707 419 l 861 207 l 939 207 l 939 0 l 631 0 l 438 297 z "},"l":{"ha":538,"x_min":44,"x_max":490,"o":"m 437 207 l 490 207 l 490 0 l 51 0 l 51 207 l 101 207 l 101 893 l 44 893 l 44 1105 l 437 1105 l 437 207 z "},"m":{"ha":1406,"x_min":64,"x_max":1367,"o":"m 563 0 l 563 433 q 487 500 563 500 q 449 487 463 500 q 427 452 435 473 q 416 409 419 432 q 414 367 414 385 l 414 205 l 468 205 l 468 0 l 64 0 l 64 203 l 114 203 l 114 516 l 64 516 l 64 727 l 414 727 l 414 612 q 466 668 437 644 q 528 708 496 692 q 595 732 561 724 q 661 741 629 741 q 766 705 718 741 q 843 604 814 670 q 1080 741 935 741 q 1170 727 1127 741 q 1246 684 1213 713 q 1298 608 1278 654 q 1317 494 1317 561 l 1317 207 l 1367 207 l 1367 0 l 1008 0 l 1008 431 q 988 484 1005 463 q 941 504 971 504 q 904 495 919 504 q 879 472 889 487 q 865 436 869 456 q 859 393 860 416 l 859 207 l 917 207 l 917 0 l 563 0 z "},"n":{"ha":1006,"x_min":62,"x_max":969,"o":"m 448 727 l 66 727 l 66 516 l 118 516 l 118 207 l 62 207 l 62 0 l 508 0 l 508 207 l 448 207 l 448 423 q 468 477 448 455 q 519 500 487 500 q 562 479 543 500 q 580 425 580 458 l 580 0 l 969 0 l 969 207 l 915 207 l 915 461 q 691 741 915 741 q 548 710 611 741 q 448 621 486 679 l 448 727 z "},"o":{"ha":875,"x_min":29,"x_max":846,"o":"m 29 371 q 138 644 29 547 q 437 740 248 740 q 736 644 627 740 q 846 371 846 547 q 794 165 846 252 q 650 33 742 77 q 437 -12 558 -12 q 225 33 317 -12 q 81 165 133 77 q 29 371 29 252 m 345 370 q 437 199 345 199 q 530 370 530 199 q 527 428 530 404 q 515 477 524 452 q 487 515 507 503 q 437 528 467 528 q 388 515 408 528 q 359 477 368 503 q 348 428 351 452 q 345 370 345 404 z "},"p":{"ha":975,"x_min":45,"x_max":945,"o":"m 502 -269 l 502 -65 l 427 -65 l 427 81 q 468 48 454 58 q 511 21 481 39 q 571 -4 541 4 q 637 -12 602 -12 q 771 21 711 -12 q 868 107 831 53 q 925 228 905 161 q 945 367 945 294 q 924 507 945 440 q 866 627 904 574 q 770 710 829 679 q 639 741 711 741 q 530 719 576 741 q 441 648 484 697 l 434 648 l 434 727 l 52 727 l 52 516 l 102 516 l 102 -64 l 45 -64 l 45 -269 l 502 -269 m 427 283 l 427 437 q 429 444 427 440 q 437 459 430 448 q 453 479 444 471 q 478 494 462 488 q 516 501 495 501 q 627 370 627 501 q 622 314 627 340 q 605 263 616 288 q 570 224 593 239 q 514 210 547 210 q 475 218 492 210 q 450 236 458 225 q 435 257 441 247 q 428 275 429 268 l 427 283 z "},"q":{"ha":975,"x_min":42,"x_max":942,"o":"m 485 -269 l 485 -65 l 560 -65 l 560 87 q 528 60 538 68 q 494 35 519 52 q 452 11 470 18 q 406 -4 433 3 q 349 -12 378 -12 q 235 11 287 -12 q 149 72 184 33 q 89 161 113 110 q 53 270 64 213 q 42 387 42 326 q 64 520 42 456 q 125 633 86 584 q 224 711 165 682 q 355 741 284 741 q 466 724 420 741 q 559 668 512 707 l 566 668 l 610 727 l 935 727 l 935 516 l 885 516 l 885 -64 l 942 -64 l 942 -270 l 485 -269 m 560 357 q 561 406 564 378 q 549 460 557 435 q 521 503 542 486 q 471 521 500 521 q 374 376 374 521 q 381 304 374 336 q 412 248 389 273 q 473 223 435 223 q 523 245 503 223 q 552 297 544 268 q 560 357 560 326 z "},"r":{"ha":678,"x_min":64,"x_max":660,"o":"m 64 727 l 432 727 l 432 616 l 435 614 q 530 703 468 671 q 660 734 593 734 l 660 452 l 588 457 q 471 414 513 457 q 428 289 428 371 l 428 207 l 521 207 l 521 0 l 64 0 l 64 207 l 117 207 l 117 516 l 64 516 l 64 727 z "},"s":{"ha":715,"x_min":43,"x_max":675,"o":"m 662 516 l 662 733 l 548 733 l 530 701 q 509 712 523 705 q 444 729 496 718 q 330 741 393 741 q 187 717 248 741 q 88 639 125 693 q 51 506 51 585 q 70 414 51 454 q 118 352 88 375 q 183 312 147 329 q 254 284 218 296 q 320 262 290 273 q 368 234 349 251 q 387 195 387 218 q 364 155 387 169 q 313 142 341 142 q 237 179 269 142 q 198 262 206 216 l 48 262 l 43 6 l 163 6 l 188 52 q 397 -12 256 -12 q 605 59 534 -12 q 675 268 675 130 q 512 488 675 421 q 471 499 503 491 q 415 515 439 507 q 371 538 391 522 q 351 574 351 553 q 369 611 351 597 q 413 624 388 624 q 460 612 436 624 q 496 581 484 600 q 507 561 499 577 q 520 530 514 545 l 526 516 l 662 516 z "},"t":{"ha":592,"x_min":28,"x_max":568,"o":"m 568 236 q 494 227 525 227 q 442 249 456 227 q 428 297 428 271 l 429 516 l 532 516 l 532 727 l 429 727 l 429 954 l 98 882 l 98 727 l 28 727 l 28 516 l 102 516 l 101 261 q 359 -12 100 -12 q 465 -1 413 -12 q 543 22 517 10 l 568 33 l 568 236 z "},"u":{"ha":994,"x_min":36,"x_max":943,"o":"m 557 106 q 457 18 519 48 q 314 -12 394 -12 q 90 261 90 -12 l 90 516 l 36 516 l 36 727 l 425 727 l 425 297 q 444 238 425 261 q 486 216 462 216 q 537 239 518 216 q 557 297 557 262 l 557 516 l 502 516 l 502 727 l 892 727 l 892 207 l 943 207 l 943 0 l 557 0 l 557 106 z "},"v":{"ha":891,"x_min":5,"x_max":888,"o":"m 517 727 l 517 516 q 576 503 557 516 q 584 461 595 490 l 495 229 l 380 516 l 442 516 l 442 727 l 5 727 l 5 516 l 56 516 l 273 0 l 593 0 l 791 463 q 823 503 802 490 q 888 516 843 516 l 888 727 l 517 727 z "},"w":{"ha":1308,"x_min":18,"x_max":1303,"o":"m 541 0 l 643 292 l 731 0 l 1053 0 l 1157 328 q 1168 367 1161 341 q 1180 406 1175 392 q 1192 440 1184 420 q 1209 472 1200 460 q 1231 494 1218 483 q 1262 511 1244 506 q 1303 516 1280 516 l 1303 727 l 925 727 l 925 516 q 939 516 933 516 q 953 515 945 515 q 967 513 962 515 q 979 509 972 511 q 989 503 986 507 q 996 493 993 498 q 998 480 998 488 q 996 463 998 472 l 938 258 q 888 409 925 292 q 821 627 851 526 l 790 727 l 610 727 l 467 266 l 391 516 l 468 516 l 468 727 l 18 727 l 18 516 l 64 516 l 239 0 l 541 0 z "},"x":{"ha":813,"x_min":27,"x_max":791,"o":"m 791 0 l 484 0 l 355 188 l 215 0 l 27 0 l 27 207 l 116 207 l 238 347 l 115 516 l 41 516 l 41 727 l 362 727 l 472 557 l 597 727 l 770 727 l 770 516 l 695 516 l 585 393 l 715 207 l 791 207 l 791 0 z "},"y":{"ha":934,"x_min":2,"x_max":931,"o":"m 244 -256 l 713 -256 l 713 -56 l 555 -56 l 812 426 q 833 464 826 453 q 854 490 840 475 q 886 511 868 505 q 931 516 905 516 l 931 727 l 538 727 l 538 516 q 599 509 585 516 q 602 449 624 496 l 536 308 l 417 516 l 463 516 l 463 727 l 2 727 l 2 516 l 62 516 l 378 21 l 244 -256 z "},"z":{"ha":823,"x_min":43,"x_max":779,"o":"m 43 0 l 779 0 l 779 306 l 655 306 q 641 264 648 281 q 624 236 634 248 q 605 219 613 225 q 578 211 596 214 q 546 207 559 208 q 505 207 533 207 l 436 207 l 436 214 l 754 539 l 754 727 l 61 727 l 61 431 l 195 431 q 197 459 195 447 q 205 480 199 471 q 217 495 212 489 q 235 506 223 502 q 255 512 247 509 q 280 515 263 514 q 307 516 297 515 q 338 516 317 516 l 378 516 l 378 509 l 43 192 l 43 0 z "},"{":{"ha":592,"x_min":3,"x_max":553,"o":"m 115 765 q 141 915 115 845 q 220 1039 168 984 q 358 1124 273 1093 q 553 1156 444 1156 l 553 931 q 443 764 443 931 q 273 572 443 635 q 443 380 443 509 q 553 213 443 213 l 553 -12 q 358 20 444 -12 q 220 105 273 51 q 141 230 168 160 q 115 379 115 299 q 111 417 115 401 q 97 451 107 433 q 62 478 86 468 q 3 490 39 488 l 3 654 q 62 666 39 656 q 97 693 86 676 q 111 727 107 711 q 115 765 115 743 z "},"|":{"ha":465,"x_min":98,"x_max":366,"o":"m 366 1101 l 366 0 l 98 0 l 98 1101 l 366 1101 z "},"}":{"ha":591,"x_min":39,"x_max":589,"o":"m 477 765 q 481 727 477 743 q 495 693 485 711 q 530 666 506 676 q 589 654 553 656 l 589 490 q 530 478 553 488 q 495 451 506 468 q 481 417 485 433 q 477 379 477 401 q 451 230 477 299 q 372 105 424 160 q 234 20 319 51 q 39 -12 149 -12 l 39 213 q 149 380 149 213 q 319 572 149 509 q 149 764 149 635 q 39 931 149 931 l 39 1156 q 234 1124 149 1156 q 372 1039 319 1093 q 451 915 424 984 q 477 765 477 845 z "},"~":{"ha":874,"x_min":31,"x_max":859,"o":"m 620 427 q 542 441 583 427 q 467 475 502 455 q 398 515 431 495 q 329 550 364 536 q 263 564 293 564 q 219 541 245 564 q 119 430 193 518 l 31 488 q 67 556 47 513 q 105 630 88 599 q 145 694 122 662 q 200 744 168 726 q 271 761 231 761 q 348 747 308 761 q 424 713 389 733 q 493 673 459 693 q 564 640 528 654 q 629 626 600 626 q 674 650 646 626 q 771 758 701 673 l 859 700 q 822 633 842 675 q 784 558 801 591 q 745 494 768 526 q 690 444 722 462 q 620 427 659 427 z "}," ":{"ha":326,"x_min":0,"x_max":0,"o":""},"¡":{"ha":545,"x_min":73,"x_max":471,"o":"m 414 727 l 129 728 l 73 203 l 73 0 l 471 0 l 471 203 l 414 727 m 271 785 q 137 831 191 785 q 83 955 83 877 q 136 1076 83 1031 q 271 1121 189 1121 q 412 1076 357 1121 q 466 955 466 1031 q 410 831 466 877 q 271 785 354 785 z "},"¢":{"ha":779,"x_min":38,"x_max":713,"o":"m 497 924 l 497 717 q 565 675 531 701 l 593 727 l 711 727 l 711 426 l 547 426 q 533 484 547 459 q 497 519 519 509 l 497 207 q 520 223 510 212 q 536 244 530 234 q 545 266 541 254 q 549 281 548 277 q 550 288 550 286 l 713 288 l 713 84 q 497 -6 643 14 l 497 -177 l 421 -177 l 421 -12 l 412 -12 q 221 31 305 -12 q 88 162 138 74 q 38 370 38 250 q 63 511 38 444 q 132 629 87 578 q 243 710 176 680 q 390 741 311 741 q 421 739 406 741 l 421 924 l 497 924 m 359 348 q 374 264 359 302 q 421 210 389 225 l 421 515 q 359 348 359 475 z "},"£":{"ha":871,"x_min":44,"x_max":825,"o":"m 505 248 l 526 241 q 598 230 548 236 q 706 224 648 224 q 825 231 758 224 l 825 20 q 640 -12 732 -12 q 468 104 468 -12 q 236 -13 397 -13 q 44 20 160 -13 l 44 231 q 109 222 83 222 q 168 250 151 222 q 184 353 184 278 l 184 515 l 100 515 l 100 673 l 184 673 l 184 819 q 208 924 184 877 q 271 1002 232 971 q 363 1053 310 1032 q 472 1082 416 1074 q 587 1091 528 1091 q 802 1060 712 1091 l 802 849 q 661 858 719 858 q 545 835 585 858 q 505 758 505 812 l 505 673 l 677 673 l 677 515 l 505 515 l 505 352 l 505 248 z "},"¤":{"ha":876,"x_min":47,"x_max":826,"o":"m 47 744 q 125 983 47 886 l 80 1029 l 150 1099 l 198 1050 q 437 1122 302 1122 q 680 1047 576 1122 l 732 1099 l 802 1029 l 751 979 q 826 744 826 883 q 747 503 826 600 l 802 448 l 732 378 l 673 436 q 437 366 571 366 q 205 433 305 366 l 150 378 l 80 448 l 130 498 q 47 744 47 596 m 672 861 q 613 946 650 913 q 531 995 576 978 q 437 1013 486 1013 q 342 995 388 1013 q 260 946 297 978 q 201 861 223 913 q 179 744 179 808 q 201 627 179 680 q 260 542 223 574 q 342 493 297 510 q 437 475 388 475 q 531 493 486 475 q 613 542 576 510 q 672 627 650 574 q 694 744 694 680 q 672 861 694 808 z "},"¥":{"ha":1158,"x_min":41,"x_max":1112,"o":"m 116 635 l 116 517 l 359 517 l 402 456 l 402 427 l 116 427 l 116 309 l 402 309 l 402 252 l 297 252 l 297 0 l 886 0 l 886 252 l 780 252 l 780 309 l 1061 309 l 1061 427 l 780 427 l 780 517 l 1061 517 l 1061 635 l 850 635 l 918 743 q 943 787 935 774 q 964 818 950 800 q 990 844 978 837 q 1020 857 1002 851 q 1061 863 1038 863 l 1112 863 l 1112 1100 l 680 1100 l 680 863 q 741 859 730 863 q 759 828 759 852 q 682 673 759 791 q 620 769 667 694 q 557 864 572 844 l 618 864 l 618 1100 l 41 1100 l 41 864 l 117 864 l 277 635 l 116 635 z "},"¦":{"ha":466,"x_min":99,"x_max":367,"o":"m 367 489 l 367 0 l 99 0 l 99 489 l 367 489 m 367 1101 l 367 612 l 99 612 l 99 1101 l 367 1101 z "},"§":{"ha":732,"x_min":52,"x_max":687,"o":"m 52 568 q 90 673 52 625 q 190 744 127 722 q 78 920 78 825 q 147 1055 78 1000 q 316 1111 216 1111 q 383 1106 351 1111 q 434 1095 415 1101 q 468 1082 452 1089 q 489 1071 484 1074 q 495 1066 493 1068 l 513 1101 l 627 1101 l 627 882 l 491 882 l 462 946 q 431 981 450 968 q 392 994 412 994 q 353 978 370 994 q 336 934 336 962 q 355 895 336 915 q 406 857 374 876 q 474 819 437 839 q 549 774 511 798 q 617 722 586 749 q 668 657 648 694 q 687 580 687 621 q 649 453 687 509 q 543 376 611 397 q 652 201 652 310 q 583 53 652 119 q 411 -12 513 -12 q 299 -1 347 -12 q 216 46 251 10 l 191 1 l 76 1 l 76 257 l 226 257 q 267 176 234 211 q 348 142 300 142 q 389 155 371 142 q 408 195 408 169 q 388 243 408 219 q 337 288 368 267 q 267 331 305 309 q 192 377 229 353 q 122 429 154 402 q 71 492 91 456 q 52 568 52 528 m 337 670 q 268 595 268 636 q 314 530 268 563 q 433 467 361 496 q 491 557 491 505 q 446 621 491 590 q 337 670 401 651 z "},"¨":{"ha":1158,"x_min":182,"x_max":907,"o":"m 488 910 q 443 795 488 837 q 336 754 398 754 q 228 796 273 754 q 182 912 182 838 q 227 1025 182 985 q 335 1066 273 1066 q 443 1025 397 1066 q 488 910 488 984 m 907 910 q 862 795 907 837 q 755 754 817 754 q 646 796 692 754 q 600 912 600 838 q 646 1025 600 985 q 753 1066 691 1066 q 861 1025 816 1066 q 907 910 907 984 z "},"©":{"ha":1225,"x_min":43,"x_max":1182,"o":"m 87 750 q 209 925 133 852 q 391 1043 286 999 q 612 1086 496 1086 q 834 1043 728 1086 q 1016 925 939 999 q 1137 750 1092 852 q 1182 537 1182 648 q 1137 324 1182 426 q 1016 149 1092 222 q 834 32 939 75 q 612 -12 728 -12 q 391 32 496 -12 q 209 149 286 75 q 88 324 133 222 q 43 537 43 426 q 87 750 43 648 m 612 982 q 437 947 521 982 q 293 852 354 911 q 197 710 233 792 q 161 537 161 627 q 197 365 161 447 q 293 222 233 282 q 437 127 354 163 q 612 92 521 92 q 839 152 734 92 q 1003 314 943 212 q 1064 537 1064 416 q 1003 760 1064 658 q 839 922 943 863 q 612 982 734 982 m 865 270 l 852 260 q 815 235 840 250 q 759 206 790 220 q 683 181 728 191 q 593 171 638 171 q 348 267 433 171 q 263 529 263 363 q 273 635 263 583 q 307 734 283 686 q 363 817 330 781 q 447 873 397 852 q 557 894 497 894 q 712 850 667 894 l 727 881 l 861 881 l 861 609 l 732 609 q 724 668 733 640 q 692 717 715 696 q 632 738 668 738 q 591 730 608 738 q 562 706 573 722 q 545 673 551 690 q 535 632 538 656 q 531 591 532 608 q 530 551 530 574 q 530 527 530 546 q 530 499 530 507 q 531 471 530 490 q 534 440 532 451 q 539 413 536 430 q 549 386 543 396 q 562 365 554 376 q 581 346 570 353 q 606 335 591 340 q 637 331 620 331 q 699 351 673 331 q 732 406 725 371 q 735 446 734 414 l 865 446 l 865 270 z "},"ª":{"ha":677,"x_min":25,"x_max":634,"o":"m 25 709 q 44 780 25 748 q 94 831 62 811 q 163 861 125 850 q 243 871 201 871 q 371 852 316 871 l 371 874 q 265 957 371 957 q 158 909 194 957 l 70 909 l 70 1067 l 104 1076 q 198 1093 137 1084 q 312 1102 258 1102 q 349 1101 332 1102 q 397 1097 366 1101 q 452 1087 428 1094 q 505 1068 477 1081 q 552 1038 533 1056 q 583 993 570 1021 q 596 930 596 965 l 596 708 l 634 708 l 634 555 l 398 555 l 373 615 q 304 565 348 583 q 220 547 261 547 q 82 591 139 547 q 25 709 25 635 m 271 719 q 283 682 271 696 q 318 667 296 667 q 348 674 334 667 q 366 684 362 680 q 372 690 370 688 l 372 764 l 366 767 q 346 772 358 770 q 323 774 334 774 q 286 757 301 774 q 271 719 271 740 z "},"«":{"ha":886,"x_min":22,"x_max":854,"o":"m 436 454 l 725 728 l 854 576 l 641 362 l 854 149 l 725 -3 l 436 271 l 436 454 m 22 454 l 311 728 l 441 576 l 227 362 l 441 149 l 311 -3 l 22 271 l 22 454 z "},"¬":{"ha":810,"x_min":53,"x_max":739,"o":"m 53 741 l 739 741 l 739 368 l 582 368 l 582 516 l 54 516 l 53 741 z "},"­":{"ha":525,"x_min":47,"x_max":486,"o":"m 486 567 l 486 364 l 47 364 l 47 567 l 486 567 z "},"®":{"ha":1225,"x_min":43,"x_max":1182,"o":"m 87 750 q 209 925 133 852 q 391 1043 286 999 q 612 1086 496 1086 q 834 1043 728 1086 q 1016 925 939 999 q 1137 750 1092 852 q 1182 537 1182 648 q 1137 324 1182 426 q 1016 149 1092 222 q 834 32 939 75 q 612 -12 728 -12 q 391 32 496 -12 q 209 149 286 75 q 88 324 133 222 q 43 537 43 426 q 87 750 43 648 m 612 982 q 437 947 521 982 q 293 852 354 911 q 197 710 233 792 q 161 537 161 627 q 197 365 161 447 q 293 222 233 282 q 437 127 354 163 q 612 92 521 92 q 839 152 734 92 q 1003 314 943 212 q 1064 537 1064 416 q 1003 760 1064 658 q 839 922 943 863 q 612 982 734 982 m 626 246 q 321 245 526 246 l 321 383 l 378 383 l 378 720 l 320 720 l 320 858 l 703 858 q 851 818 799 858 q 903 688 903 778 q 867 597 903 633 q 767 551 832 562 q 847 515 823 538 q 871 457 871 492 l 871 422 q 883 390 871 399 q 933 381 894 381 l 933 246 l 834 246 q 792 247 807 246 q 754 253 777 248 q 719 267 731 258 q 697 296 707 277 q 688 342 688 315 l 688 416 q 674 485 688 462 q 617 508 660 508 l 581 508 l 581 385 l 626 385 l 626 246 m 601 593 q 695 659 695 593 q 676 708 695 689 q 624 726 657 726 l 578 726 l 578 593 l 601 593 z "},"¯":{"ha":525,"x_min":47,"x_max":486,"o":"m 486 972 l 486 789 l 47 789 l 47 972 l 486 972 z "},"°":{"ha":530,"x_min":22,"x_max":509,"o":"m 261 741 q 365 782 327 741 q 402 879 402 823 q 365 974 402 934 q 261 1014 328 1014 q 161 974 197 1014 q 125 879 125 934 q 161 782 125 823 q 261 741 198 741 m 261 645 q 158 665 204 645 q 82 719 111 685 q 37 793 53 752 q 22 880 22 835 q 37 963 22 923 q 81 1036 52 1004 q 157 1088 110 1069 q 261 1107 203 1107 q 370 1088 321 1107 q 448 1036 418 1069 q 493 964 477 1004 q 509 880 509 924 q 493 793 509 835 q 447 719 477 752 q 368 665 416 685 q 261 645 320 645 z "},"±":{"ha":576,"x_min":47,"x_max":530,"o":"m 506 151 l 506 -1 l 67 -1 l 67 151 l 506 151 m 47 517 l 204 517 l 204 699 l 377 699 l 377 517 l 530 517 l 530 351 l 377 351 l 377 189 l 204 189 l 204 351 l 47 351 l 47 517 z "},"²":{"ha":586,"x_min":56,"x_max":540,"o":"m 73 194 l 73 317 q 205 393 152 349 q 252 436 236 419 q 282 482 268 452 q 296 545 296 511 q 278 595 294 576 q 241 615 262 615 q 200 598 214 615 q 185 557 185 582 q 211 505 185 528 l 118 433 q 58 582 56 489 q 94 681 58 638 q 183 743 130 724 q 292 760 236 762 q 445 708 385 757 q 505 573 505 659 q 462 455 505 510 q 315 326 427 410 l 381 326 q 446 340 422 328 q 469 387 469 352 l 540 387 l 540 194 l 73 194 z "},"³":{"ha":559,"x_min":54,"x_max":505,"o":"m 59 359 q 206 300 131 300 q 268 314 241 300 q 295 359 295 328 q 265 410 295 394 q 196 425 235 425 q 164 421 180 425 q 145 418 148 418 l 138 419 q 137 421 137 421 l 137 484 l 273 600 l 273 604 l 186 604 q 161 601 171 604 q 146 588 152 597 q 138 571 140 578 q 131 547 136 565 l 54 547 l 54 727 l 479 727 l 479 623 q 366 528 479 621 q 464 478 423 523 q 505 378 505 434 q 436 234 505 285 q 248 183 367 183 q 140 190 184 183 q 59 221 95 197 l 59 359 l 59 359 z "},"´":{"ha":689,"x_min":131,"x_max":577,"o":"m 577 979 l 201 766 l 131 862 l 452 1158 l 577 979 z "},"µ":{"ha":996,"x_min":40,"x_max":947,"o":"m 561 106 q 461 18 524 48 q 318 -12 398 -12 q 94 261 94 -12 l 94 516 l 40 516 l 40 727 l 429 727 l 429 297 q 448 238 429 261 q 490 216 466 216 q 542 239 522 216 q 561 297 561 262 l 561 516 l 506 516 l 506 727 l 896 727 l 896 207 l 947 207 l 947 0 l 561 0 l 561 106 z "},"¶":{"ha":1055,"x_min":37,"x_max":970,"o":"m 425 501 q 266 516 334 501 q 144 564 197 531 q 64 654 91 597 q 38 791 37 711 q 49 884 39 842 q 78 956 60 926 q 123 1010 97 986 q 180 1049 149 1034 q 248 1075 212 1063 q 324 1090 284 1086 q 407 1098 364 1095 q 494 1101 450 1101 q 583 1101 538 1100 q 627 1101 612 1101 l 967 1101 l 967 860 l 865 860 l 865 246 l 970 246 l 970 0 l 693 0 l 693 861 l 608 861 l 608 0 l 326 0 l 326 246 l 425 246 l 425 501 z "},"·":{"ha":463,"x_min":41,"x_max":423,"o":"m 229 349 q 94 394 148 349 q 41 518 41 440 q 93 640 41 595 q 229 684 146 684 q 369 640 315 684 q 423 518 423 595 q 367 394 423 440 q 229 349 311 349 z "},"¸":{"ha":340,"x_min":47,"x_max":312,"o":"m 100 0 l 222 0 l 222 -81 q 312 -193 312 -133 q 238 -289 312 -249 q 62 -329 165 -329 l 47 -329 l 47 -252 q 144 -233 113 -252 q 174 -184 174 -214 q 153 -127 174 -157 q 100 -81 131 -98 l 100 0 z "},"¹":{"ha":417,"x_min":50,"x_max":353,"o":"m 79 194 l 79 323 l 115 323 l 115 572 l 50 571 l 50 673 l 312 740 l 315 323 l 353 323 l 353 194 l 79 194 z "},"º":{"ha":700,"x_min":47,"x_max":652,"o":"m 47 467 q 129 669 47 597 q 350 740 210 740 q 572 669 491 740 q 652 467 652 597 q 569 259 652 334 q 350 183 486 183 q 131 259 214 183 q 47 467 47 334 m 281 465 q 350 340 281 340 q 419 465 419 340 q 417 509 419 491 q 408 546 414 527 q 387 574 401 564 q 350 583 372 583 q 313 574 328 583 q 292 546 299 564 q 283 509 286 527 q 281 465 281 491 z "},"»":{"ha":886,"x_min":31,"x_max":863,"o":"m 450 271 l 161 -3 l 31 149 l 245 362 l 31 576 l 161 728 l 450 454 l 450 271 m 863 271 l 574 -3 l 445 149 l 659 362 l 445 576 l 574 728 l 863 454 l 863 271 z "},"¼":{"ha":1167,"x_min":45,"x_max":1133,"o":"m 75 555 l 75 684 l 111 684 l 111 932 l 45 932 l 45 1034 l 308 1101 l 311 684 l 349 684 l 349 555 l 75 555 m 236 0 l 569 1101 l 816 1101 l 475 0 l 236 0 m 1042 115 l 1090 115 l 1090 1 l 810 1 l 810 115 l 860 115 l 860 168 l 648 168 l 648 275 l 867 535 l 1042 534 l 1042 269 l 1133 270 l 1133 168 l 1042 168 l 1042 115 m 860 270 l 860 363 l 785 271 l 860 270 z "},"½":{"ha":1210,"x_min":43,"x_max":1173,"o":"m 73 555 l 72 684 l 108 684 l 108 932 l 43 932 l 43 1034 l 305 1101 l 308 684 l 346 684 l 346 555 l 73 555 m 239 0 l 572 1101 l 819 1101 l 478 0 l 239 0 m 707 -1 l 707 123 q 838 198 785 154 q 885 241 869 224 q 916 287 901 258 q 930 350 930 317 q 911 401 928 381 q 874 420 895 420 q 833 404 848 420 q 819 362 819 387 q 844 310 819 334 l 751 239 q 691 387 689 294 q 727 486 691 444 q 817 548 764 529 q 926 566 869 568 q 1078 513 1018 562 q 1139 378 1139 464 q 1095 260 1139 315 q 949 132 1061 216 l 1015 132 q 1079 145 1056 133 q 1103 192 1103 157 l 1173 192 l 1173 -1 l 707 -1 z "},"¾":{"ha":1239,"x_min":52,"x_max":1204,"o":"m 56 733 q 203 675 128 675 q 265 689 238 675 q 292 733 292 703 q 262 784 292 768 q 193 800 233 800 q 161 796 178 800 q 142 792 145 792 q 135 793 137 792 q 134 795 134 795 l 134 859 l 270 974 l 270 978 l 183 978 q 159 975 168 978 q 143 962 149 972 q 135 946 138 952 q 128 921 133 939 l 52 922 l 52 1101 l 476 1101 l 476 997 q 363 903 476 996 q 461 853 420 897 q 503 753 503 808 q 433 608 503 659 q 245 557 364 557 q 137 565 182 557 q 56 595 92 572 l 56 733 m 340 0 l 673 1101 l 920 1101 l 580 0 l 340 0 m 1114 114 l 1162 114 l 1162 -1 l 882 -1 l 882 114 l 932 114 l 932 166 l 720 166 l 720 273 l 939 534 l 1114 533 l 1114 268 l 1204 269 l 1204 166 l 1114 166 l 1114 114 m 932 269 l 932 362 l 857 269 l 932 269 z "},"¿":{"ha":890,"x_min":36,"x_max":857,"o":"m 652 800 l 417 800 l 417 673 q 344 647 376 659 q 271 614 313 634 q 198 574 229 594 q 135 524 168 553 q 83 464 103 495 q 49 391 62 432 q 36 303 36 349 q 89 141 36 214 q 235 28 142 69 q 443 -12 328 -12 q 732 87 617 -12 q 857 339 847 186 l 536 339 q 448 229 530 229 q 414 240 428 229 q 394 267 399 250 q 386 295 388 283 q 383 319 383 308 q 652 562 383 440 l 652 800 m 530 1184 q 665 1138 611 1184 q 718 1015 718 1093 q 666 893 718 938 q 530 848 613 848 q 390 893 444 848 q 336 1015 336 938 q 392 1138 336 1093 q 530 1184 448 1184 z "},"À":{"ha":1114,"x_min":3,"x_max":1108,"o":"m 804 1101 l 130 1101 l 130 861 l 273 861 l 157 401 q 131 313 138 330 q 56 249 109 262 q 3 243 33 243 l 3 0 l 463 0 l 463 243 l 406 243 q 384 268 391 243 q 376 311 376 292 q 378 333 377 326 q 383 348 378 340 q 397 355 388 355 l 583 355 q 629 243 629 355 l 547 243 l 548 0 l 1108 0 l 1108 243 l 1050 243 q 1032 252 1040 243 q 1021 271 1025 260 q 1012 303 1017 282 l 804 1101 m 415 524 l 491 869 l 570 524 l 415 524 m 439 1539 l 761 1243 l 690 1147 l 315 1360 l 439 1539 z "},"Á":{"ha":1114,"x_min":3,"x_max":1108,"o":"m 1012 303 q 1021 271 1017 282 q 1032 252 1025 260 q 1050 243 1040 243 l 1108 243 l 1108 0 l 548 0 l 547 243 l 629 243 q 583 355 629 355 l 397 355 q 383 348 388 355 q 378 333 378 340 q 376 311 377 326 q 384 268 376 292 q 406 243 391 243 l 463 243 l 463 0 l 3 0 l 3 243 q 56 249 33 243 q 131 313 109 262 q 157 401 138 330 l 273 861 l 130 861 l 130 1101 l 804 1101 l 1012 303 m 570 524 l 491 869 l 415 524 l 570 524 m 761 1360 l 385 1147 l 315 1243 l 636 1539 l 761 1360 z "},"Â":{"ha":1114,"x_min":3,"x_max":1108,"o":"m 1012 303 q 1021 271 1017 282 q 1032 252 1025 260 q 1050 243 1040 243 l 1108 243 l 1108 0 l 548 0 l 547 243 l 629 243 q 583 355 629 355 l 397 355 q 383 348 388 355 q 378 333 378 340 q 376 311 377 326 q 384 268 376 292 q 406 243 391 243 l 463 243 l 463 0 l 3 0 l 3 243 q 56 249 33 243 q 131 313 109 262 q 157 401 138 330 l 273 861 l 130 861 l 130 1101 l 804 1101 l 1012 303 m 570 524 l 491 869 l 415 524 l 570 524 m 562 1466 l 747 1211 l 643 1143 l 470 1309 l 297 1143 l 193 1211 l 378 1467 l 562 1466 z "},"Ã":{"ha":1114,"x_min":3,"x_max":1108,"o":"m 804 1101 l 130 1101 l 130 861 l 273 861 l 157 401 q 131 313 138 330 q 56 249 109 262 q 3 243 33 243 l 3 0 l 463 0 l 463 243 l 406 243 q 384 268 391 243 q 376 311 376 292 q 378 333 377 326 q 383 348 378 340 q 397 355 388 355 l 583 355 q 629 243 629 355 l 547 243 l 548 0 l 1108 0 l 1108 243 l 1050 243 q 1032 252 1040 243 q 1021 271 1025 260 q 1012 303 1017 282 l 804 1101 m 415 524 l 491 869 l 570 524 l 415 524 m 656 1414 q 710 1401 686 1414 q 752 1365 734 1388 q 783 1318 770 1341 q 812 1265 796 1295 q 840 1217 828 1234 l 764 1166 q 695 1227 714 1214 q 664 1240 677 1240 q 591 1219 633 1240 q 504 1178 549 1199 q 422 1158 459 1158 q 367 1170 391 1158 q 325 1206 342 1183 q 294 1252 307 1230 q 264 1306 281 1275 q 236 1354 248 1337 l 313 1405 q 384 1342 365 1356 q 415 1329 403 1329 q 471 1342 439 1329 q 530 1372 503 1356 q 591 1401 556 1388 q 656 1414 625 1414 z "},"Ä":{"ha":1114,"x_min":3,"x_max":1108,"o":"m 804 1101 l 130 1101 l 130 861 l 273 861 l 157 401 q 131 313 138 330 q 56 249 109 262 q 3 243 33 243 l 3 0 l 463 0 l 463 243 l 406 243 q 384 268 391 243 q 376 311 376 292 q 378 333 377 326 q 383 348 378 340 q 397 355 388 355 l 583 355 q 629 243 629 355 l 547 243 l 548 0 l 1108 0 l 1108 243 l 1050 243 q 1032 252 1040 243 q 1021 271 1025 260 q 1012 303 1017 282 l 804 1101 m 415 524 l 491 869 l 570 524 l 415 524 m 482 1291 q 437 1177 482 1218 q 330 1135 392 1135 q 221 1177 267 1135 q 176 1293 176 1219 q 221 1407 176 1366 q 329 1447 267 1447 q 437 1406 391 1447 q 482 1291 482 1365 m 901 1291 q 856 1177 901 1218 q 749 1135 810 1135 q 640 1177 686 1135 q 594 1293 594 1219 q 640 1407 594 1366 q 747 1447 685 1447 q 855 1406 810 1447 q 901 1291 901 1365 z "},"Å":{"ha":1114,"x_min":3,"x_max":1108,"o":"m 1012 303 q 1021 271 1017 282 q 1032 252 1025 260 q 1050 243 1040 243 l 1108 243 l 1108 0 l 548 0 l 547 243 l 629 243 q 583 355 629 355 l 397 355 q 383 348 388 355 q 378 333 378 340 q 376 311 377 326 q 384 268 376 292 q 406 243 391 243 l 463 243 l 463 0 l 3 0 l 3 243 q 56 249 33 243 q 131 313 109 262 q 157 401 138 330 l 273 861 l 130 861 l 130 1101 l 804 1101 l 1012 303 m 570 524 l 491 869 l 415 524 l 570 524 m 535 1222 q 617 1252 587 1222 q 647 1322 647 1282 q 617 1392 647 1362 q 535 1421 588 1421 q 455 1392 484 1421 q 426 1322 426 1362 q 455 1252 426 1282 q 535 1222 484 1222 m 535 1153 q 400 1204 449 1153 q 351 1323 351 1255 q 399 1439 351 1390 q 535 1489 448 1489 q 675 1440 625 1489 q 725 1323 725 1391 q 674 1204 725 1255 q 535 1153 624 1153 z "},"Æ":{"ha":1450,"x_min":-7,"x_max":1374,"o":"m 1185 657 l 1133 862 l 989 862 l 989 670 l 1128 670 l 1128 431 l 989 431 l 989 237 l 1137 237 l 1146 285 l 1189 466 l 1374 466 l 1374 0 l 541 0 l 540 255 l 621 255 q 597 366 643 366 l 410 366 q 395 359 401 366 q 387 345 389 352 q 382 323 385 337 q 381 283 378 311 q 398 255 384 255 l 455 255 l 455 0 l -7 -1 l -7 240 q 31 243 14 240 q 62 252 47 245 q 87 265 76 259 q 109 283 98 271 q 125 304 119 296 q 141 329 132 311 q 154 354 150 347 q 166 384 157 362 q 179 412 176 405 l 397 864 l 254 864 l 302 1101 l 1367 1101 l 1367 658 l 1185 657 m 616 523 l 616 876 l 454 523 l 616 523 z "},"Ç":{"ha":1046,"x_min":40,"x_max":989,"o":"m 989 137 l 969 121 q 910 81 949 104 q 821 36 871 58 q 702 -3 772 13 q 561 -20 631 -20 q 274 52 393 -20 q 98 249 156 123 q 40 545 40 374 q 56 712 40 631 q 109 868 73 793 q 198 998 145 943 q 330 1087 251 1054 q 504 1120 408 1120 q 590 1117 554 1120 q 672 1098 626 1114 q 748 1053 718 1082 l 771 1101 l 982 1101 l 983 672 l 781 672 q 773 742 781 708 q 747 807 765 777 q 697 856 730 838 q 622 875 665 875 q 565 864 590 875 q 523 838 539 854 q 494 795 506 821 q 475 746 481 770 q 466 690 469 723 q 462 634 463 656 q 461 580 461 612 q 461 550 461 570 q 461 484 459 519 q 466 413 463 448 q 480 345 469 378 q 510 288 492 313 q 558 248 527 262 q 631 233 589 233 q 727 265 686 233 q 779 351 769 297 q 785 415 782 365 l 989 415 l 989 137 m 481 0 l 603 0 l 603 -81 q 693 -193 693 -133 q 620 -289 693 -249 q 443 -329 546 -329 l 429 -329 l 429 -252 q 525 -233 494 -252 q 555 -184 555 -214 q 534 -127 555 -157 q 481 -81 512 -98 l 481 0 z "},"È":{"ha":1010,"x_min":67,"x_max":935,"o":"m 927 657 l 927 1101 l 67 1101 l 67 861 l 174 861 l 174 243 l 67 243 l 67 0 l 935 0 l 935 466 l 749 466 l 707 285 l 698 243 l 549 243 l 549 431 l 688 431 l 688 670 l 549 670 l 549 861 l 694 861 l 745 656 l 927 657 m 401 1539 l 722 1243 l 652 1147 l 276 1360 l 401 1539 z "},"É":{"ha":1010,"x_min":67,"x_max":935,"o":"m 745 656 l 694 861 l 549 861 l 549 670 l 688 670 l 688 431 l 549 431 l 549 243 l 698 243 l 707 285 l 749 466 l 935 466 l 935 0 l 67 0 l 67 243 l 174 243 l 174 861 l 67 861 l 67 1101 l 927 1101 l 927 657 l 745 656 m 722 1360 l 347 1147 l 276 1243 l 597 1539 l 722 1360 z "},"Ê":{"ha":1010,"x_min":67,"x_max":935,"o":"m 745 656 l 694 861 l 549 861 l 549 670 l 688 670 l 688 431 l 549 431 l 549 243 l 698 243 l 707 285 l 749 466 l 935 466 l 935 0 l 67 0 l 67 243 l 174 243 l 174 861 l 67 861 l 67 1101 l 927 1101 l 927 657 l 745 656 m 591 1466 l 777 1211 l 672 1143 l 499 1309 l 326 1143 l 222 1211 l 407 1467 l 591 1466 z "},"Ë":{"ha":1010,"x_min":67,"x_max":935,"o":"m 927 657 l 927 1101 l 67 1101 l 67 861 l 174 861 l 174 243 l 67 243 l 67 0 l 935 0 l 935 466 l 749 466 l 707 285 l 698 243 l 549 243 l 549 431 l 688 431 l 688 670 l 549 670 l 549 861 l 694 861 l 745 656 l 927 657 m 444 1291 q 398 1177 444 1218 q 292 1135 353 1135 q 183 1177 229 1135 q 137 1293 137 1219 q 182 1407 137 1366 q 290 1447 228 1447 q 398 1406 353 1447 q 444 1291 444 1365 m 862 1291 q 817 1177 862 1218 q 710 1135 772 1135 q 601 1177 647 1135 q 555 1293 555 1219 q 601 1407 555 1366 q 709 1447 646 1447 q 817 1406 771 1447 q 862 1291 862 1365 z "},"Ì":{"ha":730,"x_min":71,"x_max":659,"o":"m 659 1101 l 73 1101 l 73 861 l 170 861 l 170 243 l 71 243 l 71 0 l 655 0 l 655 243 l 559 243 l 559 861 l 659 861 l 659 1101 m 268 1539 l 589 1243 l 519 1147 l 143 1360 l 268 1539 z "},"Í":{"ha":730,"x_min":71,"x_max":659,"o":"m 659 861 l 559 861 l 559 243 l 655 243 l 655 0 l 71 0 l 71 243 l 170 243 l 170 861 l 73 861 l 73 1101 l 659 1101 l 659 861 m 589 1360 l 214 1147 l 143 1243 l 465 1539 l 589 1360 z "},"Î":{"ha":730,"x_min":71,"x_max":659,"o":"m 659 861 l 559 861 l 559 243 l 655 243 l 655 0 l 71 0 l 71 243 l 170 243 l 170 861 l 73 861 l 73 1101 l 659 1101 l 659 861 m 458 1466 l 644 1211 l 539 1143 l 366 1309 l 193 1143 l 89 1211 l 274 1467 l 458 1466 z "},"Ï":{"ha":730,"x_min":4,"x_max":729,"o":"m 659 1101 l 73 1101 l 73 861 l 170 861 l 170 243 l 71 243 l 71 0 l 655 0 l 655 243 l 559 243 l 559 861 l 659 861 l 659 1101 m 311 1291 q 266 1177 311 1218 q 159 1135 220 1135 q 50 1177 96 1135 q 4 1293 4 1219 q 50 1407 4 1366 q 157 1447 95 1447 q 265 1406 220 1447 q 311 1291 311 1365 m 729 1291 q 684 1177 729 1218 q 577 1135 639 1135 q 468 1177 514 1135 q 422 1293 422 1219 q 468 1407 422 1366 q 576 1447 513 1447 q 684 1406 638 1447 q 729 1291 729 1365 z "},"Ð":{"ha":1222,"x_min":63,"x_max":1183,"o":"m 178 646 l 178 862 l 63 862 l 63 1101 l 626 1101 q 1044 961 905 1101 q 1183 553 1183 822 q 1146 344 1183 443 q 1039 168 1109 245 q 859 45 969 91 q 611 0 748 0 l 67 0 l 67 238 l 178 238 l 178 443 l 90 443 l 90 646 l 178 646 m 572 238 q 660 258 622 238 q 720 309 697 278 q 756 383 742 340 q 775 468 770 427 q 781 554 781 509 q 777 640 781 601 q 760 722 772 679 q 726 794 747 764 q 668 843 705 823 q 581 862 631 862 l 549 862 q 549 795 549 839 q 549 714 549 751 q 549 646 549 678 l 607 646 l 607 443 l 549 443 l 551 238 l 572 238 z "},"Ñ":{"ha":1270,"x_min":66,"x_max":1230,"o":"m 1230 1100 l 798 1101 l 798 861 q 844 859 825 862 q 875 846 864 855 q 893 828 886 837 q 902 805 900 820 q 905 781 905 789 q 905 757 905 773 l 905 439 l 569 1101 l 71 1101 l 71 863 l 177 863 l 177 373 q 176 332 177 347 q 169 298 174 317 q 152 269 163 279 q 119 251 140 258 q 66 243 98 243 l 66 0 l 498 0 l 498 243 q 416 266 441 243 q 391 344 391 288 l 391 616 l 712 0 l 1123 0 l 1123 758 q 1148 835 1123 808 q 1230 861 1173 861 l 1230 1100 m 734 1414 q 788 1401 764 1414 q 830 1365 812 1388 q 861 1318 848 1341 q 890 1265 874 1295 q 918 1217 906 1234 l 842 1166 q 773 1227 792 1214 q 742 1240 755 1240 q 669 1219 711 1240 q 582 1178 627 1199 q 500 1158 537 1158 q 445 1170 469 1158 q 402 1206 420 1183 q 372 1252 385 1230 q 342 1306 359 1275 q 314 1354 326 1337 l 391 1405 q 462 1342 443 1356 q 493 1329 481 1329 q 549 1342 517 1329 q 608 1372 581 1356 q 669 1401 634 1388 q 734 1414 703 1414 z "},"Ò":{"ha":1183,"x_min":35,"x_max":1147,"o":"m 1147 548 q 1075 258 1147 389 q 874 54 1002 128 q 591 -20 747 -20 q 309 54 436 -20 q 108 258 181 128 q 35 548 35 389 q 108 854 35 723 q 306 1053 181 985 q 591 1121 431 1121 q 877 1053 751 1121 q 1075 854 1002 985 q 1147 548 1147 723 m 591 216 q 639 225 618 216 q 674 250 660 234 q 700 286 689 265 q 717 332 711 307 q 727 383 723 357 q 732 436 731 410 q 734 489 733 463 q 734 538 734 515 q 734 558 734 551 q 734 582 734 566 q 734 633 733 606 q 731 689 734 661 q 724 745 728 718 q 709 797 720 772 q 683 840 698 821 q 645 868 669 858 q 591 879 621 879 q 544 871 565 879 q 508 848 522 863 q 483 814 494 833 q 466 772 471 795 q 455 725 460 749 q 450 675 451 700 q 449 627 450 650 q 449 582 448 603 q 449 558 449 566 q 449 538 449 551 q 449 495 450 517 q 450 449 448 473 q 454 401 452 425 q 461 354 456 377 q 473 311 466 331 q 490 273 479 290 q 515 243 501 256 q 549 223 529 231 q 591 216 568 216 m 492 1539 l 813 1243 l 743 1147 l 367 1360 l 492 1539 z "},"Ó":{"ha":1183,"x_min":35,"x_max":1147,"o":"m 1147 548 q 1075 258 1147 389 q 874 54 1002 128 q 591 -20 747 -20 q 309 54 436 -20 q 108 258 181 128 q 35 548 35 389 q 108 854 35 723 q 306 1053 181 985 q 591 1121 431 1121 q 877 1053 751 1121 q 1075 854 1002 985 q 1147 548 1147 723 m 591 216 q 639 225 618 216 q 674 250 660 234 q 700 286 689 265 q 717 332 711 307 q 727 383 723 357 q 732 436 731 410 q 734 489 733 463 q 734 538 734 515 q 734 558 734 551 q 734 582 734 566 q 734 633 733 606 q 731 689 734 661 q 724 745 728 718 q 709 797 720 772 q 683 840 698 821 q 645 868 669 858 q 591 879 621 879 q 544 871 565 879 q 508 848 522 863 q 483 814 494 833 q 466 772 471 795 q 455 725 460 749 q 450 675 451 700 q 449 627 450 650 q 449 582 448 603 q 449 558 449 566 q 449 538 449 551 q 449 495 450 517 q 450 449 448 473 q 454 401 452 425 q 461 354 456 377 q 473 311 466 331 q 490 273 479 290 q 515 243 501 256 q 549 223 529 231 q 591 216 568 216 m 813 1360 l 437 1147 l 367 1243 l 688 1539 l 813 1360 z "},"Ô":{"ha":1183,"x_min":35,"x_max":1147,"o":"m 1147 548 q 1075 258 1147 389 q 874 54 1002 128 q 591 -20 747 -20 q 309 54 436 -20 q 108 258 181 128 q 35 548 35 389 q 108 854 35 723 q 306 1053 181 985 q 591 1121 431 1121 q 877 1053 751 1121 q 1075 854 1002 985 q 1147 548 1147 723 m 591 216 q 639 225 618 216 q 674 250 660 234 q 700 286 689 265 q 717 332 711 307 q 727 383 723 357 q 732 436 731 410 q 734 489 733 463 q 734 538 734 515 q 734 558 734 551 q 734 582 734 566 q 734 633 733 606 q 731 689 734 661 q 724 745 728 718 q 709 797 720 772 q 683 840 698 821 q 645 868 669 858 q 591 879 621 879 q 544 871 565 879 q 508 848 522 863 q 483 814 494 833 q 466 772 471 795 q 455 725 460 749 q 450 675 451 700 q 449 627 450 650 q 449 582 448 603 q 449 558 449 566 q 449 538 449 551 q 449 495 450 517 q 450 449 448 473 q 454 401 452 425 q 461 354 456 377 q 473 311 466 331 q 490 273 479 290 q 515 243 501 256 q 549 223 529 231 q 591 216 568 216 m 682 1466 l 867 1211 l 763 1143 l 590 1309 l 417 1143 l 313 1211 l 498 1467 l 682 1466 z "},"Õ":{"ha":1183,"x_min":35,"x_max":1147,"o":"m 1147 548 q 1075 258 1147 389 q 874 54 1002 128 q 591 -20 747 -20 q 309 54 436 -20 q 108 258 181 128 q 35 548 35 389 q 108 854 35 723 q 306 1053 181 985 q 591 1121 431 1121 q 877 1053 751 1121 q 1075 854 1002 985 q 1147 548 1147 723 m 591 216 q 639 225 618 216 q 674 250 660 234 q 700 286 689 265 q 717 332 711 307 q 727 383 723 357 q 732 436 731 410 q 734 489 733 463 q 734 538 734 515 q 734 558 734 551 q 734 582 734 566 q 734 633 733 606 q 731 689 734 661 q 724 745 728 718 q 709 797 720 772 q 683 840 698 821 q 645 868 669 858 q 591 879 621 879 q 544 871 565 879 q 508 848 522 863 q 483 814 494 833 q 466 772 471 795 q 455 725 460 749 q 450 675 451 700 q 449 627 450 650 q 449 582 448 603 q 449 558 449 566 q 449 538 449 551 q 449 495 450 517 q 450 449 448 473 q 454 401 452 425 q 461 354 456 377 q 473 311 466 331 q 490 273 479 290 q 515 243 501 256 q 549 223 529 231 q 591 216 568 216 m 708 1414 q 762 1401 738 1414 q 804 1365 787 1388 q 835 1318 822 1341 q 864 1265 848 1295 q 892 1217 880 1234 l 816 1166 q 748 1227 766 1214 q 716 1240 729 1240 q 644 1219 686 1240 q 556 1178 602 1199 q 474 1158 511 1158 q 419 1170 444 1158 q 377 1206 395 1183 q 346 1252 359 1230 q 317 1306 333 1275 q 288 1354 300 1337 l 366 1405 q 436 1342 417 1356 q 467 1329 455 1329 q 524 1342 492 1329 q 582 1372 555 1356 q 643 1401 608 1388 q 708 1414 677 1414 z "},"Ö":{"ha":1183,"x_min":35,"x_max":1147,"o":"m 1147 548 q 1075 258 1147 389 q 874 54 1002 128 q 591 -20 747 -20 q 309 54 436 -20 q 108 258 181 128 q 35 548 35 389 q 108 854 35 723 q 306 1053 181 985 q 591 1121 431 1121 q 877 1053 751 1121 q 1075 854 1002 985 q 1147 548 1147 723 m 591 216 q 639 225 618 216 q 674 250 660 234 q 700 286 689 265 q 717 332 711 307 q 727 383 723 357 q 732 436 731 410 q 734 489 733 463 q 734 538 734 515 q 734 558 734 551 q 734 582 734 566 q 734 633 733 606 q 731 689 734 661 q 724 745 728 718 q 709 797 720 772 q 683 840 698 821 q 645 868 669 858 q 591 879 621 879 q 544 871 565 879 q 508 848 522 863 q 483 814 494 833 q 466 772 471 795 q 455 725 460 749 q 450 675 451 700 q 449 627 450 650 q 449 582 448 603 q 449 558 449 566 q 449 538 449 551 q 449 495 450 517 q 450 449 448 473 q 454 401 452 425 q 461 354 456 377 q 473 311 466 331 q 490 273 479 290 q 515 243 501 256 q 549 223 529 231 q 591 216 568 216 m 534 1291 q 489 1177 534 1218 q 382 1135 444 1135 q 274 1177 319 1135 q 228 1293 228 1219 q 273 1407 228 1366 q 381 1447 319 1447 q 489 1406 444 1447 q 534 1291 534 1365 m 953 1291 q 908 1177 953 1218 q 801 1135 863 1135 q 692 1177 738 1135 q 646 1293 646 1219 q 692 1407 646 1366 q 800 1447 737 1447 q 907 1406 862 1447 q 953 1291 953 1365 z "},"×":{"ha":612,"x_min":50,"x_max":562,"o":"m 306 317 l 176 186 l 58 303 l 189 434 l 50 572 l 172 694 l 306 556 l 439 694 l 562 572 l 423 434 l 553 303 l 436 186 l 306 317 z "},"Ø":{"ha":1181,"x_min":35,"x_max":1147,"o":"m 385 -105 l 410 8 q 138 210 241 64 q 35 548 35 356 q 107 854 35 723 q 306 1053 180 985 q 591 1121 431 1121 q 666 1116 623 1121 l 691 1223 l 795 1203 l 770 1096 q 1045 902 943 1045 q 1147 548 1147 758 q 1074 258 1147 389 q 873 54 1001 128 q 591 -20 746 -20 q 520 -16 555 -20 l 494 -132 l 385 -105 m 591 879 q 543 871 564 879 q 507 848 522 863 q 482 814 493 833 q 465 772 471 795 q 455 725 459 749 q 450 675 450 700 q 448 627 449 650 q 448 582 447 603 q 448 558 448 566 q 448 526 448 557 q 448 487 448 495 q 449 450 448 479 q 452 408 450 422 q 457 371 454 393 q 465 330 460 348 q 477 297 470 313 l 611 878 q 591 879 597 879 m 591 216 q 638 225 617 216 q 674 250 659 234 q 699 286 688 265 q 716 332 710 307 q 726 383 722 357 q 731 436 730 410 q 733 489 732 463 q 733 538 734 515 q 733 558 733 551 q 733 588 733 563 q 733 624 734 613 q 732 659 733 635 q 730 698 732 683 q 725 734 728 713 q 716 771 722 754 q 705 804 711 789 l 573 217 q 591 216 578 216 z "},"Ù":{"ha":1141,"x_min":29,"x_max":1112,"o":"m 1007 861 l 1112 861 l 1112 1100 l 668 1100 l 668 861 l 779 861 l 779 363 q 744 269 779 304 q 646 235 709 235 q 585 250 611 235 q 545 290 559 264 q 525 345 531 315 q 518 407 518 374 l 518 861 l 618 861 l 618 1100 l 29 1100 l 29 861 l 138 861 l 138 477 q 143 367 138 418 q 162 264 149 316 q 196 172 175 213 q 250 94 217 130 q 327 33 283 57 q 431 -6 371 8 q 566 -20 492 -20 q 782 26 682 -20 q 945 159 882 73 q 1007 353 1007 245 l 1007 861 m 472 1539 l 793 1243 l 723 1147 l 347 1360 l 472 1539 z "},"Ú":{"ha":1141,"x_min":29,"x_max":1112,"o":"m 1007 353 q 945 159 1007 245 q 782 26 882 73 q 566 -20 682 -20 q 431 -6 492 -20 q 327 33 371 8 q 250 94 283 57 q 196 172 217 130 q 162 264 175 213 q 143 367 149 316 q 138 477 138 418 l 138 861 l 29 861 l 29 1100 l 618 1100 l 618 861 l 518 861 l 518 407 q 525 345 518 374 q 545 290 531 315 q 585 250 559 264 q 646 235 611 235 q 744 269 709 235 q 779 363 779 304 l 779 861 l 668 861 l 668 1100 l 1112 1100 l 1112 861 l 1007 861 l 1007 353 m 793 1360 l 418 1147 l 347 1243 l 669 1539 l 793 1360 z "},"Û":{"ha":1141,"x_min":29,"x_max":1112,"o":"m 1007 353 q 945 159 1007 245 q 782 26 882 73 q 566 -20 682 -20 q 431 -6 492 -20 q 327 33 371 8 q 250 94 283 57 q 196 172 217 130 q 162 264 175 213 q 143 367 149 316 q 138 477 138 418 l 138 861 l 29 861 l 29 1100 l 618 1100 l 618 861 l 518 861 l 518 407 q 525 345 518 374 q 545 290 531 315 q 585 250 559 264 q 646 235 611 235 q 744 269 709 235 q 779 363 779 304 l 779 861 l 668 861 l 668 1100 l 1112 1100 l 1112 861 l 1007 861 l 1007 353 m 662 1466 l 848 1211 l 743 1143 l 570 1309 l 397 1143 l 293 1211 l 478 1467 l 662 1466 z "},"Ü":{"ha":1141,"x_min":29,"x_max":1112,"o":"m 1007 861 l 1112 861 l 1112 1100 l 668 1100 l 668 861 l 779 861 l 779 363 q 744 269 779 304 q 646 235 709 235 q 585 250 611 235 q 545 290 559 264 q 525 345 531 315 q 518 407 518 374 l 518 861 l 618 861 l 618 1100 l 29 1100 l 29 861 l 138 861 l 138 477 q 143 367 138 418 q 162 264 149 316 q 196 172 175 213 q 250 94 217 130 q 327 33 283 57 q 431 -6 371 8 q 566 -20 492 -20 q 782 26 682 -20 q 945 159 882 73 q 1007 353 1007 245 l 1007 861 m 514 1291 q 469 1177 514 1218 q 362 1135 424 1135 q 253 1177 299 1135 q 208 1293 208 1219 q 253 1407 208 1366 q 361 1447 298 1447 q 469 1406 423 1447 q 514 1291 514 1365 m 932 1291 q 887 1177 932 1218 q 781 1135 842 1135 q 672 1177 718 1135 q 626 1293 626 1219 q 671 1407 626 1366 q 779 1447 717 1447 q 887 1406 842 1447 q 932 1291 932 1365 z "},"Ý":{"ha":1057,"x_min":-10,"x_max":1061,"o":"m 1061 861 l 1010 861 q 969 856 987 861 q 939 843 951 850 q 913 818 926 836 q 891 786 899 800 q 867 743 884 773 l 729 491 l 729 243 l 836 243 l 836 0 l 246 0 l 246 243 l 351 243 l 351 456 l 66 861 l -10 861 l -10 1100 l 568 1100 l 568 861 l 506 861 q 569 767 521 841 q 631 673 616 694 q 708 828 708 791 q 707 839 708 834 q 703 848 706 844 q 698 854 701 851 q 691 858 696 857 q 682 860 686 859 q 671 861 678 861 q 659 861 663 861 q 644 861 654 861 q 629 861 634 861 l 629 1100 l 1061 1100 l 1061 861 m 750 1360 l 374 1147 l 304 1243 l 625 1539 l 750 1360 z "},"Þ":{"ha":1111,"x_min":61,"x_max":1095,"o":"m 61 246 l 167 246 l 167 1009 l 64 1009 l 64 1250 l 546 1250 l 545 1046 q 635 1046 595 1046 q 722 1041 674 1045 q 807 1031 770 1038 q 885 1012 844 1024 q 955 983 925 1000 q 1012 942 984 966 q 1057 886 1040 917 q 1085 814 1074 855 q 1095 723 1095 772 q 1063 565 1095 632 q 971 458 1031 498 q 831 398 911 418 q 648 379 751 379 q 546 386 600 379 l 546 246 l 645 246 l 645 0 l 61 0 l 61 246 m 546 607 l 587 607 q 702 632 662 607 q 741 716 741 658 q 705 793 741 768 q 616 819 669 819 l 546 819 l 546 607 z "},"ß":{"ha":1107,"x_min":-4,"x_max":1091,"o":"m 545 1101 q 704 1086 632 1101 q 826 1047 777 1072 q 908 988 875 1022 q 957 917 941 954 q 972 838 972 879 q 931 711 972 773 q 819 609 890 650 q 1020 479 948 568 q 1091 291 1091 391 q 1064 177 1091 231 q 986 80 1038 123 q 852 13 935 38 q 665 -12 770 -12 l 665 237 q 763 361 763 292 q 701 466 763 424 q 521 509 640 509 l 519 611 q 622 660 578 611 q 665 762 665 709 q 640 837 665 808 q 566 865 616 865 q 497 841 524 865 q 470 767 470 818 l 471 237 q 573 237 556 237 l 573 0 l -4 0 l -4 250 l 113 250 l 113 741 q 133 884 113 822 q 189 986 153 945 q 280 1053 225 1027 q 399 1090 335 1079 q 545 1101 463 1101 z "},"à":{"ha":878,"x_min":20,"x_max":846,"o":"m 20 209 q 97 48 20 108 q 284 -12 174 -12 q 399 12 340 -12 q 492 81 458 37 l 526 0 l 846 0 l 846 207 l 794 207 l 794 509 q 777 593 794 555 q 734 654 760 631 q 670 695 709 678 q 599 721 632 713 q 524 734 566 730 q 459 740 481 739 q 409 741 437 741 q 254 729 336 741 q 127 705 172 717 l 81 693 l 81 480 l 200 480 q 346 545 249 545 q 489 432 489 545 l 489 401 q 315 427 414 427 q 207 413 259 427 q 113 373 155 399 q 46 304 71 347 q 20 209 20 261 m 353 221 q 374 274 353 250 q 424 297 395 297 q 455 294 439 297 q 481 286 472 290 l 491 283 l 491 183 q 483 175 488 180 q 458 161 477 170 q 418 152 439 152 q 370 171 388 152 q 353 221 353 191 m 336 1158 l 658 862 l 587 766 l 212 979 l 336 1158 z "},"á":{"ha":878,"x_min":20,"x_max":846,"o":"m 20 209 q 46 304 20 261 q 113 373 71 347 q 207 413 155 399 q 315 427 259 427 q 489 401 414 427 l 489 432 q 346 545 489 545 q 200 480 249 545 l 81 480 l 81 693 l 127 705 q 254 729 172 717 q 409 741 336 741 q 459 740 437 741 q 524 734 481 739 q 599 721 566 730 q 670 695 632 713 q 734 654 709 678 q 777 593 760 631 q 794 509 794 555 l 794 207 l 846 207 l 846 0 l 526 0 l 492 81 q 399 12 458 37 q 284 -12 340 -12 q 97 48 174 -12 q 20 209 20 108 m 353 221 q 370 171 353 191 q 418 152 388 152 q 458 161 439 152 q 483 175 477 170 q 491 183 488 180 l 491 283 l 481 286 q 455 294 472 290 q 424 297 439 297 q 374 274 395 297 q 353 221 353 250 m 741 979 l 365 766 l 294 862 l 616 1158 l 741 979 z "},"â":{"ha":878,"x_min":20,"x_max":846,"o":"m 20 209 q 46 304 20 261 q 113 373 71 347 q 207 413 155 399 q 315 427 259 427 q 489 401 414 427 l 489 432 q 346 545 489 545 q 200 480 249 545 l 81 480 l 81 693 l 127 705 q 254 729 172 717 q 409 741 336 741 q 459 740 437 741 q 524 734 481 739 q 599 721 566 730 q 670 695 632 713 q 734 654 709 678 q 777 593 760 631 q 794 509 794 555 l 794 207 l 846 207 l 846 0 l 526 0 l 492 81 q 399 12 458 37 q 284 -12 340 -12 q 97 48 174 -12 q 20 209 20 108 m 353 221 q 370 171 353 191 q 418 152 388 152 q 458 161 439 152 q 483 175 477 170 q 491 183 488 180 l 491 283 l 481 286 q 455 294 472 290 q 424 297 439 297 q 374 274 395 297 q 353 221 353 250 m 526 1085 l 712 830 l 608 762 l 435 928 l 262 762 l 157 830 l 342 1086 l 526 1085 z "},"ã":{"ha":878,"x_min":20,"x_max":846,"o":"m 20 209 q 97 48 20 108 q 284 -12 174 -12 q 399 12 340 -12 q 492 81 458 37 l 526 0 l 846 0 l 846 207 l 794 207 l 794 509 q 777 593 794 555 q 734 654 760 631 q 670 695 709 678 q 599 721 632 713 q 524 734 566 730 q 459 740 481 739 q 409 741 437 741 q 254 729 336 741 q 127 705 172 717 l 81 693 l 81 480 l 200 480 q 346 545 249 545 q 489 432 489 545 l 489 401 q 315 427 414 427 q 207 413 259 427 q 113 373 155 399 q 46 304 71 347 q 20 209 20 261 m 353 221 q 374 274 353 250 q 424 297 395 297 q 455 294 439 297 q 481 286 472 290 l 491 283 l 491 183 q 483 175 488 180 q 458 161 477 170 q 418 152 439 152 q 370 171 388 152 q 353 221 353 191 m 535 1033 q 589 1020 565 1033 q 631 984 614 1007 q 662 937 649 960 q 691 884 675 914 q 720 836 707 853 l 643 785 q 575 846 593 833 q 543 859 556 859 q 471 838 513 859 q 384 797 429 818 q 301 777 338 777 q 246 789 271 777 q 204 825 222 802 q 173 871 186 848 q 144 925 160 894 q 115 973 127 956 l 193 1024 q 263 961 244 975 q 294 948 282 948 q 351 961 319 948 q 409 990 382 975 q 470 1020 435 1006 q 535 1033 505 1033 z "},"ä":{"ha":878,"x_min":20,"x_max":846,"o":"m 20 209 q 97 48 20 108 q 284 -12 174 -12 q 399 12 340 -12 q 492 81 458 37 l 526 0 l 846 0 l 846 207 l 794 207 l 794 509 q 777 593 794 555 q 734 654 760 631 q 670 695 709 678 q 599 721 632 713 q 524 734 566 730 q 459 740 481 739 q 409 741 437 741 q 254 729 336 741 q 127 705 172 717 l 81 693 l 81 480 l 200 480 q 346 545 249 545 q 489 432 489 545 l 489 401 q 315 427 414 427 q 207 413 259 427 q 113 373 155 399 q 46 304 71 347 q 20 209 20 261 m 353 221 q 374 274 353 250 q 424 297 395 297 q 455 294 439 297 q 481 286 472 290 l 491 283 l 491 183 q 483 175 488 180 q 458 161 477 170 q 418 152 439 152 q 370 171 388 152 q 353 221 353 191 m 379 910 q 334 795 379 837 q 227 754 289 754 q 118 796 164 754 q 73 912 73 838 q 118 1025 73 985 q 226 1066 163 1066 q 334 1025 288 1066 q 379 910 379 984 m 798 910 q 752 795 798 837 q 646 754 707 754 q 537 796 583 754 q 491 912 491 838 q 536 1025 491 985 q 644 1066 582 1066 q 752 1025 707 1066 q 798 910 798 984 z "},"å":{"ha":878,"x_min":20,"x_max":846,"o":"m 20 209 q 46 304 20 261 q 113 373 71 347 q 207 413 155 399 q 315 427 259 427 q 489 401 414 427 l 489 432 q 346 545 489 545 q 200 480 249 545 l 81 480 l 81 693 l 127 705 q 254 729 172 717 q 409 741 336 741 q 459 740 437 741 q 524 734 481 739 q 599 721 566 730 q 670 695 632 713 q 734 654 709 678 q 777 593 760 631 q 794 509 794 555 l 794 207 l 846 207 l 846 0 l 526 0 l 492 81 q 399 12 458 37 q 284 -12 340 -12 q 97 48 174 -12 q 20 209 20 108 m 353 221 q 370 171 353 191 q 418 152 388 152 q 458 161 439 152 q 483 175 477 170 q 491 183 488 180 l 491 283 l 481 286 q 455 294 472 290 q 424 297 439 297 q 374 274 395 297 q 353 221 353 250 m 432 841 q 514 871 484 841 q 544 941 544 901 q 514 1010 544 981 q 432 1040 485 1040 q 352 1010 380 1040 q 323 941 323 981 q 352 871 323 901 q 432 841 381 841 m 432 772 q 297 823 346 772 q 248 942 248 873 q 296 1058 248 1009 q 432 1107 345 1107 q 572 1059 522 1107 q 622 942 622 1010 q 571 823 622 873 q 432 772 521 772 z "},"æ":{"ha":1296,"x_min":20,"x_max":1265,"o":"m 20 203 q 46 298 20 255 q 113 367 71 340 q 207 407 155 393 q 315 421 259 421 q 489 395 414 421 l 489 426 q 346 538 489 538 q 200 474 249 538 l 81 474 l 81 687 l 127 699 q 254 723 172 711 q 409 734 336 734 q 498 726 455 734 q 568 706 542 717 q 618 680 595 694 q 648 661 642 666 q 659 652 655 655 l 668 661 q 697 682 677 669 q 744 706 718 694 q 809 727 770 718 q 892 736 849 736 q 1095 686 1008 736 q 1223 555 1181 636 q 1265 372 1265 473 q 1262 318 1265 349 q 1253 301 1256 304 q 1237 299 1250 299 l 829 299 q 861 191 829 236 q 949 146 893 146 q 1020 170 998 146 q 1044 243 1042 193 l 1252 243 l 1252 81 q 1076 5 1162 28 q 881 -17 989 -17 q 656 71 753 -17 q 502 0 586 20 q 284 -18 417 -20 q 154 8 213 -18 q 58 84 95 33 q 20 203 20 135 m 353 215 q 370 165 353 184 q 418 146 388 146 q 458 155 439 146 q 483 169 477 163 q 491 177 488 174 l 491 277 l 481 280 q 455 287 472 283 q 424 291 439 291 q 374 268 395 291 q 353 215 353 244 m 830 420 l 976 420 q 975 462 977 444 q 967 502 973 479 q 945 535 961 524 q 903 547 928 547 q 848 514 867 547 q 830 440 830 481 l 830 420 z "},"ç":{"ha":754,"x_min":30,"x_max":705,"o":"m 30 370 q 55 511 30 444 q 124 629 79 578 q 235 710 168 680 q 382 741 302 741 q 557 675 475 741 l 585 727 l 703 727 l 703 426 l 539 426 q 515 499 539 471 q 456 528 490 528 q 382 484 413 528 q 351 348 351 439 q 356 296 351 321 q 372 250 361 272 q 405 214 384 227 q 456 200 427 200 q 494 210 477 200 q 519 231 511 219 q 533 257 528 242 q 540 279 539 273 q 542 288 541 285 l 705 288 l 705 84 q 574 13 658 37 q 404 -12 490 -12 q 213 31 297 -12 q 80 162 130 74 q 30 370 30 250 m 322 0 l 444 0 l 444 -81 q 534 -193 534 -133 q 461 -289 534 -249 q 284 -329 387 -329 l 270 -329 l 270 -252 q 366 -233 336 -252 q 397 -184 397 -214 q 375 -127 397 -157 q 322 -81 353 -98 l 322 0 z "},"è":{"ha":830,"x_min":27,"x_max":799,"o":"m 414 -12 q 609 10 523 -12 q 785 86 696 33 l 785 248 l 577 248 q 553 174 576 198 q 482 151 531 151 q 394 196 427 151 q 362 304 362 241 l 770 304 q 786 306 783 304 q 795 323 789 309 q 799 376 799 353 q 756 559 799 478 q 628 691 714 641 q 425 741 542 741 q 212 690 303 741 q 74 552 121 640 q 27 353 27 465 q 77 170 27 254 q 215 37 126 87 q 414 -12 304 -12 m 363 445 q 382 519 363 486 q 437 552 400 552 q 478 540 462 552 q 500 506 494 528 q 508 467 507 484 q 509 425 510 449 l 363 425 l 363 445 m 312 1158 l 633 862 l 563 766 l 187 979 l 312 1158 z "},"é":{"ha":830,"x_min":27,"x_max":799,"o":"m 414 -12 q 215 37 304 -12 q 77 170 126 87 q 27 353 27 254 q 74 552 27 465 q 212 690 121 640 q 425 741 303 741 q 628 691 542 741 q 756 559 714 641 q 799 376 799 478 q 795 323 799 353 q 786 306 789 309 q 770 304 783 304 l 362 304 q 394 196 362 241 q 482 151 427 151 q 553 174 531 151 q 577 248 576 198 l 785 248 l 785 86 q 609 10 696 33 q 414 -12 523 -12 m 363 425 l 509 425 q 508 467 510 449 q 500 506 507 484 q 478 540 494 528 q 437 552 462 552 q 382 519 400 552 q 363 445 363 486 l 363 425 m 633 979 l 258 766 l 187 862 l 509 1158 l 633 979 z "},"ê":{"ha":830,"x_min":27,"x_max":799,"o":"m 414 -12 q 215 37 304 -12 q 77 170 126 87 q 27 353 27 254 q 74 552 27 465 q 212 690 121 640 q 425 741 303 741 q 628 691 542 741 q 756 559 714 641 q 799 376 799 478 q 795 323 799 353 q 786 306 789 309 q 770 304 783 304 l 362 304 q 394 196 362 241 q 482 151 427 151 q 553 174 531 151 q 577 248 576 198 l 785 248 l 785 86 q 609 10 696 33 q 414 -12 523 -12 m 363 425 l 509 425 q 508 467 510 449 q 500 506 507 484 q 478 540 494 528 q 437 552 462 552 q 382 519 400 552 q 363 445 363 486 l 363 425 m 502 1085 l 688 830 l 583 762 l 410 928 l 237 762 l 133 830 l 318 1086 l 502 1085 z "},"ë":{"ha":830,"x_min":27,"x_max":799,"o":"m 414 -12 q 609 10 523 -12 q 785 86 696 33 l 785 248 l 577 248 q 553 174 576 198 q 482 151 531 151 q 394 196 427 151 q 362 304 362 241 l 770 304 q 786 306 783 304 q 795 323 789 309 q 799 376 799 353 q 756 559 799 478 q 628 691 714 641 q 425 741 542 741 q 212 690 303 741 q 74 552 121 640 q 27 353 27 465 q 77 170 27 254 q 215 37 126 87 q 414 -12 304 -12 m 363 445 q 382 519 363 486 q 437 552 400 552 q 478 540 462 552 q 500 506 494 528 q 508 467 507 484 q 509 425 510 449 l 363 425 l 363 445 m 355 910 q 310 795 355 837 q 203 754 264 754 q 94 796 140 754 q 48 912 48 838 q 94 1025 48 985 q 201 1066 139 1066 q 309 1025 264 1066 q 355 910 355 984 m 773 910 q 728 795 773 837 q 621 754 683 754 q 512 796 558 754 q 467 912 467 838 q 512 1025 467 985 q 620 1066 557 1066 q 728 1025 682 1066 q 773 910 773 984 z "},"ì":{"ha":552,"x_min":58,"x_max":505,"o":"m 183 1158 l 505 862 l 434 766 l 58 979 l 183 1158 m 448 727 l 62 727 l 62 507 l 122 507 l 122 203 l 66 203 l 66 0 l 505 0 l 505 203 l 448 203 l 448 727 z "},"í":{"ha":552,"x_min":58,"x_max":505,"o":"m 505 979 l 129 766 l 58 862 l 380 1158 l 505 979 m 448 203 l 505 203 l 505 0 l 66 0 l 66 203 l 122 203 l 122 507 l 62 507 l 62 727 l 448 727 l 448 203 z "},"î":{"ha":551,"x_min":4,"x_max":559,"o":"m 373 1085 l 559 830 l 454 762 l 281 928 l 109 762 l 4 830 l 189 1086 l 373 1085 m 448 203 l 505 203 l 505 0 l 66 0 l 66 203 l 122 203 l 122 507 l 62 507 l 62 727 l 448 727 l 448 203 z "},"ï":{"ha":553,"x_min":-80,"x_max":645,"o":"m 227 910 q 181 795 227 837 q 75 754 136 754 q -34 796 12 754 q -80 912 -80 838 q -35 1025 -80 985 q 73 1066 11 1066 q 181 1025 136 1066 q 227 910 227 984 m 645 910 q 600 795 645 837 q 493 754 555 754 q 384 796 430 754 q 338 912 338 838 q 384 1025 338 985 q 492 1066 429 1066 q 600 1025 554 1066 q 645 910 645 984 m 449 727 l 62 727 l 62 507 l 123 507 l 123 203 l 67 203 l 67 0 l 506 0 l 506 203 l 449 203 l 449 727 z "},"ð":{"ha":907,"x_min":26,"x_max":871,"o":"m 818 1075 l 861 968 l 754 926 q 870 509 857 774 q 871 469 871 496 q 856 319 871 389 q 807 188 840 249 q 724 83 773 127 q 601 13 674 39 q 438 -12 528 -12 q 262 21 342 -12 q 131 108 182 54 q 53 229 81 162 q 26 366 26 296 q 41 466 26 418 q 89 556 56 514 q 169 630 121 599 q 283 680 216 661 q 432 698 351 698 l 454 698 q 422 793 438 760 l 252 724 l 209 831 l 331 880 q 232 896 289 896 q 147 888 179 896 l 147 1099 q 347 1122 252 1122 q 673 1017 547 1122 l 818 1075 m 378 385 q 453 229 378 229 q 488 247 473 229 q 508 292 502 264 q 516 340 513 319 q 518 380 518 361 q 452 527 518 527 q 378 385 378 527 z "},"ñ":{"ha":1005,"x_min":62,"x_max":969,"o":"m 448 727 l 66 727 l 66 516 l 118 516 l 118 207 l 62 207 l 62 0 l 508 0 l 508 207 l 448 207 l 448 423 q 468 477 448 455 q 519 500 487 500 q 562 479 543 500 q 580 425 580 458 l 580 0 l 969 0 l 969 207 l 915 207 l 915 461 q 691 741 915 741 q 548 710 611 741 q 448 621 486 679 l 448 727 m 603 1033 q 657 1020 633 1033 q 699 984 682 1007 q 730 937 717 960 q 759 884 743 914 q 787 836 775 853 l 711 785 q 643 846 661 833 q 611 859 624 859 q 538 838 581 859 q 451 797 496 818 q 369 777 406 777 q 314 789 338 777 q 272 825 290 802 q 241 871 254 848 q 212 925 228 894 q 183 973 195 956 l 260 1024 q 331 961 312 975 q 362 948 350 948 q 418 961 387 948 q 477 990 450 975 q 538 1020 503 1006 q 603 1033 572 1033 z "},"ò":{"ha":875,"x_min":29,"x_max":846,"o":"m 29 371 q 138 644 29 547 q 437 740 248 740 q 736 644 627 740 q 846 371 846 547 q 794 165 846 252 q 650 33 742 77 q 437 -12 558 -12 q 225 33 317 -12 q 81 165 133 77 q 29 371 29 252 m 345 370 q 437 199 345 199 q 530 370 530 199 q 527 428 530 404 q 515 477 524 452 q 487 515 507 503 q 437 528 467 528 q 388 515 408 528 q 359 477 368 503 q 348 428 351 452 q 345 370 345 404 m 336 1158 l 657 862 l 587 766 l 211 979 l 336 1158 z "},"ó":{"ha":875,"x_min":29,"x_max":846,"o":"m 29 371 q 138 644 29 547 q 437 740 248 740 q 736 644 627 740 q 846 371 846 547 q 794 165 846 252 q 650 33 742 77 q 437 -12 558 -12 q 225 33 317 -12 q 81 165 133 77 q 29 371 29 252 m 345 370 q 437 199 345 199 q 530 370 530 199 q 527 428 530 404 q 515 477 524 452 q 487 515 507 503 q 437 528 467 528 q 388 515 408 528 q 359 477 368 503 q 348 428 351 452 q 345 370 345 404 m 657 979 l 281 766 l 211 862 l 532 1158 l 657 979 z "},"ô":{"ha":875,"x_min":29,"x_max":846,"o":"m 29 371 q 138 644 29 547 q 437 740 248 740 q 736 644 627 740 q 846 371 846 547 q 794 165 846 252 q 650 33 742 77 q 437 -12 558 -12 q 225 33 317 -12 q 81 165 133 77 q 29 371 29 252 m 345 370 q 437 199 345 199 q 530 370 530 199 q 527 428 530 404 q 515 477 524 452 q 487 515 507 503 q 437 528 467 528 q 388 515 408 528 q 359 477 368 503 q 348 428 351 452 q 345 370 345 404 m 526 1085 l 711 830 l 607 762 l 434 928 l 261 762 l 157 830 l 342 1086 l 526 1085 z "},"õ":{"ha":875,"x_min":29,"x_max":846,"o":"m 29 371 q 138 644 29 547 q 437 740 248 740 q 736 644 627 740 q 846 371 846 547 q 794 165 846 252 q 650 33 742 77 q 437 -12 558 -12 q 225 33 317 -12 q 81 165 133 77 q 29 371 29 252 m 345 370 q 437 199 345 199 q 530 370 530 199 q 527 428 530 404 q 515 477 524 452 q 487 515 507 503 q 437 528 467 528 q 388 515 408 528 q 359 477 368 503 q 348 428 351 452 q 345 370 345 404 m 551 1033 q 606 1020 581 1033 q 648 984 630 1007 q 679 937 665 960 q 708 884 692 914 q 736 836 724 853 l 659 785 q 591 846 610 833 q 559 859 572 859 q 487 838 529 859 q 400 797 445 818 q 317 777 355 777 q 262 789 287 777 q 220 825 238 802 q 189 871 202 848 q 160 925 176 894 q 132 973 144 956 l 209 1024 q 279 961 260 975 q 311 948 298 948 q 367 961 335 948 q 425 990 399 975 q 486 1020 452 1006 q 551 1033 521 1033 z "},"ö":{"ha":875,"x_min":29,"x_max":846,"o":"m 29 371 q 138 644 29 547 q 437 740 248 740 q 736 644 627 740 q 846 371 846 547 q 794 165 846 252 q 650 33 742 77 q 437 -12 558 -12 q 225 33 317 -12 q 81 165 133 77 q 29 371 29 252 m 345 370 q 437 199 345 199 q 530 370 530 199 q 527 428 530 404 q 515 477 524 452 q 487 515 507 503 q 437 528 467 528 q 388 515 408 528 q 359 477 368 503 q 348 428 351 452 q 345 370 345 404 m 378 910 q 333 795 378 837 q 227 754 288 754 q 118 796 163 754 q 72 912 72 838 q 117 1025 72 985 q 225 1066 163 1066 q 333 1025 288 1066 q 378 910 378 984 m 797 910 q 752 795 797 837 q 645 754 707 754 q 536 796 582 754 q 490 912 490 838 q 536 1025 490 985 q 644 1066 581 1066 q 751 1025 706 1066 q 797 910 797 984 z "},"÷":{"ha":624,"x_min":46,"x_max":571,"o":"m 46 516 l 46 365 l 571 365 l 571 516 l 46 516 m 319 -12 q 209 25 253 -12 q 165 127 165 63 q 208 227 165 190 q 319 264 251 264 q 435 227 390 264 q 479 127 479 190 q 433 25 479 63 q 319 -12 387 -12 m 319 601 q 209 638 253 601 q 165 741 165 676 q 208 840 165 803 q 319 877 251 877 q 435 840 390 877 q 479 741 479 803 q 433 638 479 676 q 319 601 387 601 z "},"ø":{"ha":873,"x_min":29,"x_max":846,"o":"m 29 371 q 138 644 29 547 q 437 740 248 740 q 736 644 627 740 q 846 371 846 547 q 794 165 846 252 q 650 33 742 77 q 437 -12 558 -12 q 225 33 317 -12 q 81 165 133 77 q 29 371 29 252 m 345 370 q 437 199 345 199 q 530 370 530 199 q 527 428 530 404 q 515 477 524 452 q 487 515 507 503 q 437 528 467 528 q 388 515 408 528 q 359 477 368 503 q 348 428 351 452 q 345 370 345 404 m 167 -37 l 642 808 l 701 774 l 226 -71 l 167 -37 z "},"ù":{"ha":994,"x_min":37,"x_max":944,"o":"m 557 0 l 944 0 l 944 207 l 892 207 l 892 727 l 503 727 l 503 516 l 557 516 l 557 297 q 538 239 557 262 q 487 216 519 216 q 444 238 463 216 q 426 297 426 261 l 426 727 l 37 727 l 37 516 l 91 516 l 91 261 q 315 -12 91 -12 q 457 18 395 -12 q 557 106 520 48 l 557 0 m 396 1158 l 718 862 l 647 766 l 271 979 l 396 1158 z "},"ú":{"ha":994,"x_min":37,"x_max":944,"o":"m 557 106 q 457 18 520 48 q 315 -12 395 -12 q 91 261 91 -12 l 91 516 l 37 516 l 37 727 l 426 727 l 426 297 q 444 238 426 261 q 487 216 463 216 q 538 239 519 216 q 557 297 557 262 l 557 516 l 503 516 l 503 727 l 892 727 l 892 207 l 944 207 l 944 0 l 557 0 l 557 106 m 718 979 l 342 766 l 271 862 l 593 1158 l 718 979 z "},"û":{"ha":994,"x_min":37,"x_max":944,"o":"m 557 106 q 457 18 520 48 q 315 -12 395 -12 q 91 261 91 -12 l 91 516 l 37 516 l 37 727 l 426 727 l 426 297 q 444 238 426 261 q 487 216 463 216 q 538 239 519 216 q 557 297 557 262 l 557 516 l 503 516 l 503 727 l 892 727 l 892 207 l 944 207 l 944 0 l 557 0 l 557 106 m 586 1085 l 772 830 l 667 762 l 494 928 l 321 762 l 217 830 l 402 1086 l 586 1085 z "},"ü":{"ha":994,"x_min":37,"x_max":944,"o":"m 557 0 l 944 0 l 944 207 l 892 207 l 892 727 l 503 727 l 503 516 l 557 516 l 557 297 q 538 239 557 262 q 487 216 519 216 q 444 238 463 216 q 426 297 426 261 l 426 727 l 37 727 l 37 516 l 91 516 l 91 261 q 315 -12 91 -12 q 457 18 395 -12 q 557 106 520 48 l 557 0 m 439 910 q 394 795 439 837 q 287 754 349 754 q 178 796 224 754 q 132 912 132 838 q 178 1025 132 985 q 286 1066 223 1066 q 393 1025 348 1066 q 439 910 439 984 m 857 910 q 812 795 857 837 q 705 754 767 754 q 596 796 642 754 q 551 912 551 838 q 596 1025 551 985 q 704 1066 642 1066 q 812 1025 766 1066 q 857 910 857 984 z "},"ý":{"ha":934,"x_min":2,"x_max":931,"o":"m 378 21 l 62 516 l 2 516 l 2 727 l 463 727 l 463 516 l 417 516 l 536 308 l 602 449 q 599 509 624 496 q 538 516 585 516 l 538 727 l 931 727 l 931 516 q 886 511 905 516 q 854 490 868 505 q 833 464 840 475 q 812 426 826 453 l 555 -56 l 713 -56 l 713 -256 l 244 -256 l 378 21 m 689 979 l 313 766 l 243 862 l 564 1158 l 689 979 z "},"þ":{"ha":953,"x_min":22,"x_max":922,"o":"m 22 -270 l 22 -64 l 79 -64 l 79 774 l 29 774 l 29 981 l 412 981 l 412 648 l 418 648 q 508 714 462 694 q 616 734 554 734 q 747 704 688 734 q 844 622 806 673 q 902 505 882 570 q 922 367 922 439 q 903 230 922 296 q 846 111 883 164 q 749 26 809 58 q 615 -6 689 -6 q 489 19 545 -6 q 404 81 433 45 l 404 -65 l 479 -65 l 479 -269 l 22 -270 m 406 275 q 413 257 407 268 q 427 236 418 247 q 453 218 436 225 q 492 210 470 210 q 547 224 524 210 q 582 263 570 239 q 599 314 594 288 q 604 370 604 340 q 494 501 604 501 q 456 494 473 501 q 430 479 439 488 q 414 459 421 471 q 406 444 408 448 q 404 437 405 440 l 404 283 l 406 275 z "},"ÿ":{"ha":934,"x_min":2,"x_max":931,"o":"m 244 -256 l 713 -256 l 713 -56 l 555 -56 l 812 426 q 833 464 826 453 q 854 490 840 475 q 886 511 868 505 q 931 516 905 516 l 931 727 l 538 727 l 538 516 q 599 509 585 516 q 602 449 624 496 l 536 308 l 417 516 l 463 516 l 463 727 l 2 727 l 2 516 l 62 516 l 378 21 l 244 -256 m 410 910 q 365 795 410 837 q 258 754 320 754 q 150 796 195 754 q 104 912 104 838 q 149 1025 104 985 q 257 1066 195 1066 q 365 1025 319 1066 q 410 910 410 984 m 829 910 q 784 795 829 837 q 677 754 739 754 q 568 796 614 754 q 522 912 522 838 q 568 1025 522 985 q 675 1066 613 1066 q 783 1025 738 1066 q 829 910 829 984 z "},"Ā":{"ha":1114,"x_min":3,"x_max":1108,"o":"m 804 1101 l 130 1101 l 130 861 l 273 861 l 157 401 q 131 313 138 330 q 56 249 109 262 q 3 243 33 243 l 3 0 l 463 0 l 463 243 l 406 243 q 384 268 391 243 q 376 311 376 292 q 378 333 377 326 q 383 348 378 340 q 397 355 388 355 l 583 355 q 629 243 629 355 l 547 243 l 548 0 l 1108 0 l 1108 243 l 1050 243 q 1032 252 1040 243 q 1021 271 1025 260 q 1012 303 1017 282 l 804 1101 m 415 524 l 491 869 l 570 524 l 415 524 m 810 1176 l 303 1176 l 303 1403 l 810 1403 l 810 1176 z "},"ā":{"ha":878,"x_min":20,"x_max":846,"o":"m 20 209 q 97 48 20 108 q 284 -12 174 -12 q 399 12 340 -12 q 492 81 458 37 l 526 0 l 846 0 l 846 207 l 794 207 l 794 509 q 777 593 794 555 q 734 654 760 631 q 670 695 709 678 q 599 721 632 713 q 524 734 566 730 q 459 740 481 739 q 409 741 437 741 q 254 729 336 741 q 127 705 172 717 l 81 693 l 81 480 l 200 480 q 346 545 249 545 q 489 432 489 545 l 489 401 q 315 427 414 427 q 207 413 259 427 q 113 373 155 399 q 46 304 71 347 q 20 209 20 261 m 353 221 q 374 274 353 250 q 424 297 395 297 q 455 294 439 297 q 481 286 472 290 l 491 283 l 491 183 q 483 175 488 180 q 458 161 477 170 q 418 152 439 152 q 370 171 388 152 q 353 221 353 191 m 692 802 l 185 802 l 185 1029 l 692 1029 l 692 802 z "},"Ă":{"ha":1114,"x_min":3,"x_max":1108,"o":"m 804 1101 l 130 1101 l 130 861 l 273 861 l 157 401 q 131 313 138 330 q 56 249 109 262 q 3 243 33 243 l 3 0 l 463 0 l 463 243 l 406 243 q 384 268 391 243 q 376 311 376 292 q 378 333 377 326 q 383 348 378 340 q 397 355 388 355 l 583 355 q 629 243 629 355 l 547 243 l 548 0 l 1108 0 l 1108 243 l 1050 243 q 1032 252 1040 243 q 1021 271 1025 260 q 1012 303 1017 282 l 804 1101 m 415 524 l 491 869 l 570 524 l 415 524 m 557 1218 q 352 1286 422 1218 q 283 1474 283 1354 l 454 1474 q 484 1393 454 1422 q 557 1364 515 1364 q 629 1393 599 1364 q 660 1474 660 1422 l 831 1474 q 761 1286 831 1354 q 557 1218 690 1218 z "},"ă":{"ha":878,"x_min":20,"x_max":846,"o":"m 20 209 q 97 48 20 108 q 284 -12 174 -12 q 399 12 340 -12 q 492 81 458 37 l 526 0 l 846 0 l 846 207 l 794 207 l 794 509 q 777 593 794 555 q 734 654 760 631 q 670 695 709 678 q 599 721 632 713 q 524 734 566 730 q 459 740 481 739 q 409 741 437 741 q 254 729 336 741 q 127 705 172 717 l 81 693 l 81 480 l 200 480 q 346 545 249 545 q 489 432 489 545 l 489 401 q 315 427 414 427 q 207 413 259 427 q 113 373 155 399 q 46 304 71 347 q 20 209 20 261 m 353 221 q 374 274 353 250 q 424 297 395 297 q 455 294 439 297 q 481 286 472 290 l 491 283 l 491 183 q 483 175 488 180 q 458 161 477 170 q 418 152 439 152 q 370 171 388 152 q 353 221 353 191 m 440 844 q 236 912 305 844 q 166 1100 166 980 l 337 1100 q 368 1020 337 1048 q 440 991 398 991 q 513 1020 482 991 q 543 1100 543 1048 l 714 1100 q 644 912 714 981 q 440 844 574 844 z "},"Ą":{"ha":1114,"x_min":3,"x_max":1108,"o":"m 804 1101 l 130 1101 l 130 861 l 273 861 l 157 401 q 131 313 138 330 q 56 249 109 262 q 3 243 33 243 l 3 0 l 463 0 l 463 243 l 406 243 q 384 268 391 243 q 376 311 376 292 q 378 333 377 326 q 383 348 378 340 q 397 355 388 355 l 583 355 q 629 243 629 355 l 547 243 l 548 0 l 1108 0 l 1108 243 l 1050 243 q 1032 252 1040 243 q 1021 271 1025 260 q 1012 303 1017 282 l 804 1101 m 415 524 l 491 869 l 570 524 l 415 524 m 1076 0 q 1031 -82 1057 -41 q 993 -145 1005 -123 q 981 -184 981 -168 q 1012 -233 981 -214 q 1108 -252 1042 -252 l 1108 -329 l 1094 -329 q 917 -289 991 -329 q 844 -193 844 -249 q 847 -172 844 -182 q 861 -142 850 -161 q 881 -109 872 -123 q 914 -60 890 -96 q 954 0 938 -25 l 1076 0 z "},"ą":{"ha":878,"x_min":20,"x_max":846,"o":"m 20 209 q 97 48 20 108 q 284 -12 174 -12 q 399 12 340 -12 q 492 81 458 37 l 526 0 l 846 0 l 846 207 l 794 207 l 794 509 q 777 593 794 555 q 734 654 760 631 q 670 695 709 678 q 599 721 632 713 q 524 734 566 730 q 459 740 481 739 q 409 741 437 741 q 254 729 336 741 q 127 705 172 717 l 81 693 l 81 480 l 200 480 q 346 545 249 545 q 489 432 489 545 l 489 401 q 315 427 414 427 q 207 413 259 427 q 113 373 155 399 q 46 304 71 347 q 20 209 20 261 m 353 221 q 374 274 353 250 q 424 297 395 297 q 455 294 439 297 q 481 286 472 290 l 491 283 l 491 183 q 483 175 488 180 q 458 161 477 170 q 418 152 439 152 q 370 171 388 152 q 353 221 353 191 m 814 0 q 768 -82 794 -41 q 731 -145 743 -123 q 719 -184 719 -168 q 749 -233 719 -214 q 846 -252 780 -252 l 846 -329 l 831 -329 q 655 -289 728 -329 q 581 -193 581 -249 q 585 -172 581 -182 q 599 -142 588 -161 q 618 -109 610 -123 q 651 -60 627 -96 q 692 0 675 -25 l 814 0 z "},"Ć":{"ha":1043,"x_min":39,"x_max":987,"o":"m 987 415 l 783 415 q 778 351 781 365 q 726 265 768 297 q 629 233 684 233 q 557 248 588 233 q 508 288 526 262 q 479 345 491 313 q 465 413 467 378 q 460 484 462 448 q 460 550 458 519 q 460 580 460 570 q 460 634 460 612 q 465 690 461 656 q 474 746 468 723 q 492 795 480 770 q 521 838 505 821 q 563 864 538 854 q 621 875 589 875 q 696 856 663 875 q 746 807 728 838 q 772 742 764 777 q 779 672 780 708 l 981 672 l 981 1101 l 770 1101 l 747 1053 q 670 1098 716 1082 q 589 1117 625 1114 q 503 1120 553 1120 q 328 1087 407 1120 q 197 998 250 1054 q 107 868 144 943 q 55 712 71 793 q 39 545 39 631 q 97 249 39 374 q 273 52 155 123 q 559 -20 391 -20 q 700 -3 630 -20 q 820 36 770 13 q 909 81 869 58 q 968 121 948 104 l 987 137 l 987 415 m 745 1352 l 369 1140 l 298 1236 l 620 1532 l 745 1352 z "},"ć":{"ha":753,"x_min":29,"x_max":704,"o":"m 29 370 q 79 162 29 250 q 213 31 129 74 q 404 -12 296 -12 q 573 13 489 -12 q 704 84 657 37 l 704 288 l 541 288 q 539 279 541 285 q 533 257 538 273 q 518 231 527 242 q 493 210 510 219 q 455 200 477 200 q 405 214 426 200 q 372 250 383 227 q 355 296 360 272 q 350 348 350 321 q 381 484 350 439 q 455 528 412 528 q 514 499 490 528 q 538 426 538 471 l 703 426 l 703 727 l 584 727 l 556 675 q 381 741 474 741 q 235 710 302 741 q 123 629 168 680 q 54 511 79 578 q 29 370 29 444 m 600 979 l 224 766 l 153 862 l 475 1158 l 600 979 z "},"Ĉ":{"ha":1043,"x_min":39,"x_max":987,"o":"m 987 415 l 783 415 q 778 351 781 365 q 726 265 768 297 q 629 233 684 233 q 557 248 588 233 q 508 288 526 262 q 479 345 491 313 q 465 413 467 378 q 460 484 462 448 q 460 550 458 519 q 460 580 460 570 q 460 634 460 612 q 465 690 461 656 q 474 746 468 723 q 492 795 480 770 q 521 838 505 821 q 563 864 538 854 q 621 875 589 875 q 696 856 663 875 q 746 807 728 838 q 772 742 764 777 q 779 672 780 708 l 981 672 l 981 1101 l 770 1101 l 747 1053 q 670 1098 716 1082 q 589 1117 625 1114 q 503 1120 553 1120 q 328 1087 407 1120 q 197 998 250 1054 q 107 868 144 943 q 55 712 71 793 q 39 545 39 631 q 97 249 39 374 q 273 52 155 123 q 559 -20 391 -20 q 700 -3 630 -20 q 820 36 770 13 q 909 81 869 58 q 968 121 948 104 l 987 137 l 987 415 m 613 1459 l 799 1204 l 694 1135 l 522 1301 l 349 1135 l 244 1204 l 429 1459 l 613 1459 z "},"ĉ":{"ha":753,"x_min":29,"x_max":704,"o":"m 29 370 q 79 162 29 250 q 213 31 129 74 q 404 -12 296 -12 q 573 13 489 -12 q 704 84 657 37 l 704 288 l 541 288 q 539 279 541 285 q 533 257 538 273 q 518 231 527 242 q 493 210 510 219 q 455 200 477 200 q 405 214 426 200 q 372 250 383 227 q 355 296 360 272 q 350 348 350 321 q 381 484 350 439 q 455 528 412 528 q 514 499 490 528 q 538 426 538 471 l 703 426 l 703 727 l 584 727 l 556 675 q 381 741 474 741 q 235 710 302 741 q 123 629 168 680 q 54 511 79 578 q 29 370 29 444 m 468 1085 l 654 830 l 549 762 l 376 928 l 203 762 l 99 830 l 284 1086 l 468 1085 z "},"Ċ":{"ha":1043,"x_min":39,"x_max":987,"o":"m 987 415 l 783 415 q 778 351 781 365 q 726 265 768 297 q 629 233 684 233 q 557 248 588 233 q 508 288 526 262 q 479 345 491 313 q 465 413 467 378 q 460 484 462 448 q 460 550 458 519 q 460 580 460 570 q 460 634 460 612 q 465 690 461 656 q 474 746 468 723 q 492 795 480 770 q 521 838 505 821 q 563 864 538 854 q 621 875 589 875 q 696 856 663 875 q 746 807 728 838 q 772 742 764 777 q 779 672 780 708 l 981 672 l 981 1101 l 770 1101 l 747 1053 q 670 1098 716 1082 q 589 1117 625 1114 q 503 1120 553 1120 q 328 1087 407 1120 q 197 998 250 1054 q 107 868 144 943 q 55 712 71 793 q 39 545 39 631 q 97 249 39 374 q 273 52 155 123 q 559 -20 391 -20 q 700 -3 630 -20 q 820 36 770 13 q 909 81 869 58 q 968 121 948 104 l 987 137 l 987 415 m 518 1150 q 384 1196 437 1150 q 330 1320 330 1242 q 383 1441 330 1396 q 518 1486 435 1486 q 659 1441 604 1486 q 713 1320 713 1396 q 657 1196 713 1242 q 518 1150 601 1150 z "},"ċ":{"ha":753,"x_min":29,"x_max":704,"o":"m 29 370 q 79 162 29 250 q 213 31 129 74 q 404 -12 296 -12 q 573 13 489 -12 q 704 84 657 37 l 704 288 l 541 288 q 539 279 541 285 q 533 257 538 273 q 518 231 527 242 q 493 210 510 219 q 455 200 477 200 q 405 214 426 200 q 372 250 383 227 q 355 296 360 272 q 350 348 350 321 q 381 484 350 439 q 455 528 412 528 q 514 499 490 528 q 538 426 538 471 l 703 426 l 703 727 l 584 727 l 556 675 q 381 741 474 741 q 235 710 302 741 q 123 629 168 680 q 54 511 79 578 q 29 370 29 444 m 374 777 q 240 822 294 777 q 186 946 186 868 q 239 1067 186 1023 q 374 1112 292 1112 q 515 1067 460 1112 q 569 946 569 1023 q 513 822 569 868 q 374 777 457 777 z "},"Č":{"ha":1043,"x_min":39,"x_max":987,"o":"m 987 415 l 783 415 q 778 351 781 365 q 726 265 768 297 q 629 233 684 233 q 557 248 588 233 q 508 288 526 262 q 479 345 491 313 q 465 413 467 378 q 460 484 462 448 q 460 550 458 519 q 460 580 460 570 q 460 634 460 612 q 465 690 461 656 q 474 746 468 723 q 492 795 480 770 q 521 838 505 821 q 563 864 538 854 q 621 875 589 875 q 696 856 663 875 q 746 807 728 838 q 772 742 764 777 q 779 672 780 708 l 981 672 l 981 1101 l 770 1101 l 747 1053 q 670 1098 716 1082 q 589 1117 625 1114 q 503 1120 553 1120 q 328 1087 407 1120 q 197 998 250 1054 q 107 868 144 943 q 55 712 71 793 q 39 545 39 631 q 97 249 39 374 q 273 52 155 123 q 559 -20 391 -20 q 700 -3 630 -20 q 820 36 770 13 q 909 81 869 58 q 968 121 948 104 l 987 137 l 987 415 m 429 1153 l 244 1409 l 349 1477 l 522 1311 l 694 1477 l 799 1409 l 613 1154 l 429 1153 z "},"č":{"ha":753,"x_min":29,"x_max":704,"o":"m 29 370 q 79 162 29 250 q 213 31 129 74 q 404 -12 296 -12 q 573 13 489 -12 q 704 84 657 37 l 704 288 l 541 288 q 539 279 541 285 q 533 257 538 273 q 518 231 527 242 q 493 210 510 219 q 455 200 477 200 q 405 214 426 200 q 372 250 383 227 q 355 296 360 272 q 350 348 350 321 q 381 484 350 439 q 455 528 412 528 q 514 499 490 528 q 538 426 538 471 l 703 426 l 703 727 l 584 727 l 556 675 q 381 741 474 741 q 235 710 302 741 q 123 629 168 680 q 54 511 79 578 q 29 370 29 444 m 284 779 l 99 1035 l 203 1103 l 376 937 l 549 1103 l 654 1035 l 468 780 l 284 779 z "},"Ď":{"ha":1221,"x_min":62,"x_max":1183,"o":"m 66 0 l 610 0 q 858 45 747 0 q 1038 168 968 91 q 1145 344 1108 245 q 1183 553 1183 443 q 1044 961 1183 822 q 625 1101 905 1101 l 62 1101 l 62 862 l 177 862 l 177 243 l 66 243 l 66 0 m 548 243 l 548 862 l 580 862 q 667 843 630 862 q 726 794 705 823 q 759 722 747 764 q 776 640 772 679 q 780 554 780 601 q 775 468 780 509 q 755 385 770 427 q 719 312 741 342 q 659 263 696 282 q 572 243 621 243 l 548 243 m 518 1153 l 333 1409 l 437 1477 l 610 1311 l 783 1477 l 888 1409 l 702 1154 l 518 1153 z "},"ď":{"ha":1430,"x_min":29,"x_max":1399,"o":"m 929 207 l 877 207 l 876 1112 l 479 1112 l 479 905 l 541 905 l 541 651 q 447 719 494 698 q 338 739 400 739 q 209 707 268 739 q 111 623 149 675 q 51 506 72 571 q 29 373 29 441 q 49 235 29 302 q 106 112 68 168 q 205 21 143 56 q 343 -13 267 -13 q 456 14 404 -12 q 543 87 509 41 l 543 0 l 929 0 l 929 207 m 543 281 q 539 274 542 279 q 528 259 537 270 q 510 239 519 248 q 485 223 500 231 q 452 216 469 216 q 406 228 425 216 q 376 256 387 239 q 358 295 365 272 q 350 338 352 319 q 349 378 349 357 q 378 474 349 441 q 452 508 407 508 q 499 496 476 508 q 533 473 522 485 l 543 462 l 543 281 m 1037 701 q 1090 706 1067 701 q 1126 721 1112 710 q 1148 742 1140 731 q 1160 773 1156 753 q 1164 809 1164 793 q 1165 852 1165 824 l 1037 852 l 1037 1101 l 1383 1101 q 1399 913 1399 996 q 1311 636 1399 724 q 1037 549 1223 549 l 1037 701 z "},"Đ":{"ha":1221,"x_min":62,"x_max":1183,"o":"m 66 0 l 610 0 q 858 45 747 0 q 1038 168 968 91 q 1145 344 1108 245 q 1183 553 1183 443 q 1044 961 1183 822 q 625 1101 905 1101 l 62 1101 l 62 862 l 177 862 l 177 243 l 66 243 l 66 0 m 548 243 l 548 862 l 580 862 q 667 843 630 862 q 726 794 705 823 q 759 722 747 764 q 776 640 772 679 q 780 554 780 601 q 775 468 780 509 q 755 385 770 427 q 719 312 741 342 q 659 263 696 282 q 572 243 621 243 l 548 243 z "},"đ":{"ha":978,"x_min":29,"x_max":929,"o":"m 929 0 l 543 0 l 543 87 q 456 14 509 41 q 343 -13 404 -12 q 205 21 267 -13 q 106 112 143 56 q 49 235 68 168 q 29 373 29 302 q 51 506 29 441 q 111 623 72 571 q 209 707 149 675 q 338 739 268 739 q 447 719 400 739 q 541 651 494 698 l 541 771 l 469 771 l 469 865 l 541 865 l 541 905 l 479 905 l 479 1112 l 876 1112 l 876 865 l 928 865 l 928 771 l 876 771 l 877 207 l 929 207 l 929 0 m 543 462 l 533 473 q 499 496 522 485 q 452 508 476 508 q 378 474 407 508 q 349 378 349 441 q 350 338 349 357 q 358 295 352 319 q 376 256 365 272 q 406 228 387 239 q 452 216 425 216 q 485 223 469 216 q 510 239 500 231 q 528 259 519 248 q 539 274 537 270 q 543 281 542 279 l 543 462 z "},"Ē":{"ha":1010,"x_min":67,"x_max":935,"o":"m 745 656 l 694 861 l 549 861 l 549 670 l 688 670 l 688 431 l 549 431 l 549 243 l 698 243 l 707 285 l 749 466 l 935 466 l 935 0 l 67 0 l 67 243 l 174 243 l 174 861 l 67 861 l 67 1101 l 927 1101 l 927 657 l 745 656 m 759 1176 l 252 1176 l 252 1403 l 759 1403 l 759 1176 z "},"ē":{"ha":830,"x_min":27,"x_max":799,"o":"m 414 -12 q 609 10 523 -12 q 785 86 696 33 l 785 238 l 577 238 q 553 174 576 198 q 482 151 531 151 q 394 196 427 151 q 362 309 362 241 l 770 309 q 786 306 783 304 q 795 328 789 309 q 799 376 799 353 q 756 559 799 478 q 628 691 714 641 q 425 741 542 741 q 212 690 303 741 q 74 552 121 640 q 27 353 27 465 q 77 170 27 254 q 215 37 126 87 q 414 -12 304 -12 m 363 445 q 382 519 363 486 q 437 552 400 552 q 478 540 462 552 q 500 506 494 528 q 508 467 507 484 q 509 425 510 449 l 363 425 l 363 445 m 669 802 l 161 802 l 161 1029 l 669 1029 l 669 802 z "},"Ĕ":{"ha":1010,"x_min":67,"x_max":935,"o":"m 745 656 l 694 861 l 549 861 l 549 670 l 688 670 l 688 431 l 549 431 l 549 243 l 698 243 l 707 285 l 749 466 l 935 466 l 935 0 l 67 0 l 67 243 l 174 243 l 174 861 l 67 861 l 67 1101 l 927 1101 l 927 657 l 745 656 m 507 1218 q 302 1286 372 1218 q 233 1474 233 1354 l 404 1474 q 434 1393 404 1422 q 507 1364 465 1364 q 579 1393 549 1364 q 610 1474 610 1422 l 781 1474 q 710 1286 781 1354 q 507 1218 640 1218 z "},"ĕ":{"ha":830,"x_min":27,"x_max":799,"o":"m 414 -12 q 609 10 523 -12 q 785 86 696 33 l 785 238 l 577 238 q 553 174 576 198 q 482 151 531 151 q 394 196 427 151 q 362 309 362 241 l 770 309 q 786 306 783 304 q 795 328 789 309 q 799 376 799 353 q 756 559 799 478 q 628 691 714 641 q 425 741 542 741 q 212 690 303 741 q 74 552 121 640 q 27 353 27 465 q 77 170 27 254 q 215 37 126 87 q 414 -12 304 -12 m 363 445 q 382 519 363 486 q 437 552 400 552 q 478 540 462 552 q 500 506 494 528 q 508 467 507 484 q 509 425 510 449 l 363 425 l 363 445 m 416 844 q 212 912 281 844 q 142 1100 142 980 l 313 1100 q 344 1020 313 1048 q 416 991 374 991 q 489 1020 458 991 q 519 1100 519 1048 l 690 1100 q 620 912 690 981 q 416 844 550 844 z "},"Ė":{"ha":1010,"x_min":67,"x_max":935,"o":"m 745 656 l 694 861 l 549 861 l 549 670 l 688 670 l 688 431 l 549 431 l 549 243 l 698 243 l 707 285 l 749 466 l 935 466 l 935 0 l 67 0 l 67 243 l 174 243 l 174 861 l 67 861 l 67 1101 l 927 1101 l 927 657 l 745 656 m 502 1150 q 368 1196 421 1150 q 314 1320 314 1242 q 367 1441 314 1396 q 502 1486 419 1486 q 642 1441 588 1486 q 696 1320 696 1396 q 641 1196 696 1242 q 502 1150 585 1150 z "},"ė":{"ha":830,"x_min":27,"x_max":799,"o":"m 414 -12 q 609 10 523 -12 q 785 86 696 33 l 785 238 l 577 238 q 553 174 576 198 q 482 151 531 151 q 394 196 427 151 q 362 309 362 241 l 770 309 q 786 306 783 304 q 795 328 789 309 q 799 376 799 353 q 756 559 799 478 q 628 691 714 641 q 425 741 542 741 q 212 690 303 741 q 74 552 121 640 q 27 353 27 465 q 77 170 27 254 q 215 37 126 87 q 414 -12 304 -12 m 363 445 q 382 519 363 486 q 437 552 400 552 q 478 540 462 552 q 500 506 494 528 q 508 467 507 484 q 509 425 510 449 l 363 425 l 363 445 m 412 777 q 277 822 331 777 q 224 946 224 868 q 276 1067 224 1023 q 412 1112 329 1112 q 552 1067 498 1112 q 606 946 606 1023 q 550 822 606 868 q 412 777 494 777 z "},"Ę":{"ha":1010,"x_min":67,"x_max":935,"o":"m 745 656 l 694 861 l 549 861 l 549 670 l 688 670 l 688 431 l 549 431 l 549 243 l 698 243 l 707 285 l 749 466 l 935 466 l 935 0 l 67 0 l 67 243 l 174 243 l 174 861 l 67 861 l 67 1101 l 927 1101 l 927 657 l 745 656 m 903 0 q 857 -82 883 -41 q 820 -145 831 -123 q 808 -184 808 -168 q 838 -233 808 -214 q 935 -252 869 -252 l 935 -329 l 920 -329 q 744 -289 817 -329 q 670 -193 670 -249 q 673 -172 670 -182 q 688 -142 677 -161 q 707 -109 699 -123 q 740 -60 716 -96 q 781 0 764 -25 l 903 0 z "},"ę":{"ha":830,"x_min":27,"x_max":799,"o":"m 414 -12 q 609 10 523 -12 q 785 86 696 33 l 785 238 l 577 238 q 553 174 576 198 q 482 151 531 151 q 394 196 427 151 q 362 309 362 241 l 770 309 q 786 306 783 304 q 795 328 789 309 q 799 376 799 353 q 756 559 799 478 q 628 691 714 641 q 425 741 542 741 q 212 690 303 741 q 74 552 121 640 q 27 353 27 465 q 77 170 27 254 q 215 37 126 87 q 414 -12 304 -12 m 363 445 q 382 519 363 486 q 437 552 400 552 q 478 540 462 552 q 500 506 494 528 q 508 467 507 484 q 509 425 510 449 l 363 425 l 363 445 m 673 34 q 628 -48 654 -7 q 590 -112 602 -90 q 578 -150 578 -134 q 609 -199 578 -180 q 705 -218 640 -218 l 705 -295 l 691 -295 q 514 -255 588 -295 q 441 -159 441 -215 q 444 -138 441 -149 q 458 -108 448 -127 q 478 -75 469 -89 q 511 -26 487 -62 q 551 34 535 9 l 673 34 z "},"Ě":{"ha":1010,"x_min":67,"x_max":935,"o":"m 745 656 l 694 861 l 549 861 l 549 670 l 688 670 l 688 431 l 549 431 l 549 243 l 698 243 l 707 285 l 749 466 l 935 466 l 935 0 l 67 0 l 67 243 l 174 243 l 174 861 l 67 861 l 67 1101 l 927 1101 l 927 657 l 745 656 m 413 1153 l 228 1409 l 332 1477 l 505 1311 l 678 1477 l 783 1409 l 597 1154 l 413 1153 z "},"ě":{"ha":830,"x_min":27,"x_max":799,"o":"m 414 -12 q 609 10 523 -12 q 785 86 696 33 l 785 238 l 577 238 q 553 174 576 198 q 482 151 531 151 q 394 196 427 151 q 362 309 362 241 l 770 309 q 786 306 783 304 q 795 328 789 309 q 799 376 799 353 q 756 559 799 478 q 628 691 714 641 q 425 741 542 741 q 212 690 303 741 q 74 552 121 640 q 27 353 27 465 q 77 170 27 254 q 215 37 126 87 q 414 -12 304 -12 m 363 445 q 382 519 363 486 q 437 552 400 552 q 478 540 462 552 q 500 506 494 528 q 508 467 507 484 q 509 425 510 449 l 363 425 l 363 445 m 323 779 l 138 1035 l 242 1103 l 415 937 l 588 1103 l 692 1035 l 507 780 l 323 779 z "},"Ĝ":{"ha":1166,"x_min":36,"x_max":1099,"o":"m 911 0 l 1099 0 l 1099 585 l 675 585 l 675 378 l 783 378 q 789 323 789 358 q 750 244 789 273 q 660 216 711 216 q 446 515 446 216 q 449 593 446 557 q 459 672 452 629 q 482 748 467 715 q 520 809 497 781 q 580 853 543 838 q 664 868 616 868 q 739 856 707 868 q 790 824 771 843 q 823 772 810 804 q 843 711 837 741 q 854 641 850 682 l 1050 641 l 1050 1101 l 836 1101 l 806 1059 q 581 1120 720 1120 q 346 1074 451 1120 q 174 948 241 1028 q 72 763 107 868 q 36 537 36 658 q 65 343 36 433 q 146 188 94 254 q 270 75 198 121 q 429 4 342 28 q 615 -20 517 -20 q 883 68 785 -20 l 911 0 m 675 1459 l 861 1204 l 756 1135 l 583 1301 l 410 1135 l 306 1204 l 491 1459 l 675 1459 z "},"ĝ":{"ha":959,"x_min":31,"x_max":912,"o":"m 382 -264 q 853 92 853 -264 l 853 516 l 912 516 l 912 727 l 605 727 l 583 676 q 362 739 465 739 q 191 686 268 739 q 72 549 114 633 q 31 372 31 465 q 52 239 31 302 q 113 126 73 176 q 216 48 153 77 q 354 19 278 19 q 458 35 406 19 q 549 79 509 51 q 537 8 549 36 q 500 -34 526 -20 q 444 -54 475 -49 q 366 -59 413 -59 q 119 -13 245 -59 l 119 -222 q 147 -234 128 -227 q 234 -252 165 -241 q 382 -264 302 -264 m 358 361 q 366 435 358 402 q 395 492 374 468 q 451 515 417 515 q 507 489 484 515 q 539 428 530 463 q 548 355 548 393 q 543 304 548 330 q 528 256 538 279 q 499 218 517 233 q 456 203 480 203 q 397 228 420 203 q 366 287 374 253 q 358 361 358 320 m 571 1085 l 757 830 l 652 762 l 479 928 l 307 762 l 202 830 l 387 1086 l 571 1085 z "},"Ğ":{"ha":1166,"x_min":36,"x_max":1099,"o":"m 911 0 l 1099 0 l 1099 585 l 675 585 l 675 378 l 783 378 q 789 323 789 358 q 750 244 789 273 q 660 216 711 216 q 446 515 446 216 q 449 593 446 557 q 459 672 452 629 q 482 748 467 715 q 520 809 497 781 q 580 853 543 838 q 664 868 616 868 q 739 856 707 868 q 790 824 771 843 q 823 772 810 804 q 843 711 837 741 q 854 641 850 682 l 1050 641 l 1050 1101 l 836 1101 l 806 1059 q 581 1120 720 1120 q 346 1074 451 1120 q 174 948 241 1028 q 72 763 107 868 q 36 537 36 658 q 65 343 36 433 q 146 188 94 254 q 270 75 198 121 q 429 4 342 28 q 615 -20 517 -20 q 883 68 785 -20 l 911 0 m 583 1218 q 379 1286 448 1218 q 309 1474 309 1354 l 480 1474 q 511 1393 480 1422 q 583 1364 541 1364 q 656 1393 625 1364 q 686 1474 686 1422 l 857 1474 q 787 1286 857 1354 q 583 1218 717 1218 z "},"ğ":{"ha":959,"x_min":31,"x_max":912,"o":"m 382 -264 q 853 92 853 -264 l 853 516 l 912 516 l 912 727 l 605 727 l 583 676 q 362 739 465 739 q 191 686 268 739 q 72 549 114 633 q 31 372 31 465 q 52 239 31 302 q 113 126 73 176 q 216 48 153 77 q 354 19 278 19 q 458 35 406 19 q 549 79 509 51 q 537 8 549 36 q 500 -34 526 -20 q 444 -54 475 -49 q 366 -59 413 -59 q 119 -13 245 -59 l 119 -222 q 147 -234 128 -227 q 234 -252 165 -241 q 382 -264 302 -264 m 358 361 q 366 435 358 402 q 395 492 374 468 q 451 515 417 515 q 507 489 484 515 q 539 428 530 463 q 548 355 548 393 q 543 304 548 330 q 528 256 538 279 q 499 218 517 233 q 456 203 480 203 q 397 228 420 203 q 366 287 374 253 q 358 361 358 320 m 481 844 q 276 912 346 844 q 207 1100 207 980 l 378 1100 q 408 1020 378 1048 q 481 991 439 991 q 553 1020 523 991 q 584 1100 584 1048 l 755 1100 q 685 912 755 981 q 481 844 614 844 z "},"Ġ":{"ha":1166,"x_min":36,"x_max":1099,"o":"m 911 0 l 1099 0 l 1099 585 l 675 585 l 675 378 l 783 378 q 789 323 789 358 q 750 244 789 273 q 660 216 711 216 q 446 515 446 216 q 449 593 446 557 q 459 672 452 629 q 482 748 467 715 q 520 809 497 781 q 580 853 543 838 q 664 868 616 868 q 739 856 707 868 q 790 824 771 843 q 823 772 810 804 q 843 711 837 741 q 854 641 850 682 l 1050 641 l 1050 1101 l 836 1101 l 806 1059 q 581 1120 720 1120 q 346 1074 451 1120 q 174 948 241 1028 q 72 763 107 868 q 36 537 36 658 q 65 343 36 433 q 146 188 94 254 q 270 75 198 121 q 429 4 342 28 q 615 -20 517 -20 q 883 68 785 -20 l 911 0 m 580 1150 q 446 1196 499 1150 q 392 1320 392 1242 q 445 1441 392 1396 q 580 1486 497 1486 q 720 1441 666 1486 q 774 1320 774 1396 q 719 1196 774 1242 q 580 1150 663 1150 z "},"ġ":{"ha":959,"x_min":31,"x_max":912,"o":"m 382 -264 q 853 92 853 -264 l 853 516 l 912 516 l 912 727 l 605 727 l 583 676 q 362 739 465 739 q 191 686 268 739 q 72 549 114 633 q 31 372 31 465 q 52 239 31 302 q 113 126 73 176 q 216 48 153 77 q 354 19 278 19 q 458 35 406 19 q 549 79 509 51 q 537 8 549 36 q 500 -34 526 -20 q 444 -54 475 -49 q 366 -59 413 -59 q 119 -13 245 -59 l 119 -222 q 147 -234 128 -227 q 234 -252 165 -241 q 382 -264 302 -264 m 358 361 q 366 435 358 402 q 395 492 374 468 q 451 515 417 515 q 507 489 484 515 q 539 428 530 463 q 548 355 548 393 q 543 304 548 330 q 528 256 538 279 q 499 218 517 233 q 456 203 480 203 q 397 228 420 203 q 366 287 374 253 q 358 361 358 320 m 476 777 q 342 822 395 777 q 288 946 288 868 q 341 1067 288 1023 q 476 1112 393 1112 q 616 1067 562 1112 q 671 946 671 1023 q 615 822 671 868 q 476 777 559 777 z "},"Ģ":{"ha":1166,"x_min":36,"x_max":1099,"o":"m 911 0 l 1099 0 l 1099 585 l 675 585 l 675 378 l 783 378 q 789 323 789 358 q 750 244 789 273 q 660 216 711 216 q 446 515 446 216 q 449 593 446 557 q 459 672 452 629 q 482 748 467 715 q 520 809 497 781 q 580 853 543 838 q 664 868 616 868 q 739 856 707 868 q 790 824 771 843 q 823 772 810 804 q 843 711 837 741 q 854 641 850 682 l 1050 641 l 1050 1101 l 836 1101 l 806 1059 q 581 1120 720 1120 q 346 1074 451 1120 q 174 948 241 1028 q 72 763 107 868 q 36 537 36 658 q 65 343 36 433 q 146 188 94 254 q 270 75 198 121 q 429 4 342 28 q 615 -20 517 -20 q 883 68 785 -20 l 911 0 m 458 -473 q 511 -469 489 -473 q 548 -454 534 -465 q 570 -433 562 -444 q 582 -401 578 -422 q 586 -366 585 -381 q 587 -322 587 -351 l 458 -322 l 458 -74 l 804 -74 q 821 -262 821 -178 q 732 -538 821 -450 q 458 -626 644 -626 l 458 -473 z "},"ģ":{"ha":959,"x_min":31,"x_max":912,"o":"m 382 -264 q 853 92 853 -264 l 853 516 l 912 516 l 912 727 l 605 727 l 583 676 q 362 739 465 739 q 191 686 268 739 q 72 549 114 633 q 31 372 31 465 q 52 239 31 302 q 113 126 73 176 q 216 48 153 77 q 354 19 278 19 q 458 35 406 19 q 549 79 509 51 q 537 8 549 36 q 500 -34 526 -20 q 444 -54 475 -49 q 366 -59 413 -59 q 119 -13 245 -59 l 119 -222 q 147 -234 128 -227 q 234 -252 165 -241 q 382 -264 302 -264 m 358 361 q 366 435 358 402 q 395 492 374 468 q 451 515 417 515 q 507 489 484 515 q 539 428 530 463 q 548 355 548 393 q 543 304 548 330 q 528 256 538 279 q 499 218 517 233 q 456 203 480 203 q 397 228 420 203 q 366 287 374 253 q 358 361 358 320 m 661 1342 q 608 1338 630 1342 q 571 1323 585 1333 q 549 1301 557 1312 q 537 1270 541 1291 q 533 1235 534 1250 q 532 1191 532 1219 l 661 1191 l 661 943 l 315 943 q 298 1131 298 1047 q 387 1407 298 1319 q 661 1495 475 1495 l 661 1342 z "},"Ĥ":{"ha":1294,"x_min":71,"x_max":1223,"o":"m 71 243 l 171 243 l 171 861 l 71 861 l 71 1101 l 620 1101 l 620 861 l 555 861 l 555 669 l 738 669 l 738 861 l 678 861 l 678 1101 l 1219 1101 l 1219 861 l 1124 861 l 1124 243 l 1223 243 l 1223 0 l 681 0 l 681 243 l 738 243 l 738 431 l 555 431 l 555 243 l 621 243 l 620 0 l 71 0 l 71 243 m 739 1459 l 924 1204 l 820 1135 l 647 1301 l 474 1135 l 370 1204 l 555 1459 l 739 1459 z "},"ĥ":{"ha":984,"x_min":45,"x_max":952,"o":"m 48 0 l 491 0 l 491 207 l 437 207 l 437 425 q 505 505 437 505 q 562 420 561 505 l 562 0 l 952 0 l 952 207 l 894 207 l 894 476 q 830 672 894 604 q 651 739 766 739 q 605 735 627 739 q 568 727 583 731 q 534 711 553 722 q 507 693 515 699 q 480 670 498 687 q 457 647 463 652 q 434 621 452 642 l 434 1112 l 45 1112 l 45 903 l 102 903 l 102 207 l 49 207 l 48 0 m 542 1463 l 728 1208 l 623 1139 l 450 1305 l 277 1139 l 173 1208 l 358 1463 l 542 1463 z "},"Ħ":{"ha":1294,"x_min":71,"x_max":1223,"o":"m 71 243 l 171 243 l 171 727 l 71 727 l 71 795 l 171 795 l 171 861 l 71 861 l 71 1101 l 620 1101 l 620 861 l 555 861 l 555 795 l 738 795 l 738 861 l 678 861 l 678 1101 l 1219 1101 l 1219 861 l 1124 861 l 1124 795 l 1219 795 l 1219 727 l 1124 727 l 1124 243 l 1223 243 l 1223 0 l 681 0 l 681 243 l 738 243 l 738 431 l 555 431 l 555 243 l 621 243 l 620 0 l 71 0 l 71 243 m 738 669 l 738 727 l 555 727 l 555 669 l 738 669 z "},"ħ":{"ha":984,"x_min":45,"x_max":952,"o":"m 49 207 l 102 207 l 102 768 l 45 768 l 45 863 l 102 863 l 102 903 l 45 903 l 45 1112 l 434 1112 l 434 863 l 553 863 l 553 768 l 434 768 l 434 621 q 457 647 452 642 q 480 670 463 652 q 507 693 498 687 q 534 711 515 699 q 568 727 553 722 q 605 735 583 731 q 651 739 627 739 q 830 672 766 739 q 894 476 894 604 l 894 207 l 952 207 l 952 0 l 562 0 l 562 420 q 505 505 561 505 q 437 425 437 505 l 437 207 l 491 207 l 491 0 l 48 0 l 49 207 z "},"Ĩ":{"ha":730,"x_min":64,"x_max":669,"o":"m 659 861 l 559 861 l 559 243 l 655 243 l 655 0 l 71 0 l 71 243 l 170 243 l 170 861 l 73 861 l 73 1101 l 659 1101 l 659 861 m 484 1407 q 538 1394 514 1407 q 581 1357 563 1381 q 611 1311 598 1334 q 641 1257 625 1288 q 669 1209 656 1227 l 592 1159 q 524 1219 543 1206 q 492 1232 505 1232 q 420 1212 462 1232 q 333 1171 378 1192 q 250 1150 288 1150 q 195 1163 220 1150 q 153 1199 171 1175 q 122 1245 135 1222 q 93 1298 109 1267 q 64 1347 77 1329 l 142 1398 q 212 1335 193 1348 q 243 1322 231 1322 q 300 1335 268 1322 q 358 1364 332 1348 q 419 1393 385 1380 q 484 1407 454 1407 z "},"ĩ":{"ha":552,"x_min":-24,"x_max":580,"o":"m 448 203 l 505 203 l 505 0 l 66 0 l 66 203 l 122 203 l 122 507 l 62 507 l 62 727 l 448 727 l 448 203 m 395 1033 q 450 1020 425 1033 q 492 984 474 1007 q 523 937 509 960 q 552 884 536 914 q 580 836 568 853 l 503 785 q 435 846 454 833 q 404 859 416 859 q 331 838 373 859 q 244 797 289 818 q 161 777 199 777 q 106 789 131 777 q 64 825 82 802 q 33 871 46 848 q 4 925 20 894 q -24 973 -12 956 l 53 1024 q 123 961 104 975 q 155 948 142 948 q 211 961 179 948 q 269 990 243 975 q 330 1020 296 1006 q 395 1033 365 1033 z "},"Ī":{"ha":730,"x_min":71,"x_max":659,"o":"m 659 861 l 559 861 l 559 243 l 655 243 l 655 0 l 71 0 l 71 243 l 170 243 l 170 861 l 73 861 l 73 1101 l 659 1101 l 659 861 m 620 1176 l 113 1176 l 113 1403 l 620 1403 l 620 1176 z "},"ī":{"ha":552,"x_min":24,"x_max":531,"o":"m 448 203 l 505 203 l 505 0 l 66 0 l 66 203 l 122 203 l 122 507 l 62 507 l 62 727 l 448 727 l 448 203 m 531 802 l 24 802 l 24 1029 l 531 1029 l 531 802 z "},"Ĭ":{"ha":730,"x_min":71,"x_max":659,"o":"m 659 861 l 559 861 l 559 243 l 655 243 l 655 0 l 71 0 l 71 243 l 170 243 l 170 861 l 73 861 l 73 1101 l 659 1101 l 659 861 m 366 1218 q 162 1286 231 1218 q 92 1474 92 1354 l 263 1474 q 294 1393 263 1422 q 366 1364 324 1364 q 439 1393 408 1364 q 469 1474 469 1422 l 640 1474 q 570 1286 640 1354 q 366 1218 500 1218 z "},"ĭ":{"ha":552,"x_min":3,"x_max":551,"o":"m 448 203 l 505 203 l 505 0 l 66 0 l 66 203 l 122 203 l 122 507 l 62 507 l 62 727 l 448 727 l 448 203 m 277 844 q 73 912 142 844 q 3 1100 3 980 l 174 1100 q 205 1020 174 1048 q 277 991 235 991 q 350 1020 319 991 q 380 1100 380 1048 l 551 1100 q 481 912 551 981 q 277 844 411 844 z "},"Į":{"ha":730,"x_min":71,"x_max":659,"o":"m 659 861 l 559 861 l 559 243 l 655 243 l 655 0 l 71 0 l 71 243 l 170 243 l 170 861 l 73 861 l 73 1101 l 659 1101 l 659 861 m 627 0 q 582 -82 608 -41 q 544 -145 556 -123 q 532 -184 532 -168 q 563 -233 532 -214 q 659 -252 593 -252 l 659 -329 l 645 -329 q 468 -289 542 -329 q 395 -193 395 -249 q 398 -172 395 -182 q 412 -142 401 -161 q 432 -109 423 -123 q 465 -60 441 -96 q 505 0 489 -25 l 627 0 z "},"į":{"ha":552,"x_min":62,"x_max":505,"o":"m 448 727 l 62 727 l 62 516 l 122 516 l 122 207 l 66 207 l 66 0 l 505 0 l 505 207 l 448 207 l 448 727 m 258 770 q 123 815 177 770 q 70 939 70 861 q 122 1061 70 1016 q 258 1105 175 1105 q 398 1061 344 1105 q 452 939 452 1016 q 396 815 452 861 q 258 770 340 770 m 378 0 q 332 -82 358 -41 q 295 -145 307 -123 q 283 -184 283 -168 q 313 -233 283 -214 q 410 -252 344 -252 l 410 -329 l 395 -329 q 219 -289 292 -329 q 145 -193 145 -249 q 149 -172 145 -182 q 163 -142 152 -161 q 182 -109 174 -123 q 215 -60 191 -96 q 256 0 239 -25 l 378 0 z "},"İ":{"ha":730,"x_min":71,"x_max":659,"o":"m 659 861 l 559 861 l 559 243 l 655 243 l 655 0 l 71 0 l 71 243 l 170 243 l 170 861 l 73 861 l 73 1101 l 659 1101 l 659 861 m 363 1150 q 229 1196 282 1150 q 175 1320 175 1242 q 228 1441 175 1396 q 363 1486 280 1486 q 503 1441 449 1486 q 557 1320 557 1396 q 502 1196 557 1242 q 363 1150 446 1150 z "},"ı":{"ha":552,"x_min":62,"x_max":505,"o":"m 448 203 l 505 203 l 505 0 l 66 0 l 66 203 l 122 203 l 122 507 l 62 507 l 62 727 l 448 727 l 448 203 z "},"ĳ":{"ha":1066,"x_min":62,"x_max":989,"o":"m 987 727 l 62 727 l 62 516 l 122 516 l 122 207 l 66 207 l 66 0 l 505 0 l 505 207 l 448 207 l 448 515 l 648 515 l 648 -6 q 624 -41 648 -31 q 576 -49 600 -52 l 577 -270 q 774 -248 694 -270 q 901 -180 854 -227 q 967 -70 947 -134 q 987 87 987 -5 l 987 727 m 258 770 q 123 815 177 770 q 70 939 70 861 q 122 1061 70 1016 q 258 1105 175 1105 q 398 1061 344 1105 q 452 939 452 1016 q 396 815 452 861 q 258 770 340 770 m 794 770 q 660 815 713 770 q 606 939 606 861 q 659 1061 606 1016 q 794 1105 711 1105 q 935 1061 880 1105 q 989 939 989 1016 q 933 815 989 861 q 794 770 877 770 z "},"Ĵ":{"ha":891,"x_min":20,"x_max":860,"o":"m 20 -9 l 203 -9 l 229 54 q 424 -20 289 -20 q 671 73 583 -20 q 760 322 760 166 l 760 861 l 860 861 l 860 1101 l 281 1101 l 281 861 l 385 861 l 385 388 q 367 280 385 313 q 310 248 349 248 q 279 255 293 248 q 257 273 265 262 q 242 300 248 283 q 233 332 236 318 q 229 367 230 345 q 227 399 227 389 q 227 429 227 410 l 20 429 l 20 -9 m 537 1459 l 723 1204 l 618 1135 l 446 1301 l 273 1135 l 168 1204 l 353 1459 l 537 1459 z "},"ĵ":{"ha":524,"x_min":-14,"x_max":541,"o":"m 33 -49 q 82 -41 58 -52 q 106 -6 106 -31 l 106 515 l 45 515 l 45 727 l 444 727 l 444 87 q 425 -70 444 -5 q 358 -180 405 -134 q 232 -248 311 -227 q 35 -270 152 -270 l 33 -49 m 355 1085 l 541 830 l 436 762 l 263 928 l 90 762 l -14 830 l 171 1086 l 355 1085 z "},"Ķ":{"ha":1220,"x_min":71,"x_max":1196,"o":"m 71 1100 l 628 1100 l 628 861 l 542 861 l 542 602 l 736 861 l 736 1100 l 1160 1101 l 1160 861 l 1067 861 l 850 586 l 850 576 q 944 568 903 576 q 1018 542 985 560 q 1068 490 1050 524 q 1085 408 1085 456 l 1085 313 q 1097 266 1085 289 q 1131 243 1109 243 l 1192 243 l 1196 0 l 960 0 q 732 208 732 0 l 732 334 q 710 400 732 366 q 657 434 688 434 l 542 434 l 542 243 l 628 243 l 632 24 l 632 0 l 71 0 l 71 243 l 171 243 l 171 861 l 71 861 l 71 1100 m 458 -473 q 511 -469 489 -473 q 548 -454 534 -465 q 570 -433 562 -444 q 582 -401 578 -422 q 586 -366 585 -381 q 587 -322 587 -351 l 458 -322 l 458 -74 l 804 -74 q 821 -262 821 -178 q 732 -538 821 -450 q 458 -626 644 -626 l 458 -473 z "},"ķ":{"ha":958,"x_min":46,"x_max":939,"o":"m 438 297 l 438 0 l 47 0 l 47 207 l 103 207 l 103 902 l 46 902 l 46 1108 l 438 1108 l 438 398 l 574 516 l 510 516 l 510 727 l 906 727 l 906 516 l 804 516 l 707 437 l 707 419 l 861 207 l 939 207 l 939 0 l 631 0 l 438 297 m 307 -473 q 360 -469 338 -473 q 396 -454 382 -465 q 418 -433 410 -444 q 430 -401 427 -422 q 435 -366 434 -381 q 435 -322 435 -351 l 307 -322 l 307 -74 l 653 -74 q 669 -262 669 -178 q 581 -538 669 -450 q 307 -626 493 -626 l 307 -473 z "},"Ĺ":{"ha":964,"x_min":71,"x_max":937,"o":"m 555 243 l 684 243 l 743 481 l 937 481 l 937 0 l 74 0 l 73 243 l 170 243 l 170 861 l 71 861 l 71 1100 l 659 1100 l 659 861 l 555 861 l 555 243 m 705 1352 l 329 1140 l 258 1236 l 580 1532 l 705 1352 z "},"ĺ":{"ha":538,"x_min":44,"x_max":494,"o":"m 437 207 l 490 207 l 490 0 l 51 0 l 51 207 l 101 207 l 101 893 l 44 893 l 44 1105 l 437 1105 l 437 207 m 494 1354 l 118 1142 l 47 1238 l 369 1534 l 494 1354 z "},"Ļ":{"ha":964,"x_min":71,"x_max":937,"o":"m 555 243 l 684 243 l 743 481 l 937 481 l 937 0 l 74 0 l 73 243 l 170 243 l 170 861 l 71 861 l 71 1100 l 659 1100 l 659 861 l 555 861 l 555 243 m 313 -473 q 366 -469 343 -473 q 402 -454 388 -465 q 424 -433 416 -444 q 436 -401 432 -422 q 440 -366 439 -381 q 441 -322 441 -351 l 313 -322 l 313 -74 l 659 -74 q 675 -262 675 -178 q 587 -538 675 -450 q 313 -626 498 -626 l 313 -473 z "},"ļ":{"ha":538,"x_min":44,"x_max":490,"o":"m 437 207 l 490 207 l 490 0 l 51 0 l 51 207 l 101 207 l 101 893 l 44 893 l 44 1105 l 437 1105 l 437 207 m 93 -473 q 146 -469 123 -473 q 182 -454 168 -465 q 204 -433 196 -444 q 216 -401 212 -422 q 220 -366 220 -381 q 221 -322 221 -351 l 93 -322 l 93 -74 l 439 -74 q 455 -262 455 -178 q 367 -538 455 -450 q 93 -626 279 -626 l 93 -473 z "},"Ľ":{"ha":964,"x_min":71,"x_max":1036,"o":"m 555 243 l 684 243 l 743 481 l 937 481 l 937 0 l 74 0 l 73 243 l 170 243 l 170 861 l 71 861 l 71 1100 l 659 1100 l 659 861 l 555 861 l 555 243 m 674 993 q 727 997 705 993 q 763 1012 749 1002 q 785 1034 777 1023 q 797 1065 793 1044 q 802 1100 801 1085 q 802 1144 802 1116 l 674 1144 l 674 1392 l 1020 1392 q 1036 1204 1036 1287 q 948 928 1036 1016 q 674 840 860 840 l 674 993 z "},"ľ":{"ha":979,"x_min":44,"x_max":947,"o":"m 437 207 l 490 207 l 490 0 l 51 0 l 51 207 l 101 207 l 101 893 l 44 893 l 44 1105 l 437 1105 l 437 207 m 585 701 q 638 706 616 701 q 674 721 661 710 q 696 742 688 731 q 708 773 705 753 q 713 809 712 793 q 713 852 713 824 l 585 852 l 585 1101 l 931 1101 q 947 913 947 996 q 859 636 947 724 q 585 549 771 549 l 585 701 z "},"Ŀ":{"ha":964,"x_min":71,"x_max":965,"o":"m 555 243 l 684 243 l 743 481 l 937 481 l 937 0 l 74 0 l 73 243 l 170 243 l 170 861 l 71 861 l 71 1100 l 659 1100 l 659 861 l 555 861 l 555 243 m 770 513 q 636 559 690 513 q 583 683 583 605 q 635 804 583 760 q 770 849 688 849 q 911 804 857 849 q 965 683 965 760 q 909 559 965 605 q 770 513 853 513 z "},"ŀ":{"ha":875,"x_min":44,"x_max":836,"o":"m 437 207 l 490 207 l 490 0 l 51 0 l 51 207 l 101 207 l 101 893 l 44 893 l 44 1105 l 437 1105 l 437 207 m 641 349 q 507 394 560 349 q 453 518 453 440 q 506 640 453 595 q 641 684 558 684 q 781 640 727 684 q 836 518 836 595 q 780 394 836 440 q 641 349 724 349 z "},"Ł":{"ha":964,"x_min":50,"x_max":938,"o":"m 555 243 l 685 243 l 744 481 l 938 481 l 938 0 l 75 0 l 74 243 l 171 243 l 171 861 l 71 861 l 71 1100 l 660 1100 l 660 861 l 555 861 l 555 243 m 640 787 l 707 665 l 118 324 l 50 445 l 640 787 z "},"ł":{"ha":538,"x_min":-18,"x_max":559,"o":"m 437 207 l 490 207 l 490 0 l 51 0 l 51 207 l 101 207 l 101 893 l 44 893 l 44 1105 l 437 1105 l 437 207 m 492 782 l 559 661 l 50 366 l -18 487 l 492 782 z "},"Ń":{"ha":1271,"x_min":66,"x_max":1230,"o":"m 1230 1100 l 798 1101 l 798 861 q 844 859 825 862 q 875 846 864 855 q 893 828 886 837 q 902 805 900 820 q 905 781 905 789 q 905 757 905 773 l 905 439 l 569 1101 l 71 1101 l 71 863 l 177 863 l 177 373 q 176 332 177 347 q 169 298 174 317 q 152 269 163 279 q 119 251 140 258 q 66 243 98 243 l 66 0 l 498 0 l 498 243 q 416 266 441 243 q 391 344 391 288 l 391 616 l 712 0 l 1123 0 l 1123 758 q 1148 835 1123 808 q 1230 861 1173 861 l 1230 1100 m 859 1352 l 483 1140 l 412 1236 l 734 1532 l 859 1352 z "},"ń":{"ha":1006,"x_min":62,"x_max":969,"o":"m 448 727 l 66 727 l 66 516 l 118 516 l 118 207 l 62 207 l 62 0 l 508 0 l 508 207 l 448 207 l 448 423 q 468 477 448 455 q 519 500 487 500 q 562 479 543 500 q 580 425 580 458 l 580 0 l 969 0 l 969 207 l 915 207 l 915 461 q 691 741 915 741 q 548 710 611 741 q 448 621 486 679 l 448 727 m 726 979 l 350 766 l 279 862 l 601 1158 l 726 979 z "},"Ņ":{"ha":1271,"x_min":66,"x_max":1230,"o":"m 1230 1100 l 798 1101 l 798 861 q 844 859 825 862 q 875 846 864 855 q 893 828 886 837 q 902 805 900 820 q 905 781 905 789 q 905 757 905 773 l 905 439 l 569 1101 l 71 1101 l 71 863 l 177 863 l 177 373 q 176 332 177 347 q 169 298 174 317 q 152 269 163 279 q 119 251 140 258 q 66 243 98 243 l 66 0 l 498 0 l 498 243 q 416 266 441 243 q 391 344 391 288 l 391 616 l 712 0 l 1123 0 l 1123 758 q 1148 835 1123 808 q 1230 861 1173 861 l 1230 1100 m 458 -473 q 511 -469 489 -473 q 548 -454 534 -465 q 570 -433 562 -444 q 582 -401 578 -422 q 586 -366 585 -381 q 587 -322 587 -351 l 458 -322 l 458 -74 l 804 -74 q 821 -262 821 -178 q 732 -538 821 -450 q 458 -626 644 -626 l 458 -473 z "},"ņ":{"ha":1006,"x_min":62,"x_max":969,"o":"m 448 727 l 66 727 l 66 516 l 118 516 l 118 207 l 62 207 l 62 0 l 508 0 l 508 207 l 448 207 l 448 423 q 468 477 448 455 q 519 500 487 500 q 562 479 543 500 q 580 425 580 458 l 580 0 l 969 0 l 969 207 l 915 207 l 915 461 q 691 741 915 741 q 548 710 611 741 q 448 621 486 679 l 448 727 m 359 -473 q 412 -469 389 -473 q 448 -454 434 -465 q 470 -433 462 -444 q 482 -401 478 -422 q 486 -366 486 -381 q 487 -322 487 -351 l 359 -322 l 359 -74 l 705 -74 q 721 -262 721 -178 q 633 -538 721 -450 q 359 -626 545 -626 l 359 -473 z "},"Ň":{"ha":1271,"x_min":66,"x_max":1230,"o":"m 1230 1100 l 798 1101 l 798 861 q 844 859 825 862 q 875 846 864 855 q 893 828 886 837 q 902 805 900 820 q 905 781 905 789 q 905 757 905 773 l 905 439 l 569 1101 l 71 1101 l 71 863 l 177 863 l 177 373 q 176 332 177 347 q 169 298 174 317 q 152 269 163 279 q 119 251 140 258 q 66 243 98 243 l 66 0 l 498 0 l 498 243 q 416 266 441 243 q 391 344 391 288 l 391 616 l 712 0 l 1123 0 l 1123 758 q 1148 835 1123 808 q 1230 861 1173 861 l 1230 1100 m 543 1153 l 358 1409 l 463 1477 l 635 1311 l 808 1477 l 913 1409 l 727 1154 l 543 1153 z "},"ň":{"ha":1006,"x_min":62,"x_max":969,"o":"m 448 727 l 66 727 l 66 516 l 118 516 l 118 207 l 62 207 l 62 0 l 508 0 l 508 207 l 448 207 l 448 423 q 468 477 448 455 q 519 500 487 500 q 562 479 543 500 q 580 425 580 458 l 580 0 l 969 0 l 969 207 l 915 207 l 915 461 q 691 741 915 741 q 548 710 611 741 q 448 621 486 679 l 448 727 m 410 779 l 225 1035 l 330 1103 l 503 937 l 675 1103 l 780 1035 l 594 780 l 410 779 z "},"ŉ":{"ha":1006,"x_min":62,"x_max":969,"o":"m 448 727 l 66 727 l 66 516 l 118 516 l 118 207 l 62 207 l 62 0 l 508 0 l 508 207 l 448 207 l 448 423 q 468 477 448 455 q 519 500 487 500 q 562 479 543 500 q 580 425 580 458 l 580 0 l 969 0 l 969 207 l 915 207 l 915 461 q 691 741 915 741 q 548 710 611 741 q 448 621 486 679 l 448 727 m 67 915 q 120 919 98 915 q 156 934 142 924 q 178 956 170 945 q 190 987 186 966 q 195 1022 194 1007 q 195 1066 195 1038 l 67 1066 l 67 1314 l 413 1314 q 429 1126 429 1210 q 341 850 429 938 q 67 762 253 762 l 67 915 z "},"Ŋ":{"ha":1271,"x_min":66,"x_max":1230,"o":"m 383 -84 l 589 -84 l 591 -106 q 597 -135 593 -120 q 610 -161 601 -149 q 634 -181 618 -173 q 673 -191 649 -189 q 730 -158 711 -191 q 748 -51 748 -125 l 712 34 l 391 616 l 391 344 q 416 266 391 288 q 498 243 441 243 l 498 0 l 66 0 l 66 243 q 138 258 115 245 q 168 298 161 271 q 176 332 174 317 q 177 373 177 347 l 177 863 l 71 863 l 71 1101 l 569 1101 l 905 439 l 905 757 q 905 771 905 765 q 905 782 905 777 q 904 792 905 787 q 902 804 903 797 q 893 828 900 821 q 861 853 884 842 q 798 861 839 864 l 798 1101 l 1230 1100 l 1230 861 q 1148 835 1173 861 q 1123 758 1123 809 l 1123 -117 q 1034 -366 1123 -273 q 787 -459 945 -459 q 591 -385 651 -459 l 566 -448 l 383 -448 l 383 -84 z "},"ŋ":{"ha":1006,"x_min":62,"x_max":915,"o":"m 504 -73 q 552 -66 528 -76 q 580 -31 576 -56 l 580 425 q 562 479 580 458 q 519 500 543 500 q 468 477 487 500 q 448 423 448 455 l 448 207 l 508 207 l 508 0 l 62 0 l 62 207 l 118 207 l 118 516 l 66 516 l 66 727 l 448 727 l 448 621 q 548 710 486 679 q 691 741 611 741 q 915 461 915 741 l 915 63 q 895 -94 915 -30 q 829 -205 876 -159 q 702 -273 782 -251 q 505 -294 623 -294 l 504 -73 z "},"Ō":{"ha":1183,"x_min":35,"x_max":1147,"o":"m 1147 548 q 1075 258 1147 389 q 874 54 1002 128 q 591 -20 747 -20 q 309 54 436 -20 q 108 258 181 128 q 35 548 35 389 q 108 854 35 723 q 306 1053 181 985 q 593 1121 431 1121 q 877 1053 751 1121 q 1075 854 1002 985 q 1147 548 1147 723 m 591 216 q 639 225 618 216 q 674 250 660 234 q 700 286 689 265 q 717 332 711 307 q 727 383 723 357 q 732 436 731 410 q 734 489 733 463 q 734 538 734 515 q 734 558 734 551 q 734 582 734 566 q 734 633 733 606 q 731 689 734 661 q 724 745 728 718 q 709 797 720 772 q 683 840 698 821 q 645 868 669 858 q 591 879 621 879 q 544 871 565 879 q 508 848 522 863 q 483 814 494 833 q 466 772 471 795 q 455 725 460 749 q 450 675 451 700 q 449 627 450 650 q 449 582 448 603 q 449 558 449 566 q 449 538 449 551 q 449 495 450 517 q 450 449 448 473 q 454 401 452 425 q 461 354 456 377 q 473 311 466 331 q 490 273 479 290 q 515 243 501 256 q 549 223 529 231 q 591 216 568 216 m 845 1176 l 338 1176 l 338 1403 l 845 1403 l 845 1176 z "},"ō":{"ha":875,"x_min":29,"x_max":846,"o":"m 29 371 q 138 644 29 547 q 437 740 248 740 q 736 644 627 740 q 846 371 846 547 q 794 165 846 252 q 650 33 742 77 q 437 -12 558 -12 q 225 33 317 -12 q 81 165 133 77 q 29 371 29 252 m 345 370 q 437 199 345 199 q 530 370 530 199 q 527 428 530 404 q 515 477 524 452 q 487 515 507 503 q 437 528 467 528 q 388 515 408 528 q 359 477 368 503 q 348 428 351 452 q 345 370 345 404 m 691 802 l 184 802 l 184 1029 l 691 1029 l 691 802 z "},"Ŏ":{"ha":1183,"x_min":35,"x_max":1147,"o":"m 1147 548 q 1075 258 1147 389 q 874 54 1002 128 q 591 -20 747 -20 q 309 54 436 -20 q 108 258 181 128 q 35 548 35 389 q 108 854 35 723 q 306 1053 181 985 q 593 1121 431 1121 q 877 1053 751 1121 q 1075 854 1002 985 q 1147 548 1147 723 m 591 216 q 639 225 618 216 q 674 250 660 234 q 700 286 689 265 q 717 332 711 307 q 727 383 723 357 q 732 436 731 410 q 734 489 733 463 q 734 538 734 515 q 734 558 734 551 q 734 582 734 566 q 734 633 733 606 q 731 689 734 661 q 724 745 728 718 q 709 797 720 772 q 683 840 698 821 q 645 868 669 858 q 591 879 621 879 q 544 871 565 879 q 508 848 522 863 q 483 814 494 833 q 466 772 471 795 q 455 725 460 749 q 450 675 451 700 q 449 627 450 650 q 449 582 448 603 q 449 558 449 566 q 449 538 449 551 q 449 495 450 517 q 450 449 448 473 q 454 401 452 425 q 461 354 456 377 q 473 311 466 331 q 490 273 479 290 q 515 243 501 256 q 549 223 529 231 q 591 216 568 216 m 591 1218 q 387 1286 456 1218 q 317 1474 317 1354 l 488 1474 q 519 1393 488 1422 q 591 1364 549 1364 q 664 1393 633 1364 q 694 1474 694 1422 l 865 1474 q 795 1286 865 1354 q 591 1218 725 1218 z "},"ŏ":{"ha":875,"x_min":29,"x_max":846,"o":"m 29 371 q 138 644 29 547 q 437 740 248 740 q 736 644 627 740 q 846 371 846 547 q 794 165 846 252 q 650 33 742 77 q 437 -12 558 -12 q 225 33 317 -12 q 81 165 133 77 q 29 371 29 252 m 345 370 q 437 199 345 199 q 530 370 530 199 q 527 428 530 404 q 515 477 524 452 q 487 515 507 503 q 437 528 467 528 q 388 515 408 528 q 359 477 368 503 q 348 428 351 452 q 345 370 345 404 m 439 844 q 234 912 304 844 q 165 1100 165 980 l 336 1100 q 366 1020 336 1048 q 439 991 397 991 q 511 1020 481 991 q 542 1100 542 1048 l 713 1100 q 643 912 713 981 q 439 844 572 844 z "},"Ő":{"ha":1183,"x_min":35,"x_max":1147,"o":"m 1147 548 q 1075 258 1147 389 q 874 54 1002 128 q 591 -20 747 -20 q 309 54 436 -20 q 108 258 181 128 q 35 548 35 389 q 108 854 35 723 q 306 1053 181 985 q 593 1121 431 1121 q 877 1053 751 1121 q 1075 854 1002 985 q 1147 548 1147 723 m 591 216 q 639 225 618 216 q 674 250 660 234 q 700 286 689 265 q 717 332 711 307 q 727 383 723 357 q 732 436 731 410 q 734 489 733 463 q 734 538 734 515 q 734 558 734 551 q 734 582 734 566 q 734 633 733 606 q 731 689 734 661 q 724 745 728 718 q 709 797 720 772 q 683 840 698 821 q 645 868 669 858 q 591 879 621 879 q 544 871 565 879 q 508 848 522 863 q 483 814 494 833 q 466 772 471 795 q 455 725 460 749 q 450 675 451 700 q 449 627 450 650 q 449 582 448 603 q 449 558 449 566 q 449 538 449 551 q 449 495 450 517 q 450 449 448 473 q 454 401 452 425 q 461 354 456 377 q 473 311 466 331 q 490 273 479 290 q 515 243 501 256 q 549 223 529 231 q 591 216 568 216 m 627 1523 l 431 1139 l 319 1179 l 423 1604 l 627 1523 m 935 1461 l 648 1139 l 550 1206 l 758 1591 l 935 1461 z "},"ő":{"ha":875,"x_min":29,"x_max":846,"o":"m 29 371 q 138 644 29 547 q 437 740 248 740 q 736 644 627 740 q 846 371 846 547 q 794 165 846 252 q 650 33 742 77 q 437 -12 558 -12 q 225 33 317 -12 q 81 165 133 77 q 29 371 29 252 m 345 370 q 437 199 345 199 q 530 370 530 199 q 527 428 530 404 q 515 477 524 452 q 487 515 507 503 q 437 528 467 528 q 388 515 408 528 q 359 477 368 503 q 348 428 351 452 q 345 370 345 404 m 538 1149 l 343 765 l 231 806 l 335 1230 l 538 1149 m 846 1088 l 559 766 l 462 833 l 670 1217 l 846 1088 z "},"Œ":{"ha":1579,"x_min":38,"x_max":1503,"o":"m 608 0 q 194 147 349 0 q 38 538 39 294 q 108 825 38 699 q 308 1022 178 951 q 604 1092 437 1092 l 1495 1092 l 1495 649 l 1314 648 l 1262 853 l 1118 853 l 1118 670 l 1257 670 l 1257 431 l 1118 431 l 1118 237 l 1266 237 l 1275 285 l 1318 466 l 1503 466 l 1503 0 l 608 0 m 456 512 q 457 452 456 477 q 462 396 458 427 q 471 345 465 366 q 489 301 477 323 q 515 267 500 279 q 554 245 531 254 q 608 237 578 237 l 743 237 l 743 852 l 600 852 q 538 840 565 852 q 497 807 512 828 q 472 758 482 786 q 460 696 463 729 q 456 626 458 663 q 456 554 454 590 q 456 512 456 526 z "},"œ":{"ha":1307,"x_min":30,"x_max":1276,"o":"m 438 -18 q 225 27 317 -18 q 82 159 134 72 q 30 366 30 247 q 139 638 30 542 q 438 734 248 734 q 524 726 483 734 q 592 705 566 717 q 640 680 619 692 q 670 659 661 668 l 680 650 q 688 660 682 654 q 713 680 693 665 q 756 705 732 694 q 819 725 779 716 q 902 734 858 734 q 1105 685 1019 734 q 1233 553 1191 635 q 1276 370 1276 472 q 1272 317 1276 347 q 1261 299 1265 301 q 1247 298 1258 298 l 839 298 q 871 190 839 235 q 959 144 903 144 q 1030 168 1008 144 q 1054 241 1053 192 l 1262 241 l 1262 80 q 1086 3 1172 26 q 891 -18 1000 -19 q 814 -8 851 -18 q 753 15 777 1 q 711 43 729 29 q 684 66 692 57 l 675 77 q 666 66 672 73 q 638 44 660 60 q 590 15 616 28 q 524 -7 565 3 q 438 -18 483 -18 m 345 364 q 438 221 345 221 q 531 364 531 221 q 528 413 531 393 q 516 453 525 433 q 488 485 507 474 q 438 496 468 496 q 389 485 408 496 q 360 453 369 474 q 348 413 351 433 q 345 364 345 393 m 840 439 l 840 419 l 986 419 q 985 460 987 443 q 977 500 983 478 q 955 534 971 522 q 913 546 939 546 q 859 513 877 546 q 840 439 840 480 z "},"Ŕ":{"ha":1197,"x_min":68,"x_max":1171,"o":"m 618 243 l 536 243 l 536 471 l 603 471 q 669 459 644 471 q 708 424 695 448 q 725 373 720 399 q 729 306 729 346 l 729 174 q 734 122 729 146 q 748 82 740 99 q 771 52 756 65 q 799 30 785 39 q 833 16 812 22 q 870 6 854 9 q 911 2 886 3 q 952 0 937 1 q 994 0 967 0 l 1171 0 l 1171 243 q 1111 248 1133 243 q 1077 263 1088 252 q 1063 285 1066 273 q 1060 316 1060 296 l 1060 379 q 1017 483 1060 441 q 872 547 973 524 q 1052 632 989 569 q 1116 793 1116 695 q 1090 937 1116 877 q 1017 1033 1065 997 q 904 1084 968 1068 q 757 1101 840 1101 l 68 1101 l 68 861 l 174 861 l 174 243 l 69 243 l 69 -1 q 618 0 439 0 l 618 243 m 532 624 l 532 861 l 614 861 q 709 829 675 861 q 743 743 743 797 q 729 685 743 709 q 690 648 715 661 q 636 629 665 635 q 574 624 608 624 l 532 624 m 821 1352 l 446 1140 l 375 1236 l 696 1532 l 821 1352 z "},"ŕ":{"ha":678,"x_min":64,"x_max":660,"o":"m 64 727 l 432 727 l 432 616 l 435 614 q 530 703 468 671 q 660 734 593 734 l 660 452 l 588 457 q 471 414 513 457 q 428 289 428 371 l 428 207 l 521 207 l 521 0 l 64 0 l 64 207 l 117 207 l 117 516 l 64 516 l 64 727 m 564 979 l 188 766 l 117 862 l 439 1158 l 564 979 z "},"Ŗ":{"ha":1197,"x_min":68,"x_max":1171,"o":"m 618 243 l 536 243 l 536 471 l 603 471 q 669 459 644 471 q 708 424 695 448 q 725 373 720 399 q 729 306 729 346 l 729 174 q 734 122 729 146 q 748 82 740 99 q 771 52 756 65 q 799 30 785 39 q 833 16 812 22 q 870 6 854 9 q 911 2 886 3 q 952 0 937 1 q 994 0 967 0 l 1171 0 l 1171 243 q 1111 248 1133 243 q 1077 263 1088 252 q 1063 285 1066 273 q 1060 316 1060 296 l 1060 379 q 1017 483 1060 441 q 872 547 973 524 q 1052 632 989 569 q 1116 793 1116 695 q 1090 937 1116 877 q 1017 1033 1065 997 q 904 1084 968 1068 q 757 1101 840 1101 l 68 1101 l 68 861 l 174 861 l 174 243 l 69 243 l 69 -1 q 618 0 439 0 l 618 243 m 532 624 l 532 861 l 614 861 q 709 829 675 861 q 743 743 743 797 q 729 685 743 709 q 690 648 715 661 q 636 629 665 635 q 574 624 608 624 l 532 624 m 458 -473 q 511 -469 489 -473 q 548 -454 534 -465 q 570 -433 562 -444 q 582 -401 578 -422 q 586 -366 585 -381 q 587 -322 587 -351 l 458 -322 l 458 -74 l 804 -74 q 821 -262 821 -178 q 732 -538 821 -450 q 458 -626 644 -626 l 458 -473 z "},"ŗ":{"ha":678,"x_min":64,"x_max":660,"o":"m 64 727 l 432 727 l 432 616 l 435 614 q 530 703 468 671 q 660 734 593 734 l 660 452 l 588 457 q 471 414 513 457 q 428 289 428 371 l 428 207 l 521 207 l 521 0 l 64 0 l 64 207 l 117 207 l 117 516 l 64 516 l 64 727 m 117 -473 q 170 -469 147 -473 q 206 -454 192 -465 q 228 -433 220 -444 q 240 -401 236 -422 q 244 -366 243 -381 q 245 -322 245 -351 l 117 -322 l 117 -74 l 463 -74 q 479 -262 479 -178 q 391 -538 479 -450 q 117 -626 302 -626 l 117 -473 z "},"Ř":{"ha":1197,"x_min":68,"x_max":1171,"o":"m 618 243 l 536 243 l 536 471 l 603 471 q 669 459 644 471 q 708 424 695 448 q 725 373 720 399 q 729 306 729 346 l 729 174 q 734 122 729 146 q 748 82 740 99 q 771 52 756 65 q 799 30 785 39 q 833 16 812 22 q 870 6 854 9 q 911 2 886 3 q 952 0 937 1 q 994 0 967 0 l 1171 0 l 1171 243 q 1111 248 1133 243 q 1077 263 1088 252 q 1063 285 1066 273 q 1060 316 1060 296 l 1060 379 q 1017 483 1060 441 q 872 547 973 524 q 1052 632 989 569 q 1116 793 1116 695 q 1090 937 1116 877 q 1017 1033 1065 997 q 904 1084 968 1068 q 757 1101 840 1101 l 68 1101 l 68 861 l 174 861 l 174 243 l 69 243 l 69 -1 q 618 0 439 0 l 618 243 m 532 624 l 532 861 l 614 861 q 709 829 675 861 q 743 743 743 797 q 729 685 743 709 q 690 648 715 661 q 636 629 665 635 q 574 624 608 624 l 532 624 m 506 1153 l 321 1409 l 425 1477 l 598 1311 l 771 1477 l 876 1409 l 690 1154 l 506 1153 z "},"ř":{"ha":678,"x_min":63,"x_max":660,"o":"m 64 727 l 432 727 l 432 616 l 435 614 q 530 703 468 671 q 660 734 593 734 l 660 452 l 588 457 q 471 414 513 457 q 428 289 428 371 l 428 207 l 521 207 l 521 0 l 64 0 l 64 207 l 117 207 l 117 516 l 64 516 l 64 727 m 248 779 l 63 1035 l 168 1103 l 340 937 l 513 1103 l 618 1035 l 432 780 l 248 779 z "},"Ś":{"ha":901,"x_min":50,"x_max":867,"o":"m 593 1101 q 571 1060 574 1068 q 359 1121 490 1121 q 129 1025 208 1121 q 50 768 50 930 q 57 685 50 724 q 74 615 63 646 q 102 556 85 584 q 140 508 120 529 q 186 468 159 487 q 240 435 214 449 q 300 408 266 421 q 366 384 335 394 q 436 363 396 374 q 478 349 461 356 q 510 325 495 341 q 525 285 525 308 q 503 242 525 257 q 451 227 481 227 q 356 264 401 227 q 293 351 311 302 l 75 351 l 75 0 l 294 0 l 318 62 q 419 -1 371 18 q 541 -20 468 -20 q 674 11 612 -20 q 778 93 736 42 q 843 210 820 144 q 865 345 867 275 q 846 472 864 415 q 799 568 828 530 q 732 636 770 606 q 654 683 695 665 q 572 715 613 701 q 494 740 531 730 q 429 762 457 751 q 384 787 400 772 q 367 823 367 802 q 384 869 367 854 q 431 885 401 885 q 524 844 481 885 q 578 751 566 804 l 786 751 l 786 1101 l 593 1101 m 673 1352 l 298 1140 l 227 1236 l 549 1532 l 673 1352 z "},"ś":{"ha":715,"x_min":43,"x_max":675,"o":"m 662 516 l 662 733 l 548 733 l 530 701 q 509 712 523 705 q 444 729 496 718 q 330 741 393 741 q 187 717 248 741 q 88 639 125 693 q 51 506 51 585 q 70 414 51 454 q 118 352 88 375 q 183 312 147 329 q 254 284 218 296 q 320 262 290 273 q 368 234 349 251 q 387 195 387 218 q 364 155 387 169 q 313 142 341 142 q 237 179 269 142 q 198 262 206 216 l 48 262 l 43 6 l 163 6 l 188 52 q 397 -12 256 -12 q 605 59 534 -12 q 675 268 675 130 q 512 488 675 421 q 471 499 503 491 q 415 515 439 507 q 371 538 391 522 q 351 574 351 553 q 369 611 351 597 q 413 624 388 624 q 460 612 436 624 q 496 581 484 600 q 507 561 499 577 q 520 530 514 545 l 526 516 l 662 516 m 581 979 l 205 766 l 134 862 l 456 1158 l 581 979 z "},"Ŝ":{"ha":901,"x_min":50,"x_max":867,"o":"m 593 1101 q 571 1060 574 1068 q 359 1121 490 1121 q 129 1025 208 1121 q 50 768 50 930 q 57 685 50 724 q 74 615 63 646 q 102 556 85 584 q 140 508 120 529 q 186 468 159 487 q 240 435 214 449 q 300 408 266 421 q 366 384 335 394 q 436 363 396 374 q 478 349 461 356 q 510 325 495 341 q 525 285 525 308 q 503 242 525 257 q 451 227 481 227 q 356 264 401 227 q 293 351 311 302 l 75 351 l 75 0 l 294 0 l 318 62 q 419 -1 371 18 q 541 -20 468 -20 q 674 11 612 -20 q 778 93 736 42 q 843 210 820 144 q 865 345 867 275 q 846 472 864 415 q 799 568 828 530 q 732 636 770 606 q 654 683 695 665 q 572 715 613 701 q 494 740 531 730 q 429 762 457 751 q 384 787 400 772 q 367 823 367 802 q 384 869 367 854 q 431 885 401 885 q 524 844 481 885 q 578 751 566 804 l 786 751 l 786 1101 l 593 1101 m 542 1459 l 728 1204 l 623 1135 l 450 1301 l 277 1135 l 173 1204 l 358 1459 l 542 1459 z "},"ŝ":{"ha":715,"x_min":43,"x_max":675,"o":"m 662 516 l 662 733 l 548 733 l 530 701 q 509 712 523 705 q 444 729 496 718 q 330 741 393 741 q 187 717 248 741 q 88 639 125 693 q 51 506 51 585 q 70 414 51 454 q 118 352 88 375 q 183 312 147 329 q 254 284 218 296 q 320 262 290 273 q 368 234 349 251 q 387 195 387 218 q 364 155 387 169 q 313 142 341 142 q 237 179 269 142 q 198 262 206 216 l 48 262 l 43 6 l 163 6 l 188 52 q 397 -12 256 -12 q 605 59 534 -12 q 675 268 675 130 q 512 488 675 421 q 471 499 503 491 q 415 515 439 507 q 371 538 391 522 q 351 574 351 553 q 369 611 351 597 q 413 624 388 624 q 460 612 436 624 q 496 581 484 600 q 507 561 499 577 q 520 530 514 545 l 526 516 l 662 516 m 449 1085 l 635 830 l 530 762 l 357 928 l 184 762 l 80 830 l 265 1086 l 449 1085 z "},"Ş":{"ha":901,"x_min":50,"x_max":867,"o":"m 593 1101 q 571 1060 574 1068 q 359 1121 490 1121 q 129 1025 208 1121 q 50 768 50 930 q 57 685 50 724 q 74 615 63 646 q 102 556 85 584 q 140 508 120 529 q 186 468 159 487 q 240 435 214 449 q 300 408 266 421 q 366 384 335 394 q 436 363 396 374 q 478 349 461 356 q 510 325 495 341 q 525 285 525 308 q 503 242 525 257 q 451 227 481 227 q 356 264 401 227 q 293 351 311 302 l 75 351 l 75 0 l 294 0 l 318 62 q 419 -1 371 18 q 541 -20 468 -20 q 674 11 612 -20 q 778 93 736 42 q 843 210 820 144 q 865 345 867 275 q 846 472 864 415 q 799 568 828 530 q 732 636 770 606 q 654 683 695 665 q 572 715 613 701 q 494 740 531 730 q 429 762 457 751 q 384 787 400 772 q 367 823 367 802 q 384 869 367 854 q 431 885 401 885 q 524 844 481 885 q 578 751 566 804 l 786 751 l 786 1101 l 593 1101 m 370 0 l 492 0 l 492 -81 q 583 -193 583 -133 q 509 -289 583 -249 q 332 -329 435 -329 l 318 -329 l 318 -252 q 414 -233 384 -252 q 445 -184 445 -214 q 423 -127 445 -157 q 370 -81 401 -98 l 370 0 z "},"ş":{"ha":715,"x_min":43,"x_max":675,"o":"m 662 516 l 662 733 l 548 733 l 530 701 q 509 712 523 705 q 444 729 496 718 q 330 741 393 741 q 187 717 248 741 q 88 639 125 693 q 51 506 51 585 q 70 414 51 454 q 118 352 88 375 q 183 312 147 329 q 254 284 218 296 q 320 262 290 273 q 368 234 349 251 q 387 195 387 218 q 364 155 387 169 q 313 142 341 142 q 237 179 269 142 q 198 262 206 216 l 48 262 l 43 6 l 163 6 l 188 52 q 397 -12 256 -12 q 605 59 534 -12 q 675 268 675 130 q 512 488 675 421 q 471 499 503 491 q 415 515 439 507 q 371 538 391 522 q 351 574 351 553 q 369 611 351 597 q 413 624 388 624 q 460 612 436 624 q 496 581 484 600 q 507 561 499 577 q 520 530 514 545 l 526 516 l 662 516 m 277 0 l 399 0 l 399 -81 q 490 -193 490 -133 q 416 -289 490 -249 q 239 -329 342 -329 l 225 -329 l 225 -252 q 321 -233 291 -252 q 352 -184 352 -214 q 330 -127 352 -157 q 277 -81 309 -98 l 277 0 z "},"Š":{"ha":901,"x_min":50,"x_max":867,"o":"m 593 1101 q 571 1060 574 1068 q 359 1121 490 1121 q 129 1025 208 1121 q 50 768 50 930 q 57 685 50 724 q 74 615 63 646 q 102 556 85 584 q 140 508 120 529 q 186 468 159 487 q 240 435 214 449 q 300 408 266 421 q 366 384 335 394 q 436 363 396 374 q 478 349 461 356 q 510 325 495 341 q 525 285 525 308 q 503 242 525 257 q 451 227 481 227 q 356 264 401 227 q 293 351 311 302 l 75 351 l 75 0 l 294 0 l 318 62 q 419 -1 371 18 q 541 -20 468 -20 q 674 11 612 -20 q 778 93 736 42 q 843 210 820 144 q 865 345 867 275 q 846 472 864 415 q 799 568 828 530 q 732 636 770 606 q 654 683 695 665 q 572 715 613 701 q 494 740 531 730 q 429 762 457 751 q 384 787 400 772 q 367 823 367 802 q 384 869 367 854 q 431 885 401 885 q 524 844 481 885 q 578 751 566 804 l 786 751 l 786 1101 l 593 1101 m 363 1160 l 178 1416 l 282 1485 l 455 1318 l 628 1485 l 732 1416 l 547 1161 l 363 1160 z "},"š":{"ha":715,"x_min":43,"x_max":675,"o":"m 662 516 l 662 733 l 548 733 l 530 701 q 509 712 523 705 q 444 729 496 718 q 330 741 393 741 q 187 717 248 741 q 88 639 125 693 q 51 506 51 585 q 70 414 51 454 q 118 352 88 375 q 183 312 147 329 q 254 284 218 296 q 320 262 290 273 q 368 234 349 251 q 387 195 387 218 q 364 155 387 169 q 313 142 341 142 q 237 179 269 142 q 198 262 206 216 l 48 262 l 43 6 l 163 6 l 188 52 q 397 -12 256 -12 q 605 59 534 -12 q 675 268 675 130 q 512 488 675 421 q 471 499 503 491 q 415 515 439 507 q 371 538 391 522 q 351 574 351 553 q 369 611 351 597 q 413 624 388 624 q 460 612 436 624 q 496 581 484 600 q 507 561 499 577 q 520 530 514 545 l 526 516 l 662 516 m 267 779 l 82 1035 l 186 1103 l 359 937 l 532 1103 l 637 1035 l 451 780 l 267 779 z "},"Ţ":{"ha":1038,"x_min":25,"x_max":1013,"o":"m 823 654 l 781 861 l 709 861 l 709 244 l 820 244 l 820 0 l 216 0 l 216 244 l 327 244 l 327 861 l 259 861 l 216 654 l 25 654 l 25 1100 l 1013 1100 l 1013 654 l 823 654 m 252 -457 q 305 -453 283 -457 q 341 -438 328 -448 q 363 -416 355 -427 q 375 -385 372 -406 q 380 -350 379 -365 q 380 -306 380 -334 l 252 -306 l 252 -58 l 598 -58 q 614 -245 614 -162 q 526 -522 614 -434 q 252 -610 438 -610 l 252 -457 z "},"ţ":{"ha":593,"x_min":30,"x_max":569,"o":"m 569 33 l 544 22 q 467 -1 519 10 q 360 -12 414 -12 q 102 261 101 -12 l 103 516 l 30 516 l 30 727 l 100 727 l 100 882 l 430 954 l 430 727 l 533 727 l 533 516 l 430 516 l 429 297 q 444 249 429 271 q 496 227 458 227 q 569 236 526 227 l 569 33 m 163 -457 q 216 -453 193 -457 q 252 -438 238 -448 q 274 -416 266 -427 q 286 -385 282 -406 q 290 -350 290 -365 q 291 -306 291 -334 l 163 -306 l 163 -58 l 509 -58 q 525 -245 525 -162 q 437 -522 525 -434 q 163 -610 349 -610 l 163 -457 z "},"Ť":{"ha":1041,"x_min":26,"x_max":1015,"o":"m 824 654 l 782 861 l 710 861 l 710 244 l 821 244 l 821 0 l 217 0 l 217 244 l 328 244 l 328 861 l 260 861 l 217 654 l 26 654 l 26 1100 l 1015 1100 l 1015 654 l 824 654 m 428 1153 l 243 1409 l 347 1477 l 520 1311 l 693 1477 l 798 1409 l 612 1154 l 428 1153 z "},"ť":{"ha":1044,"x_min":28,"x_max":1013,"o":"m 568 236 q 494 227 525 227 q 442 249 456 227 q 428 297 428 271 l 429 516 l 532 516 l 532 727 l 429 727 l 429 954 l 98 882 l 98 727 l 28 727 l 28 516 l 102 516 l 101 261 q 359 -12 100 -12 q 465 -1 413 -12 q 543 22 517 10 l 568 33 l 568 236 m 651 701 q 704 706 682 701 q 740 721 726 710 q 762 742 754 731 q 774 773 770 753 q 779 809 778 793 q 779 852 779 824 l 651 852 l 651 1101 l 997 1101 q 1013 913 1013 996 q 925 636 1013 724 q 651 549 837 549 l 651 701 z "},"Ŧ":{"ha":1041,"x_min":26,"x_max":1015,"o":"m 824 654 l 782 861 l 710 861 l 710 580 l 774 580 l 774 434 l 710 434 l 710 244 l 821 244 l 821 0 l 217 0 l 217 244 l 328 244 l 328 434 l 267 434 l 267 580 l 328 580 l 328 861 l 260 861 l 217 654 l 26 654 l 26 1100 l 1015 1100 l 1015 654 l 824 654 z "},"ŧ":{"ha":592,"x_min":28,"x_max":568,"o":"m 568 33 l 543 22 q 465 -1 517 10 q 359 -12 413 -12 q 101 261 100 -12 l 101 316 l 28 316 l 28 459 l 101 459 l 102 516 l 28 516 l 28 727 l 98 727 l 98 882 l 429 954 l 429 727 l 532 727 l 532 516 l 429 516 l 428 459 l 529 459 l 529 316 l 428 316 l 428 297 q 442 249 428 271 q 494 227 456 227 q 568 236 525 227 l 568 33 z "},"Ũ":{"ha":1141,"x_min":29,"x_max":1112,"o":"m 1007 861 l 1112 861 l 1112 1100 l 668 1100 l 668 861 l 779 861 l 779 363 q 744 269 779 304 q 646 235 709 235 q 585 250 611 235 q 545 290 559 264 q 525 345 531 315 q 518 407 518 374 l 518 861 l 618 861 l 618 1100 l 29 1100 l 29 861 l 138 861 l 138 477 q 143 367 138 418 q 162 264 149 316 q 196 172 175 213 q 250 94 217 130 q 327 33 283 57 q 431 -6 371 8 q 566 -20 492 -20 q 782 26 682 -20 q 945 159 882 73 q 1007 353 1007 245 l 1007 861 m 688 1407 q 743 1394 718 1407 q 785 1357 767 1381 q 815 1311 802 1334 q 845 1257 829 1288 q 873 1209 861 1227 l 796 1159 q 728 1219 747 1206 q 696 1232 709 1232 q 624 1212 666 1232 q 537 1171 582 1192 q 454 1150 492 1150 q 399 1163 424 1150 q 357 1199 375 1175 q 326 1245 339 1222 q 297 1298 313 1267 q 269 1347 281 1329 l 346 1398 q 416 1335 397 1348 q 448 1322 435 1322 q 504 1335 472 1322 q 562 1364 536 1348 q 623 1393 589 1380 q 688 1407 658 1407 z "},"ũ":{"ha":994,"x_min":36,"x_max":943,"o":"m 557 106 q 457 18 519 48 q 314 -12 394 -12 q 90 261 90 -12 l 90 516 l 36 516 l 36 727 l 425 727 l 425 297 q 444 238 425 261 q 486 216 462 216 q 537 239 518 216 q 557 297 557 262 l 557 516 l 502 516 l 502 727 l 892 727 l 892 207 l 943 207 l 943 0 l 557 0 l 557 106 m 614 1033 q 669 1020 644 1033 q 711 984 693 1007 q 742 937 728 960 q 771 884 755 914 q 799 836 787 853 l 722 785 q 654 846 673 833 q 623 859 635 859 q 550 838 592 859 q 463 797 508 818 q 380 777 418 777 q 326 789 350 777 q 283 825 301 802 q 252 871 265 848 q 223 925 239 894 q 195 973 207 956 l 272 1024 q 342 961 323 975 q 374 948 361 948 q 430 961 398 948 q 488 990 462 975 q 549 1020 515 1006 q 614 1033 584 1033 z "},"Ū":{"ha":1141,"x_min":29,"x_max":1112,"o":"m 1007 861 l 1112 861 l 1112 1100 l 668 1100 l 668 861 l 779 861 l 779 363 q 744 269 779 304 q 646 235 709 235 q 585 250 611 235 q 545 290 559 264 q 525 345 531 315 q 518 407 518 374 l 518 861 l 618 861 l 618 1100 l 29 1100 l 29 861 l 138 861 l 138 477 q 143 367 138 418 q 162 264 149 316 q 196 172 175 213 q 250 94 217 130 q 327 33 283 57 q 431 -6 371 8 q 566 -20 492 -20 q 782 26 682 -20 q 945 159 882 73 q 1007 353 1007 245 l 1007 861 m 824 1176 l 317 1176 l 317 1403 l 824 1403 l 824 1176 z "},"ū":{"ha":994,"x_min":36,"x_max":943,"o":"m 557 106 q 457 18 519 48 q 314 -12 394 -12 q 90 261 90 -12 l 90 516 l 36 516 l 36 727 l 425 727 l 425 297 q 444 238 425 261 q 486 216 462 216 q 537 239 518 216 q 557 297 557 262 l 557 516 l 502 516 l 502 727 l 892 727 l 892 207 l 943 207 l 943 0 l 557 0 l 557 106 m 750 802 l 243 802 l 243 1029 l 750 1029 l 750 802 z "},"Ŭ":{"ha":1141,"x_min":29,"x_max":1112,"o":"m 1007 861 l 1112 861 l 1112 1100 l 668 1100 l 668 861 l 779 861 l 779 363 q 744 269 779 304 q 646 235 709 235 q 585 250 611 235 q 545 290 559 264 q 525 345 531 315 q 518 407 518 374 l 518 861 l 618 861 l 618 1100 l 29 1100 l 29 861 l 138 861 l 138 477 q 143 367 138 418 q 162 264 149 316 q 196 172 175 213 q 250 94 217 130 q 327 33 283 57 q 431 -6 371 8 q 566 -20 492 -20 q 782 26 682 -20 q 945 159 882 73 q 1007 353 1007 245 l 1007 861 m 570 1218 q 366 1286 435 1218 q 296 1474 296 1354 l 467 1474 q 498 1393 467 1422 q 570 1364 528 1364 q 643 1393 612 1364 q 673 1474 673 1422 l 844 1474 q 774 1286 844 1354 q 570 1218 704 1218 z "},"ŭ":{"ha":994,"x_min":36,"x_max":943,"o":"m 557 106 q 457 18 519 48 q 314 -12 394 -12 q 90 261 90 -12 l 90 516 l 36 516 l 36 727 l 425 727 l 425 297 q 444 238 425 261 q 486 216 462 216 q 537 239 518 216 q 557 297 557 262 l 557 516 l 502 516 l 502 727 l 892 727 l 892 207 l 943 207 l 943 0 l 557 0 l 557 106 m 498 844 q 294 912 363 844 q 224 1100 224 980 l 395 1100 q 426 1020 395 1048 q 498 991 456 991 q 571 1020 541 991 q 602 1100 602 1048 l 772 1100 q 702 912 772 981 q 498 844 632 844 z "},"Ů":{"ha":1141,"x_min":29,"x_max":1112,"o":"m 1007 861 l 1112 861 l 1112 1100 l 668 1100 l 668 861 l 779 861 l 779 363 q 744 269 779 304 q 646 235 709 235 q 585 250 611 235 q 545 290 559 264 q 525 345 531 315 q 518 407 518 374 l 518 861 l 618 861 l 618 1100 l 29 1100 l 29 861 l 138 861 l 138 477 q 143 367 138 418 q 162 264 149 316 q 196 172 175 213 q 250 94 217 130 q 327 33 283 57 q 431 -6 371 8 q 566 -20 492 -20 q 782 26 682 -20 q 945 159 882 73 q 1007 353 1007 245 l 1007 861 m 568 1215 q 650 1244 620 1215 q 680 1315 680 1274 q 650 1384 680 1355 q 568 1413 621 1413 q 487 1384 516 1413 q 458 1315 458 1355 q 488 1244 458 1274 q 568 1215 517 1215 m 568 1145 q 433 1196 481 1145 q 384 1316 384 1247 q 432 1432 384 1383 q 568 1481 480 1481 q 708 1432 658 1481 q 758 1316 758 1383 q 707 1196 758 1247 q 568 1145 656 1145 z "},"ů":{"ha":994,"x_min":36,"x_max":943,"o":"m 557 106 q 457 18 519 48 q 314 -12 394 -12 q 90 261 90 -12 l 90 516 l 36 516 l 36 727 l 425 727 l 425 297 q 444 238 425 261 q 486 216 462 216 q 537 239 518 216 q 557 297 557 262 l 557 516 l 502 516 l 502 727 l 892 727 l 892 207 l 943 207 l 943 0 l 557 0 l 557 106 m 494 841 q 576 871 546 841 q 606 941 606 901 q 576 1010 606 981 q 494 1040 547 1040 q 413 1010 442 1040 q 385 941 385 981 q 414 871 385 901 q 494 841 443 841 m 494 772 q 359 823 408 772 q 310 942 310 873 q 358 1058 310 1009 q 494 1107 406 1107 q 634 1059 584 1107 q 684 942 684 1010 q 633 823 684 873 q 494 772 583 772 z "},"Ű":{"ha":1141,"x_min":29,"x_max":1112,"o":"m 1007 861 l 1112 861 l 1112 1100 l 668 1100 l 668 861 l 779 861 l 779 363 q 744 269 779 304 q 646 235 709 235 q 585 250 611 235 q 545 290 559 264 q 525 345 531 315 q 518 407 518 374 l 518 861 l 618 861 l 618 1100 l 29 1100 l 29 861 l 138 861 l 138 477 q 143 367 138 418 q 162 264 149 316 q 196 172 175 213 q 250 94 217 130 q 327 33 283 57 q 431 -6 371 8 q 566 -20 492 -20 q 782 26 682 -20 q 945 159 882 73 q 1007 353 1007 245 l 1007 861 m 606 1523 l 411 1139 l 299 1179 l 403 1604 l 606 1523 m 914 1461 l 627 1139 l 530 1206 l 738 1591 l 914 1461 z "},"ű":{"ha":994,"x_min":36,"x_max":943,"o":"m 557 106 q 457 18 519 48 q 314 -12 394 -12 q 90 261 90 -12 l 90 516 l 36 516 l 36 727 l 425 727 l 425 297 q 444 238 425 261 q 486 216 462 216 q 537 239 518 216 q 557 297 557 262 l 557 516 l 502 516 l 502 727 l 892 727 l 892 207 l 943 207 l 943 0 l 557 0 l 557 106 m 498 1149 l 302 765 l 191 806 l 294 1230 l 498 1149 m 806 1088 l 519 766 l 421 833 l 629 1217 l 806 1088 z "},"Ų":{"ha":1141,"x_min":29,"x_max":1112,"o":"m 1007 861 l 1112 861 l 1112 1100 l 668 1100 l 668 861 l 779 861 l 779 363 q 744 269 779 304 q 646 235 709 235 q 585 250 611 235 q 545 290 559 264 q 525 345 531 315 q 518 407 518 374 l 518 861 l 618 861 l 618 1100 l 29 1100 l 29 861 l 138 861 l 138 477 q 143 367 138 418 q 162 264 149 316 q 196 172 175 213 q 250 94 217 130 q 327 33 283 57 q 431 -6 371 8 q 566 -20 492 -20 q 782 26 682 -20 q 945 159 882 73 q 1007 353 1007 245 l 1007 861 m 712 0 q 667 -82 692 -41 q 629 -145 641 -123 q 617 -184 617 -168 q 648 -233 617 -214 q 744 -252 678 -252 l 744 -329 l 730 -329 q 553 -289 627 -329 q 479 -193 479 -249 q 483 -172 479 -182 q 497 -142 486 -161 q 517 -109 508 -123 q 550 -60 526 -96 q 590 0 574 -25 l 712 0 z "},"ų":{"ha":994,"x_min":36,"x_max":943,"o":"m 557 106 q 457 18 519 48 q 314 -12 394 -12 q 90 261 90 -12 l 90 516 l 36 516 l 36 727 l 425 727 l 425 297 q 444 238 425 261 q 486 216 462 216 q 537 239 518 216 q 557 297 557 262 l 557 516 l 502 516 l 502 727 l 892 727 l 892 207 l 943 207 l 943 0 l 557 0 l 557 106 m 911 0 q 866 -82 892 -41 q 828 -145 840 -123 q 817 -184 817 -168 q 847 -233 817 -214 q 943 -252 878 -252 l 943 -329 l 929 -329 q 752 -289 826 -329 q 679 -193 679 -249 q 682 -172 679 -182 q 696 -142 686 -161 q 716 -109 707 -123 q 749 -60 725 -96 q 789 0 773 -25 l 911 0 z "},"Ŵ":{"ha":1668,"x_min":-3,"x_max":1677,"o":"m -3 1101 l -3 861 l 94 861 l 331 0 l 695 0 l 832 479 l 963 0 l 1331 0 l 1549 779 q 1591 844 1563 827 q 1677 861 1620 861 l 1677 1101 l 1236 1101 l 1236 861 q 1302 853 1286 861 q 1310 814 1318 844 l 1219 477 l 1047 1101 l 770 1101 l 593 456 l 486 861 l 581 861 l 581 1101 l -3 1101 m 926 1459 l 1112 1204 l 1007 1135 l 834 1301 l 661 1135 l 557 1204 l 742 1459 l 926 1459 z "},"ŵ":{"ha":1308,"x_min":18,"x_max":1303,"o":"m 541 0 l 643 292 l 731 0 l 1053 0 l 1157 328 q 1168 367 1161 341 q 1180 406 1175 392 q 1192 440 1184 420 q 1209 472 1200 460 q 1231 494 1218 483 q 1262 511 1244 506 q 1303 516 1280 516 l 1303 727 l 925 727 l 925 516 q 939 516 933 516 q 953 515 945 515 q 967 513 962 515 q 979 509 972 511 q 989 503 986 507 q 996 493 993 498 q 998 480 998 488 q 996 463 998 472 l 938 258 q 888 409 925 292 q 821 627 851 526 l 790 727 l 610 727 l 467 266 l 391 516 l 468 516 l 468 727 l 18 727 l 18 516 l 64 516 l 239 0 l 541 0 m 745 1085 l 931 830 l 827 762 l 654 928 l 481 762 l 376 830 l 562 1086 l 745 1085 z "},"Ŷ":{"ha":1057,"x_min":-10,"x_max":1061,"o":"m 1061 1100 l 629 1100 l 629 861 q 644 861 634 861 q 659 861 654 861 q 671 861 663 861 q 682 860 678 861 q 691 858 686 859 q 698 854 696 857 q 703 848 701 851 q 707 839 706 844 q 708 828 708 834 q 631 673 708 791 q 569 767 616 694 q 506 861 521 841 l 568 861 l 568 1100 l -10 1100 l -10 861 l 66 861 l 351 456 l 351 243 l 246 243 l 246 0 l 836 0 l 836 243 l 729 243 l 729 491 l 867 743 q 891 786 884 773 q 913 818 899 800 q 939 843 926 836 q 969 856 951 850 q 1010 861 987 861 l 1061 861 l 1061 1100 m 620 1459 l 806 1204 l 701 1135 l 528 1301 l 355 1135 l 251 1204 l 436 1459 l 620 1459 z "},"ŷ":{"ha":934,"x_min":2,"x_max":931,"o":"m 244 -256 l 713 -256 l 713 -56 l 555 -56 l 812 426 q 833 464 826 453 q 854 490 840 475 q 886 511 868 505 q 931 516 905 516 l 931 727 l 538 727 l 538 516 q 599 509 585 516 q 602 449 624 496 l 536 308 l 417 516 l 463 516 l 463 727 l 2 727 l 2 516 l 62 516 l 378 21 l 244 -256 m 558 1085 l 744 830 l 640 762 l 467 928 l 294 762 l 189 830 l 374 1086 l 558 1085 z "},"Ÿ":{"ha":1057,"x_min":-10,"x_max":1061,"o":"m 1061 1100 l 629 1100 l 629 861 q 644 861 634 861 q 659 861 654 861 q 671 861 663 861 q 682 860 678 861 q 691 858 686 859 q 698 854 696 857 q 703 848 701 851 q 707 839 706 844 q 708 828 708 834 q 631 673 708 791 q 569 767 616 694 q 506 861 521 841 l 568 861 l 568 1100 l -10 1100 l -10 861 l 66 861 l 351 456 l 351 243 l 246 243 l 246 0 l 836 0 l 836 243 l 729 243 l 729 491 l 867 743 q 891 786 884 773 q 913 818 899 800 q 939 843 926 836 q 969 856 951 850 q 1010 861 987 861 l 1061 861 l 1061 1100 m 471 1291 q 426 1177 471 1218 q 319 1135 380 1135 q 210 1177 256 1135 q 164 1293 164 1219 q 210 1407 164 1366 q 317 1447 255 1447 q 425 1406 380 1447 q 471 1291 471 1365 m 889 1291 q 844 1177 889 1218 q 737 1135 799 1135 q 628 1177 674 1135 q 583 1293 583 1219 q 628 1407 583 1366 q 736 1447 673 1447 q 844 1406 798 1447 q 889 1291 889 1365 z "},"Ź":{"ha":1090,"x_min":68,"x_max":1028,"o":"m 1014 877 l 555 243 l 764 243 l 837 478 l 1028 478 l 1027 0 l 72 0 l 71 237 l 532 861 l 318 861 l 264 636 l 68 636 l 68 1100 l 1014 1100 l 1014 877 m 768 1352 l 392 1140 l 321 1236 l 643 1532 l 768 1352 z "},"ź":{"ha":823,"x_min":43,"x_max":779,"o":"m 43 0 l 779 0 l 779 306 l 655 306 q 641 264 648 281 q 624 236 634 248 q 605 219 613 225 q 578 211 596 214 q 546 207 559 208 q 505 207 533 207 l 436 207 l 436 214 l 754 539 l 754 727 l 61 727 l 61 431 l 195 431 q 197 459 195 447 q 205 480 199 471 q 217 495 212 489 q 235 506 223 502 q 255 512 247 509 q 280 515 263 514 q 307 516 297 515 q 338 516 317 516 l 378 516 l 378 509 l 43 192 l 43 0 m 635 979 l 259 766 l 189 862 l 510 1158 l 635 979 z "},"Ż":{"ha":1090,"x_min":68,"x_max":1028,"o":"m 1014 877 l 555 243 l 764 243 l 837 478 l 1028 478 l 1027 0 l 72 0 l 71 237 l 532 861 l 318 861 l 264 636 l 68 636 l 68 1100 l 1014 1100 l 1014 877 m 541 1150 q 407 1196 460 1150 q 353 1320 353 1242 q 406 1441 353 1396 q 541 1486 458 1486 q 682 1441 627 1486 q 736 1320 736 1396 q 680 1196 736 1242 q 541 1150 624 1150 z "},"ż":{"ha":823,"x_min":43,"x_max":779,"o":"m 43 0 l 779 0 l 779 306 l 655 306 q 641 264 648 281 q 624 236 634 248 q 605 219 613 225 q 578 211 596 214 q 546 207 559 208 q 505 207 533 207 l 436 207 l 436 214 l 754 539 l 754 727 l 61 727 l 61 431 l 195 431 q 197 459 195 447 q 205 480 199 471 q 217 495 212 489 q 235 506 223 502 q 255 512 247 509 q 280 515 263 514 q 307 516 297 515 q 338 516 317 516 l 378 516 l 378 509 l 43 192 l 43 0 m 408 777 q 274 822 328 777 q 220 946 220 868 q 273 1067 220 1023 q 408 1112 326 1112 q 549 1067 494 1112 q 603 946 603 1023 q 547 822 603 868 q 408 777 491 777 z "},"Ž":{"ha":1090,"x_min":68,"x_max":1028,"o":"m 1014 1100 l 68 1100 l 68 636 l 264 636 l 318 861 l 532 861 l 71 237 l 72 0 l 1027 0 l 1028 478 l 837 478 l 764 243 l 555 243 l 1014 877 l 1014 1100 m 454 1153 l 269 1409 l 373 1477 l 546 1311 l 719 1477 l 823 1409 l 637 1154 l 454 1153 z "},"ž":{"ha":823,"x_min":43,"x_max":779,"o":"m 43 0 l 779 0 l 779 306 l 655 306 q 641 264 648 281 q 624 236 634 248 q 605 219 613 225 q 578 211 596 214 q 546 207 559 208 q 505 207 533 207 l 436 207 l 436 214 l 754 539 l 754 727 l 61 727 l 61 431 l 195 431 q 197 459 195 447 q 205 480 199 471 q 217 495 212 489 q 235 506 223 502 q 255 512 247 509 q 280 515 263 514 q 307 516 297 515 q 338 516 317 516 l 378 516 l 378 509 l 43 192 l 43 0 m 319 779 l 134 1035 l 238 1103 l 411 937 l 584 1103 l 688 1035 l 503 780 l 319 779 z "},"ƒ":{"ha":604,"x_min":-7,"x_max":597,"o":"m 463 516 q 464 111 463 201 q 399 -92 464 -22 q 202 -162 334 -162 q 93 -153 148 -162 q 21 -139 39 -144 q -7 -130 3 -134 l -7 81 q 58 72 33 72 q 117 100 100 72 q 133 203 133 128 l 133 516 l 76 516 l 76 727 l 132 727 q 131 819 132 729 q 389 1092 131 1092 q 497 1083 443 1092 q 570 1069 552 1074 q 597 1060 588 1063 l 597 849 q 532 858 558 858 q 472 829 490 858 q 458 727 454 800 l 579 727 l 579 516 l 463 516 l 463 516 z "},"Ǔ":{"ha":1141,"x_min":29,"x_max":1112,"o":"m 1007 861 l 1112 861 l 1112 1100 l 668 1100 l 668 861 l 779 861 l 779 363 q 744 269 779 304 q 646 235 709 235 q 585 250 611 235 q 545 290 559 264 q 525 345 531 315 q 518 407 518 374 l 518 861 l 618 861 l 618 1100 l 29 1100 l 29 861 l 138 861 l 138 477 q 143 367 138 418 q 162 264 149 316 q 196 172 175 213 q 250 94 217 130 q 327 33 283 57 q 431 -6 371 8 q 566 -20 492 -20 q 782 26 682 -20 q 945 159 882 73 q 1007 353 1007 245 l 1007 861 m 478 1153 l 293 1409 l 397 1477 l 570 1311 l 743 1477 l 848 1409 l 662 1154 l 478 1153 z "},"ǔ":{"ha":994,"x_min":36,"x_max":943,"o":"m 557 106 q 457 18 519 48 q 314 -12 394 -12 q 90 261 90 -12 l 90 516 l 36 516 l 36 727 l 425 727 l 425 297 q 444 238 425 261 q 486 216 462 216 q 537 239 518 216 q 557 297 557 262 l 557 516 l 502 516 l 502 727 l 892 727 l 892 207 l 943 207 l 943 0 l 557 0 l 557 106 m 404 779 l 219 1035 l 323 1103 l 496 937 l 669 1103 l 774 1035 l 588 780 l 404 779 z "},"Ǣ":{"ha":1450,"x_min":-7,"x_max":1374,"o":"m 1185 657 l 1133 862 l 989 862 l 989 670 l 1128 670 l 1128 431 l 989 431 l 989 237 l 1137 237 l 1146 285 l 1189 466 l 1374 466 l 1374 0 l 541 0 l 540 255 l 621 255 q 597 366 643 366 l 410 366 q 395 359 401 366 q 387 345 389 352 q 382 323 385 337 q 381 283 378 311 q 398 255 384 255 l 455 255 l 455 0 l -7 -1 l -7 240 q 31 243 14 240 q 62 252 47 245 q 87 265 76 259 q 109 283 98 271 q 125 304 119 296 q 141 329 132 311 q 154 354 150 347 q 166 384 157 362 q 179 412 176 405 l 397 864 l 254 864 l 302 1101 l 1367 1101 l 1367 658 l 1185 657 m 616 523 l 616 876 l 454 523 l 616 523 m 1073 1176 l 566 1176 l 566 1403 l 1073 1403 l 1073 1176 z "},"ǣ":{"ha":1296,"x_min":20,"x_max":1265,"o":"m 20 203 q 46 298 20 255 q 113 367 71 340 q 207 407 155 393 q 315 421 259 421 q 489 395 414 421 l 489 426 q 346 538 489 538 q 200 474 249 538 l 81 474 l 81 687 l 127 699 q 254 723 172 711 q 409 734 336 734 q 498 726 455 734 q 568 706 542 717 q 618 680 595 694 q 648 661 642 666 q 659 652 655 655 l 668 661 q 697 682 677 669 q 744 706 718 694 q 809 727 770 718 q 892 736 849 736 q 1095 686 1008 736 q 1223 555 1181 636 q 1265 372 1265 473 q 1262 318 1265 349 q 1253 301 1256 304 q 1237 299 1250 299 l 829 299 q 861 191 829 236 q 949 146 893 146 q 1020 170 998 146 q 1044 243 1042 193 l 1252 243 l 1252 81 q 1076 5 1162 28 q 881 -17 989 -17 q 656 71 753 -17 q 502 0 586 20 q 284 -18 417 -20 q 154 8 213 -18 q 58 84 95 33 q 20 203 20 135 m 353 215 q 370 165 353 184 q 418 146 388 146 q 458 155 439 146 q 483 169 477 163 q 491 177 488 174 l 491 277 l 481 280 q 455 287 472 283 q 424 291 439 291 q 374 268 395 291 q 353 215 353 244 m 830 420 l 976 420 q 975 462 977 444 q 967 502 973 479 q 945 535 961 524 q 903 547 928 547 q 848 514 867 547 q 830 440 830 481 l 830 420 m 920 802 l 413 802 l 413 1029 l 920 1029 l 920 802 z "},"Ǽ":{"ha":1450,"x_min":-7,"x_max":1374,"o":"m 1185 657 l 1133 862 l 989 862 l 989 670 l 1128 670 l 1128 431 l 989 431 l 989 237 l 1137 237 l 1146 285 l 1189 466 l 1374 466 l 1374 0 l 541 0 l 540 255 l 621 255 q 597 366 643 366 l 410 366 q 395 359 401 366 q 387 345 389 352 q 382 323 385 337 q 381 283 378 311 q 398 255 384 255 l 455 255 l 455 0 l -7 -1 l -7 240 q 31 243 14 240 q 62 252 47 245 q 87 265 76 259 q 109 283 98 271 q 125 304 119 296 q 141 329 132 311 q 154 354 150 347 q 166 384 157 362 q 179 412 176 405 l 397 864 l 254 864 l 302 1101 l 1367 1101 l 1367 658 l 1185 657 m 616 523 l 616 876 l 454 523 l 616 523 m 948 1352 l 572 1140 l 502 1236 l 823 1532 l 948 1352 z "},"ǽ":{"ha":1296,"x_min":20,"x_max":1265,"o":"m 20 203 q 46 298 20 255 q 113 367 71 340 q 207 407 155 393 q 315 421 259 421 q 489 395 414 421 l 489 426 q 346 538 489 538 q 200 474 249 538 l 81 474 l 81 687 l 127 699 q 254 723 172 711 q 409 734 336 734 q 498 726 455 734 q 568 706 542 717 q 618 680 595 694 q 648 661 642 666 q 659 652 655 655 l 668 661 q 697 682 677 669 q 744 706 718 694 q 809 727 770 718 q 892 736 849 736 q 1095 686 1008 736 q 1223 555 1181 636 q 1265 372 1265 473 q 1262 318 1265 349 q 1253 301 1256 304 q 1237 299 1250 299 l 829 299 q 861 191 829 236 q 949 146 893 146 q 1020 170 998 146 q 1044 243 1042 193 l 1252 243 l 1252 81 q 1076 5 1162 28 q 881 -17 989 -17 q 656 71 753 -17 q 502 0 586 20 q 284 -18 417 -20 q 154 8 213 -18 q 58 84 95 33 q 20 203 20 135 m 353 215 q 370 165 353 184 q 418 146 388 146 q 458 155 439 146 q 483 169 477 163 q 491 177 488 174 l 491 277 l 481 280 q 455 287 472 283 q 424 291 439 291 q 374 268 395 291 q 353 215 353 244 m 830 420 l 976 420 q 975 462 977 444 q 967 502 973 479 q 945 535 961 524 q 903 547 928 547 q 848 514 867 547 q 830 440 830 481 l 830 420 m 871 979 l 495 766 l 425 862 l 746 1158 l 871 979 z "},"Ǿ":{"ha":1183,"x_min":35,"x_max":1147,"o":"m 385 -105 l 410 8 q 138 210 241 64 q 35 548 35 356 q 107 854 35 723 q 306 1053 180 985 q 591 1121 431 1121 q 666 1116 623 1121 l 691 1223 l 795 1203 l 770 1096 q 1045 902 943 1045 q 1147 548 1147 758 q 1074 258 1147 389 q 873 54 1001 128 q 591 -20 746 -20 q 520 -16 555 -20 l 494 -132 l 385 -105 m 591 879 q 543 871 564 879 q 507 848 522 863 q 482 814 493 833 q 465 772 471 795 q 455 725 459 749 q 450 675 450 700 q 448 627 449 650 q 448 582 447 603 q 448 558 448 566 q 448 526 448 557 q 448 487 448 495 q 449 450 448 479 q 452 408 450 422 q 457 371 454 393 q 465 330 460 348 q 477 297 470 313 l 611 878 q 591 879 597 879 m 591 216 q 638 225 617 216 q 674 250 659 234 q 699 286 688 265 q 716 332 710 307 q 726 383 722 357 q 731 436 730 410 q 733 489 732 463 q 733 538 734 515 q 733 558 733 551 q 733 588 733 563 q 733 624 734 613 q 732 659 733 635 q 730 698 732 683 q 725 734 728 713 q 716 771 722 754 q 705 804 711 789 l 573 217 q 591 216 578 216 m 814 1352 l 439 1140 l 368 1236 l 690 1532 l 814 1352 z "},"ǿ":{"ha":875,"x_min":29,"x_max":846,"o":"m 29 371 q 138 644 29 547 q 437 740 248 740 q 736 644 627 740 q 846 371 846 547 q 794 165 846 252 q 650 33 742 77 q 437 -12 558 -12 q 225 33 317 -12 q 81 165 133 77 q 29 371 29 252 m 345 370 q 437 199 345 199 q 530 370 530 199 q 527 428 530 404 q 515 477 524 452 q 487 515 507 503 q 437 528 467 528 q 388 515 408 528 q 359 477 368 503 q 348 428 351 452 q 345 370 345 404 m 167 -37 l 642 808 l 701 774 l 226 -71 l 167 -37 m 661 979 l 285 766 l 214 862 l 536 1158 l 661 979 z "},"Ȁ":{"ha":1114,"x_min":3,"x_max":1108,"o":"m 804 1101 l 130 1101 l 130 861 l 273 861 l 157 401 q 131 313 138 330 q 56 249 109 262 q 3 243 33 243 l 3 0 l 463 0 l 463 243 l 406 243 q 384 268 391 243 q 376 311 376 292 q 378 333 377 326 q 383 348 378 340 q 397 355 388 355 l 583 355 q 629 243 629 355 l 547 243 l 548 0 l 1108 0 l 1108 243 l 1050 243 q 1032 252 1040 243 q 1021 271 1025 260 q 1012 303 1017 282 l 804 1101 m 415 524 l 491 869 l 570 524 l 415 524 m 593 1617 l 696 1193 l 585 1152 l 389 1537 l 593 1617 m 186 1605 l 394 1220 l 296 1153 l 9 1475 l 186 1605 z "},"ȁ":{"ha":878,"x_min":-15,"x_max":846,"o":"m 20 209 q 97 48 20 108 q 284 -12 174 -12 q 399 12 340 -12 q 492 81 458 37 l 526 0 l 846 0 l 846 207 l 794 207 l 794 509 q 777 593 794 555 q 734 654 760 631 q 670 695 709 678 q 599 721 632 713 q 524 734 566 730 q 459 740 481 739 q 409 741 437 741 q 254 729 336 741 q 127 705 172 717 l 81 693 l 81 480 l 200 480 q 346 545 249 545 q 489 432 489 545 l 489 401 q 315 427 414 427 q 207 413 259 427 q 113 373 155 399 q 46 304 71 347 q 20 209 20 261 m 353 221 q 374 274 353 250 q 424 297 395 297 q 455 294 439 297 q 481 286 472 290 l 491 283 l 491 183 q 483 175 488 180 q 458 161 477 170 q 418 152 439 152 q 370 171 388 152 q 353 221 353 191 m 568 1250 l 672 825 l 560 785 l 365 1169 l 568 1250 m 161 1237 l 370 852 l 272 785 l -15 1107 l 161 1237 z "},"Ȃ":{"ha":1114,"x_min":3,"x_max":1108,"o":"m 804 1101 l 130 1101 l 130 861 l 273 861 l 157 401 q 131 313 138 330 q 56 249 109 262 q 3 243 33 243 l 3 0 l 463 0 l 463 243 l 406 243 q 384 268 391 243 q 376 311 376 292 q 378 333 377 326 q 383 348 378 340 q 397 355 388 355 l 583 355 q 629 243 629 355 l 547 243 l 548 0 l 1108 0 l 1108 243 l 1050 243 q 1032 252 1040 243 q 1021 271 1025 260 q 1012 303 1017 282 l 804 1101 m 415 524 l 491 869 l 570 524 l 415 524 m 593 1617 l 696 1193 l 585 1152 l 389 1537 l 593 1617 m 186 1605 l 394 1220 l 296 1153 l 9 1475 l 186 1605 z "},"ȃ":{"ha":878,"x_min":-15,"x_max":846,"o":"m 20 209 q 97 48 20 108 q 284 -12 174 -12 q 399 12 340 -12 q 492 81 458 37 l 526 0 l 846 0 l 846 207 l 794 207 l 794 509 q 777 593 794 555 q 734 654 760 631 q 670 695 709 678 q 599 721 632 713 q 524 734 566 730 q 459 740 481 739 q 409 741 437 741 q 254 729 336 741 q 127 705 172 717 l 81 693 l 81 480 l 200 480 q 346 545 249 545 q 489 432 489 545 l 489 401 q 315 427 414 427 q 207 413 259 427 q 113 373 155 399 q 46 304 71 347 q 20 209 20 261 m 353 221 q 374 274 353 250 q 424 297 395 297 q 455 294 439 297 q 481 286 472 290 l 491 283 l 491 183 q 483 175 488 180 q 458 161 477 170 q 418 152 439 152 q 370 171 388 152 q 353 221 353 191 m 568 1250 l 672 825 l 560 785 l 365 1169 l 568 1250 m 161 1237 l 370 852 l 272 785 l -15 1107 l 161 1237 z "},"Ȅ":{"ha":1010,"x_min":67,"x_max":935,"o":"m 927 657 l 927 1101 l 67 1101 l 67 861 l 174 861 l 174 243 l 67 243 l 67 0 l 935 0 l 935 466 l 749 466 l 707 285 l 698 243 l 549 243 l 549 431 l 688 431 l 688 670 l 549 670 l 549 861 l 694 861 l 745 656 l 927 657 m 670 1617 l 774 1193 l 662 1152 l 467 1537 l 670 1617 m 263 1605 l 471 1220 l 374 1153 l 87 1475 l 263 1605 z "},"ȅ":{"ha":830,"x_min":-12,"x_max":799,"o":"m 414 -12 q 609 10 523 -12 q 785 86 696 33 l 785 248 l 577 248 q 553 174 576 198 q 482 151 531 151 q 394 196 427 151 q 362 304 362 241 l 770 304 q 786 306 783 304 q 795 323 789 309 q 799 376 799 353 q 756 559 799 478 q 628 691 714 641 q 425 741 542 741 q 212 690 303 741 q 74 552 121 640 q 27 353 27 465 q 77 170 27 254 q 215 37 126 87 q 414 -12 304 -12 m 363 445 q 382 519 363 486 q 437 552 400 552 q 478 540 462 552 q 500 506 494 528 q 508 467 507 484 q 509 425 510 449 l 363 425 l 363 445 m 571 1250 l 675 825 l 563 785 l 368 1169 l 571 1250 m 164 1237 l 372 852 l 275 785 l -12 1107 l 164 1237 z "},"Ȇ":{"ha":1010,"x_min":67,"x_max":935,"o":"m 745 656 l 694 861 l 549 861 l 549 670 l 688 670 l 688 431 l 549 431 l 549 243 l 698 243 l 707 285 l 749 466 l 935 466 l 935 0 l 67 0 l 67 243 l 174 243 l 174 861 l 67 861 l 67 1101 l 927 1101 l 927 657 l 745 656 m 247 1152 q 270 1254 247 1208 q 333 1328 294 1299 q 420 1371 372 1356 q 521 1385 469 1385 q 622 1371 573 1385 q 709 1328 670 1356 q 771 1254 748 1299 q 795 1152 795 1208 l 624 1152 q 593 1233 624 1204 q 521 1261 563 1261 q 448 1233 479 1261 q 418 1152 418 1204 l 247 1152 z "},"ȇ":{"ha":830,"x_min":27,"x_max":799,"o":"m 414 -12 q 215 37 304 -12 q 77 170 126 87 q 27 353 27 254 q 74 552 27 465 q 212 690 121 640 q 425 741 303 741 q 628 691 542 741 q 756 559 714 641 q 799 376 799 478 q 795 323 799 353 q 786 306 789 309 q 770 304 783 304 l 362 304 q 394 196 362 241 q 482 151 427 151 q 553 174 531 151 q 577 248 576 198 l 785 248 l 785 86 q 609 10 696 33 q 414 -12 523 -12 m 363 425 l 509 425 q 508 467 510 449 q 500 506 507 484 q 478 540 494 528 q 437 552 462 552 q 382 519 400 552 q 363 445 363 486 l 363 425 m 153 781 q 177 883 153 838 q 239 957 200 928 q 327 1000 278 985 q 427 1015 375 1015 q 528 1000 479 1015 q 615 957 576 985 q 678 883 654 928 q 701 781 701 838 l 530 781 q 500 862 530 833 q 427 890 469 890 q 355 862 385 890 q 324 781 324 833 l 153 781 z "},"Ȉ":{"ha":730,"x_min":-3,"x_max":684,"o":"m 659 1101 l 73 1101 l 73 861 l 170 861 l 170 243 l 71 243 l 71 0 l 655 0 l 655 243 l 559 243 l 559 861 l 659 861 l 659 1101 m 581 1617 l 684 1193 l 572 1152 l 377 1537 l 581 1617 m 174 1605 l 382 1220 l 284 1153 l -3 1475 l 174 1605 z "},"ȉ":{"ha":552,"x_min":-106,"x_max":581,"o":"m 449 727 l 62 727 l 62 507 l 123 507 l 123 203 l 67 203 l 67 0 l 506 0 l 506 203 l 449 203 l 449 727 m 477 1250 l 581 825 l 469 785 l 274 1169 l 477 1250 m 71 1237 l 279 852 l 181 785 l -106 1107 l 71 1237 z "},"Ȋ":{"ha":730,"x_min":71,"x_max":659,"o":"m 659 861 l 559 861 l 559 243 l 655 243 l 655 0 l 71 0 l 71 243 l 170 243 l 170 861 l 73 861 l 73 1101 l 659 1101 l 659 861 m 95 1152 q 118 1254 95 1208 q 181 1328 142 1299 q 268 1371 220 1356 q 369 1385 317 1385 q 470 1371 421 1385 q 557 1328 518 1356 q 620 1254 596 1299 q 643 1152 643 1208 l 472 1152 q 441 1233 472 1204 q 369 1261 411 1261 q 296 1233 327 1261 q 266 1152 266 1204 l 95 1152 z "},"ȋ":{"ha":553,"x_min":9,"x_max":557,"o":"m 449 203 l 506 203 l 506 0 l 67 0 l 67 203 l 123 203 l 123 507 l 62 507 l 62 727 l 449 727 l 449 203 m 9 781 q 33 883 9 838 q 95 957 56 928 q 183 1000 134 985 q 283 1015 231 1015 q 384 1000 336 1015 q 472 957 433 985 q 534 883 511 928 q 557 781 557 838 l 387 781 q 356 862 387 833 q 283 890 326 890 q 211 862 241 890 q 180 781 180 833 l 9 781 z "},"Ȍ":{"ha":1183,"x_min":35,"x_max":1147,"o":"m 1147 548 q 1075 258 1147 389 q 874 54 1002 128 q 591 -20 747 -20 q 309 54 436 -20 q 108 258 181 128 q 35 548 35 389 q 108 854 35 723 q 306 1053 181 985 q 591 1121 431 1121 q 877 1053 751 1121 q 1075 854 1002 985 q 1147 548 1147 723 m 591 216 q 639 225 618 216 q 674 250 660 234 q 700 286 689 265 q 717 332 711 307 q 727 383 723 357 q 732 436 731 410 q 734 489 733 463 q 734 538 734 515 q 734 558 734 551 q 734 582 734 566 q 734 633 733 606 q 731 689 734 661 q 724 745 728 718 q 709 797 720 772 q 683 840 698 821 q 645 868 669 858 q 591 879 621 879 q 544 871 565 879 q 508 848 522 863 q 483 814 494 833 q 466 772 471 795 q 455 725 460 749 q 450 675 451 700 q 449 627 450 650 q 449 582 448 603 q 449 558 449 566 q 449 538 449 551 q 449 495 450 517 q 450 449 448 473 q 454 401 452 425 q 461 354 456 377 q 473 311 466 331 q 490 273 479 290 q 515 243 501 256 q 549 223 529 231 q 591 216 568 216 m 756 1617 l 860 1193 l 748 1152 l 553 1537 l 756 1617 m 349 1605 l 557 1220 l 460 1153 l 173 1475 l 349 1605 z "},"ȍ":{"ha":875,"x_min":-23,"x_max":846,"o":"m 29 371 q 138 644 29 547 q 437 740 248 740 q 736 644 627 740 q 846 371 846 547 q 794 165 846 252 q 650 33 742 77 q 437 -12 558 -12 q 225 33 317 -12 q 81 165 133 77 q 29 371 29 252 m 345 370 q 437 199 345 199 q 530 370 530 199 q 527 428 530 404 q 515 477 524 452 q 487 515 507 503 q 437 528 467 528 q 388 515 408 528 q 359 477 368 503 q 348 428 351 452 q 345 370 345 404 m 560 1250 l 664 825 l 552 785 l 357 1169 l 560 1250 m 153 1237 l 361 852 l 264 785 l -23 1107 l 153 1237 z "},"Ȏ":{"ha":1183,"x_min":35,"x_max":1147,"o":"m 1147 548 q 1075 258 1147 389 q 874 54 1002 128 q 591 -20 747 -20 q 309 54 436 -20 q 108 258 181 128 q 35 548 35 389 q 108 854 35 723 q 306 1053 181 985 q 591 1121 431 1121 q 877 1053 751 1121 q 1075 854 1002 985 q 1147 548 1147 723 m 591 216 q 639 225 618 216 q 674 250 660 234 q 700 286 689 265 q 717 332 711 307 q 727 383 723 357 q 732 436 731 410 q 734 489 733 463 q 734 538 734 515 q 734 558 734 551 q 734 582 734 566 q 734 633 733 606 q 731 689 734 661 q 724 745 728 718 q 709 797 720 772 q 683 840 698 821 q 645 868 669 858 q 591 879 621 879 q 544 871 565 879 q 508 848 522 863 q 483 814 494 833 q 466 772 471 795 q 455 725 460 749 q 450 675 451 700 q 449 627 450 650 q 449 582 448 603 q 449 558 449 566 q 449 538 449 551 q 449 495 450 517 q 450 449 448 473 q 454 401 452 425 q 461 354 456 377 q 473 311 466 331 q 490 273 479 290 q 515 243 501 256 q 549 223 529 231 q 591 216 568 216 m 319 1152 q 342 1254 319 1208 q 405 1328 366 1299 q 492 1371 444 1356 q 593 1385 541 1385 q 693 1371 645 1385 q 781 1328 742 1356 q 843 1254 820 1299 q 867 1152 867 1208 l 696 1152 q 665 1233 696 1204 q 593 1261 635 1261 q 520 1233 551 1261 q 490 1152 490 1204 l 319 1152 z "},"ȏ":{"ha":875,"x_min":29,"x_max":846,"o":"m 29 371 q 138 644 29 547 q 437 740 248 740 q 736 644 627 740 q 846 371 846 547 q 794 165 846 252 q 650 33 742 77 q 437 -12 558 -12 q 225 33 317 -12 q 81 165 133 77 q 29 371 29 252 m 345 370 q 437 199 345 199 q 530 370 530 199 q 527 428 530 404 q 515 477 524 452 q 487 515 507 503 q 437 528 467 528 q 388 515 408 528 q 359 477 368 503 q 348 428 351 452 q 345 370 345 404 m 164 781 q 188 883 164 838 q 250 957 211 928 q 337 1000 289 985 q 438 1015 386 1015 q 539 1000 490 1015 q 626 957 587 985 q 689 883 665 928 q 712 781 712 838 l 541 781 q 511 862 541 833 q 438 890 480 890 q 366 862 396 890 q 335 781 335 833 l 164 781 z "},"Ȑ":{"ha":1197,"x_min":68,"x_max":1171,"o":"m 618 243 l 536 243 l 536 471 l 603 471 q 669 459 644 471 q 708 424 695 448 q 725 373 720 399 q 729 306 729 346 l 729 174 q 734 122 729 146 q 748 82 740 99 q 771 52 756 65 q 799 30 785 39 q 833 16 812 22 q 870 6 854 9 q 911 2 886 3 q 952 0 937 1 q 994 0 967 0 l 1171 0 l 1171 243 q 1111 248 1133 243 q 1077 263 1088 252 q 1063 285 1066 273 q 1060 316 1060 296 l 1060 379 q 1017 483 1060 441 q 872 547 973 524 q 1052 632 989 569 q 1116 793 1116 695 q 1090 937 1116 877 q 1017 1033 1065 997 q 904 1084 968 1068 q 757 1101 840 1101 l 68 1101 l 68 861 l 174 861 l 174 243 l 69 243 l 69 -1 q 618 0 439 0 l 618 243 m 532 624 l 532 861 l 614 861 q 709 829 675 861 q 743 743 743 797 q 729 685 743 709 q 690 648 715 661 q 636 629 665 635 q 574 624 608 624 l 532 624 m 671 1617 l 774 1193 l 663 1152 l 467 1537 l 671 1617 m 264 1605 l 472 1220 l 374 1153 l 87 1475 l 264 1605 z "},"ȑ":{"ha":679,"x_min":-27,"x_max":661,"o":"m 64 516 l 118 516 l 118 207 l 64 207 l 64 0 l 522 0 l 522 207 l 429 207 l 429 289 q 471 414 429 371 q 589 457 514 457 l 661 452 l 661 734 q 531 703 593 734 q 435 614 469 671 l 433 616 l 433 727 l 64 727 l 64 516 m 556 1250 l 660 825 l 548 785 l 353 1169 l 556 1250 m 149 1237 l 357 852 l 260 785 l -27 1107 l 149 1237 z "},"Ȓ":{"ha":1197,"x_min":68,"x_max":1171,"o":"m 618 0 q 69 -1 439 0 l 69 243 l 174 243 l 174 861 l 68 861 l 68 1101 l 757 1101 q 904 1084 840 1101 q 1017 1033 968 1068 q 1090 937 1065 997 q 1116 793 1116 877 q 1052 632 1116 695 q 872 547 989 569 q 1017 483 973 524 q 1060 379 1060 441 l 1060 316 q 1063 285 1060 296 q 1077 263 1066 273 q 1111 248 1088 252 q 1171 243 1133 243 l 1171 0 l 994 0 q 952 0 967 0 q 911 2 937 1 q 870 6 886 3 q 833 16 854 9 q 799 30 812 22 q 771 52 785 39 q 748 82 756 65 q 734 122 740 99 q 729 174 729 146 l 729 306 q 725 373 729 346 q 708 424 720 399 q 669 459 695 448 q 603 471 644 471 l 536 471 l 536 243 l 618 243 l 618 0 m 574 624 q 636 629 608 624 q 690 648 665 635 q 729 685 715 661 q 743 743 743 709 q 709 829 743 797 q 614 861 675 861 l 532 861 l 532 624 l 574 624 m 267 1152 q 291 1254 267 1208 q 353 1328 314 1299 q 440 1371 392 1356 q 541 1385 489 1385 q 642 1371 593 1385 q 729 1328 690 1356 q 792 1254 768 1299 q 815 1152 815 1208 l 644 1152 q 614 1233 644 1204 q 541 1261 583 1261 q 469 1233 499 1261 q 438 1152 438 1204 l 267 1152 z "},"ȓ":{"ha":678,"x_min":64,"x_max":660,"o":"m 64 727 l 432 727 l 432 616 l 435 614 q 530 703 468 671 q 660 734 593 734 l 660 452 l 588 457 q 471 414 513 457 q 428 289 428 371 l 428 207 l 521 207 l 521 0 l 64 0 l 64 207 l 117 207 l 117 516 l 64 516 l 64 727 m 88 781 q 112 883 88 838 q 174 957 135 928 q 261 1000 213 985 q 362 1015 310 1015 q 463 1000 414 1015 q 550 957 511 985 q 613 883 589 928 q 636 781 636 838 l 465 781 q 435 862 465 833 q 362 890 404 890 q 290 862 320 890 q 259 781 259 833 l 88 781 z "},"Ȕ":{"ha":1141,"x_min":29,"x_max":1112,"o":"m 1007 861 l 1112 861 l 1112 1100 l 668 1100 l 668 861 l 779 861 l 779 363 q 744 269 779 304 q 646 235 709 235 q 585 250 611 235 q 545 290 559 264 q 525 345 531 315 q 518 407 518 374 l 518 861 l 618 861 l 618 1100 l 29 1100 l 29 861 l 138 861 l 138 477 q 143 367 138 418 q 162 264 149 316 q 196 172 175 213 q 250 94 217 130 q 327 33 283 57 q 431 -6 371 8 q 566 -20 492 -20 q 782 26 682 -20 q 945 159 882 73 q 1007 353 1007 245 l 1007 861 m 703 1617 l 806 1193 l 694 1152 l 499 1537 l 703 1617 m 296 1605 l 504 1220 l 406 1153 l 119 1475 l 296 1605 z "},"ȕ":{"ha":994,"x_min":37,"x_max":944,"o":"m 557 0 l 944 0 l 944 207 l 892 207 l 892 727 l 503 727 l 503 516 l 557 516 l 557 297 q 538 239 557 262 q 487 216 519 216 q 444 238 463 216 q 426 297 426 261 l 426 727 l 37 727 l 37 516 l 91 516 l 91 261 q 315 -12 91 -12 q 457 18 395 -12 q 557 106 520 48 l 557 0 m 620 1250 l 724 825 l 612 785 l 416 1169 l 620 1250 m 213 1237 l 421 852 l 323 785 l 37 1107 l 213 1237 z "},"Ȗ":{"ha":1141,"x_min":29,"x_max":1112,"o":"m 1007 353 q 945 159 1007 245 q 782 26 882 73 q 566 -20 682 -20 q 431 -6 492 -20 q 327 33 371 8 q 250 94 283 57 q 196 172 217 130 q 162 264 175 213 q 143 367 149 316 q 138 477 138 418 l 138 861 l 29 861 l 29 1100 l 618 1100 l 618 861 l 518 861 l 518 407 q 525 345 518 374 q 545 290 531 315 q 585 250 559 264 q 646 235 611 235 q 744 269 709 235 q 779 363 779 304 l 779 861 l 668 861 l 668 1100 l 1112 1100 l 1112 861 l 1007 861 l 1007 353 m 345 1152 q 369 1254 345 1208 q 431 1328 392 1299 q 518 1371 470 1356 q 619 1385 567 1385 q 720 1371 671 1385 q 807 1328 768 1356 q 870 1254 846 1299 q 893 1152 893 1208 l 722 1152 q 692 1233 722 1204 q 619 1261 661 1261 q 547 1233 577 1261 q 516 1152 516 1204 l 345 1152 z "},"ȗ":{"ha":994,"x_min":37,"x_max":944,"o":"m 557 106 q 457 18 520 48 q 315 -12 395 -12 q 91 261 91 -12 l 91 516 l 37 516 l 37 727 l 426 727 l 426 297 q 444 238 426 261 q 487 216 463 216 q 538 239 519 216 q 557 297 557 262 l 557 516 l 503 516 l 503 727 l 892 727 l 892 207 l 944 207 l 944 0 l 557 0 l 557 106 m 197 781 q 221 883 197 838 q 283 957 244 928 q 371 1000 322 985 q 471 1015 419 1015 q 572 1000 524 1015 q 660 957 621 985 q 722 883 699 928 q 745 781 745 838 l 574 781 q 544 862 574 833 q 471 890 513 890 q 399 862 429 890 q 368 781 368 833 l 197 781 z "},"Ș":{"ha":901,"x_min":50,"x_max":867,"o":"m 786 1101 l 786 751 l 578 751 q 524 844 566 804 q 431 885 481 885 q 384 869 401 885 q 367 823 367 854 q 384 787 367 802 q 429 762 400 772 q 494 740 457 751 q 572 715 531 730 q 654 683 613 701 q 732 636 695 665 q 799 568 770 606 q 846 472 828 530 q 865 345 864 415 q 843 210 867 275 q 778 93 820 144 q 674 11 736 42 q 541 -20 612 -20 q 419 -1 468 -20 q 318 62 371 18 l 294 0 l 75 0 l 75 351 l 293 351 q 356 264 311 302 q 451 227 401 227 q 503 242 481 227 q 525 285 525 257 q 510 325 525 308 q 478 349 495 341 q 436 363 461 356 q 366 384 396 374 q 300 408 335 394 q 240 435 266 421 q 186 468 214 449 q 140 508 159 487 q 102 556 120 529 q 74 615 85 584 q 57 685 63 646 q 50 768 50 724 q 129 1025 50 930 q 359 1121 208 1121 q 571 1060 490 1121 q 593 1101 574 1068 l 786 1101 m 282 -457 q 335 -453 313 -457 q 371 -438 357 -448 q 393 -416 385 -427 q 405 -385 401 -406 q 410 -350 409 -365 q 410 -306 410 -334 l 282 -306 l 282 -58 l 628 -58 q 644 -245 644 -163 q 556 -522 644 -434 q 282 -610 468 -610 l 282 -457 z "},"ș":{"ha":715,"x_min":43,"x_max":675,"o":"m 165 -457 q 218 -453 196 -457 q 255 -438 241 -448 q 277 -416 269 -427 q 289 -385 285 -406 q 293 -350 292 -365 q 294 -306 294 -334 l 165 -306 l 165 -58 l 511 -58 q 528 -245 528 -162 q 439 -522 528 -434 q 165 -610 351 -610 l 165 -457 m 526 516 l 519 530 q 507 561 514 545 q 496 581 499 577 q 460 612 484 600 q 413 624 436 624 q 369 611 388 624 q 351 574 351 597 q 371 538 351 553 q 415 515 391 522 q 471 499 439 507 q 512 488 503 491 q 675 268 675 421 q 605 59 675 130 q 397 -12 534 -12 q 188 52 256 -12 l 163 6 l 43 6 l 48 262 l 198 262 q 237 179 206 216 q 313 142 269 142 q 364 155 341 142 q 387 195 387 169 q 368 234 387 218 q 320 262 349 251 q 254 284 290 273 q 183 312 218 296 q 118 352 147 329 q 70 414 88 375 q 51 506 51 454 q 88 639 51 585 q 187 717 125 693 q 330 741 248 741 q 444 729 393 741 q 509 712 496 718 q 530 701 523 705 l 548 733 l 662 733 l 662 516 l 526 516 z "},"Ț":{"ha":1038,"x_min":25,"x_max":1013,"o":"m 823 654 l 781 861 l 709 861 l 709 244 l 820 244 l 820 0 l 216 0 l 216 244 l 327 244 l 327 861 l 259 861 l 216 654 l 25 654 l 25 1100 l 1013 1100 l 1013 654 l 823 654 m 252 -457 q 305 -453 283 -457 q 341 -438 328 -448 q 363 -416 355 -427 q 375 -385 372 -406 q 380 -350 379 -365 q 380 -306 380 -334 l 252 -306 l 252 -58 l 598 -58 q 614 -245 614 -162 q 526 -522 614 -434 q 252 -610 438 -610 l 252 -457 z "},"ț":{"ha":593,"x_min":30,"x_max":569,"o":"m 569 33 l 544 22 q 467 -1 519 10 q 360 -12 414 -12 q 102 261 101 -12 l 103 516 l 30 516 l 30 727 l 100 727 l 100 882 l 430 954 l 430 727 l 533 727 l 533 516 l 430 516 l 429 297 q 444 249 429 271 q 496 227 458 227 q 569 236 526 227 l 569 33 m 163 -457 q 216 -453 193 -457 q 252 -438 238 -448 q 274 -416 266 -427 q 286 -385 282 -406 q 290 -350 290 -365 q 291 -306 291 -334 l 163 -306 l 163 -58 l 509 -58 q 525 -245 525 -162 q 437 -522 525 -434 q 163 -610 349 -610 l 163 -457 z "},"ȷ":{"ha":524,"x_min":33,"x_max":444,"o":"m 33 -49 q 82 -41 58 -52 q 106 -6 106 -31 l 106 515 l 45 515 l 45 727 l 444 727 l 444 87 q 425 -70 444 -5 q 358 -180 405 -134 q 232 -248 311 -227 q 35 -270 152 -270 l 33 -49 z "},"ˆ":{"ha":689,"x_min":70,"x_max":625,"o":"m 439 1085 l 625 830 l 520 762 l 347 928 l 174 762 l 70 830 l 255 1086 l 439 1085 z "},"ˇ":{"ha":689,"x_min":63,"x_max":618,"o":"m 248 779 l 63 1035 l 168 1103 l 340 937 l 513 1103 l 618 1035 l 432 780 l 248 779 z "},"˘":{"ha":1158,"x_min":248,"x_max":796,"o":"m 522 844 q 318 912 387 844 q 248 1100 248 980 l 419 1100 q 450 1020 419 1048 q 522 991 480 991 q 595 1020 564 991 q 625 1100 625 1048 l 796 1100 q 726 912 796 981 q 522 844 656 844 z "},"˙":{"ha":739,"x_min":190,"x_max":572,"o":"m 378 777 q 243 822 297 777 q 190 946 190 868 q 242 1067 190 1023 q 378 1112 295 1112 q 518 1067 464 1112 q 572 946 572 1023 q 516 822 572 868 q 378 777 460 777 z "},"˚":{"ha":1158,"x_min":289,"x_max":663,"o":"m 473 841 q 555 871 525 841 q 585 941 585 901 q 555 1010 585 981 q 473 1040 526 1040 q 392 1010 421 1040 q 363 941 363 981 q 393 871 363 901 q 473 841 422 841 m 473 772 q 338 823 387 772 q 289 942 289 873 q 337 1058 289 1009 q 473 1107 385 1107 q 613 1059 563 1107 q 663 942 663 1010 q 612 823 663 873 q 473 772 562 772 z "},"˛":{"ha":1158,"x_min":358,"x_max":623,"o":"m 591 0 q 545 -82 571 -41 q 508 -145 519 -123 q 496 -184 496 -168 q 526 -233 496 -214 q 623 -252 557 -252 l 623 -329 l 608 -329 q 432 -289 505 -329 q 358 -193 358 -249 q 361 -172 358 -182 q 376 -142 365 -161 q 395 -109 387 -123 q 428 -60 404 -96 q 469 0 452 -25 l 591 0 z "},"˜":{"ha":1158,"x_min":153,"x_max":757,"o":"m 572 1033 q 627 1020 602 1033 q 669 984 651 1007 q 700 937 686 960 q 729 884 713 914 q 757 836 745 853 l 680 785 q 612 846 631 833 q 581 859 593 859 q 508 838 550 859 q 421 797 466 818 q 338 777 376 777 q 283 789 308 777 q 241 825 259 802 q 210 871 223 848 q 181 925 197 894 q 153 973 165 956 l 230 1024 q 300 961 281 975 q 332 948 319 948 q 388 961 356 948 q 446 990 420 975 q 507 1020 473 1006 q 572 1033 542 1033 z "},"˝":{"ha":1002,"x_min":296,"x_max":911,"o":"m 603 1149 l 408 765 l 296 806 l 399 1230 l 603 1149 m 911 1088 l 624 766 l 526 833 l 734 1217 l 911 1088 z "},"Σ":{"ha":964,"x_min":50,"x_max":917,"o":"m 511 237 l 680 237 l 689 285 l 732 466 l 917 466 l 917 0 l 50 0 l 50 236 l 157 236 l 284 565 l 157 861 l 50 861 l 50 1101 l 909 1101 l 909 657 l 728 656 l 676 861 l 511 861 l 634 565 l 511 237 z "},"Ω":{"ha":1032,"x_min":89,"x_max":1014,"o":"m 741 660 q 731 775 741 724 q 701 870 722 827 q 642 938 680 913 q 551 962 604 962 q 461 938 499 962 q 402 870 423 913 q 371 775 381 827 q 361 660 361 724 q 376 454 361 541 q 408 326 390 366 q 448 263 425 286 q 480 238 471 240 q 494 235 489 235 l 494 0 l 120 0 l 120 212 l 283 212 q 140 415 191 299 q 89 646 89 530 q 106 791 89 722 q 160 921 123 861 q 251 1026 197 982 q 381 1096 304 1070 q 551 1121 458 1121 q 721 1096 644 1121 q 852 1026 798 1070 q 942 921 905 982 q 997 791 979 861 q 1014 646 1014 722 q 963 415 1014 530 q 819 212 912 299 l 983 212 l 983 0 l 608 0 l 608 235 l 622 238 q 655 263 635 241 q 694 326 675 286 q 728 454 714 366 q 741 660 741 541 z "},"π":{"ha":1042,"x_min":24,"x_max":980,"o":"m 202 516 q 98 495 132 516 q 64 441 64 475 l 24 441 q 25 521 24 494 q 30 584 26 549 q 42 634 35 618 q 66 671 50 650 q 104 699 82 691 q 160 714 125 706 q 236 725 194 723 q 338 727 279 727 l 979 727 l 979 516 l 878 516 q 878 505 878 512 q 892 239 878 283 q 980 195 905 195 l 980 -12 q 906 -12 930 -12 q 841 -10 882 -12 q 781 -5 800 -8 q 732 5 762 -1 q 688 22 701 12 q 654 47 674 33 q 625 82 634 62 q 607 129 616 102 q 594 189 597 155 q 591 263 591 222 l 591 516 l 484 516 l 483 0 l 102 0 l 202 516 z "},"Ṇ":{"ha":1271,"x_min":66,"x_max":1230,"o":"m 1230 1100 l 798 1101 l 798 861 q 844 859 825 862 q 875 846 864 855 q 893 828 886 837 q 902 805 900 820 q 905 781 905 789 q 905 757 905 773 l 905 439 l 569 1101 l 71 1101 l 71 863 l 177 863 l 177 373 q 176 332 177 347 q 169 298 174 317 q 152 269 163 279 q 119 251 140 258 q 66 243 98 243 l 66 0 l 498 0 l 498 243 q 416 266 441 243 q 391 344 391 288 l 391 616 l 712 0 l 1123 0 l 1123 758 q 1148 835 1123 808 q 1230 861 1173 861 l 1230 1100 m 661 -393 q 526 -347 580 -393 q 473 -223 473 -301 q 525 -102 473 -146 q 661 -57 578 -57 q 801 -102 747 -57 q 855 -223 855 -146 q 799 -347 855 -301 q 661 -393 743 -393 z "}}}
